<!-- Generated by readme-aura https://github.com/collectioneur/readme-aura -->
<svg width="800" height="260" viewBox="0 0 800 260" xmlns="http://www.w3.org/2000/svg"><defs><clipPath id="satori_bc-id"><path x="0" y="0" width="800" height="260" d="M20,0 h760 a20,20 0 0 1 20,20 v220 a20,20 0 0 1 -20,20 h-760 a20,20 0 0 1 -20,-20 v-220 a20,20 0 0 1 20,-20"/></clipPath></defs><clipPath id="satori_cp-id"><path x="0" y="0" width="800" height="260" d="M20,0 h760 a20,20 0 0 1 20,20 v220 a20,20 0 0 1 -20,20 h-760 a20,20 0 0 1 -20,-20 v-220 a20,20 0 0 1 20,-20"/></clipPath><mask id="satori_om-id"><rect x="1" y="1" width="798" height="258" fill="#fff"/><path width="800" height="260" fill="none" stroke="#000" stroke-width="2" d="M5.8580000000000005,5.8580000000000005 A20,20 0 0 1 20,0 h760 a20,20 0 0 1 20,20 v220 a20,20 0 0 1 -20,20 h-760 a20,20 0 0 1 -20,-20 v-220 A20,20 0 0 1 5.8580000000000005,5.8580000000000005"/></mask><path x="0" y="0" width="800" height="260" fill="#06060a" d="M20,0 h760 a20,20 0 0 1 20,20 v220 a20,20 0 0 1 -20,20 h-760 a20,20 0 0 1 -20,-20 v-220 a20,20 0 0 1 20,-20"/><path width="800" height="260" clip-path="url(#satori_bc-id)" fill="none" stroke="rgba(110,80,220,0.2)" stroke-width="2" d="M5.8580000000000005,5.8580000000000005 A20,20 0 0 1 20,0 h760 a20,20 0 0 1 20,20 v220 a20,20 0 0 1 -20,20 h-760 a20,20 0 0 1 -20,-20 v-220 A20,20 0 0 1 5.8580000000000005,5.8580000000000005"/><clipPath id="satori_cp-id-0" clip-path="url(#satori_cp-id)"><rect x="1" y="1" width="800" height="260"/></clipPath><mask id="satori_om-id-0"><rect x="1" y="1" width="800" height="260" fill="#fff" mask="url(#satori_om-id)"/></mask><svg x="1" y="1" width="800" height="260" preserveAspectRatio="none" clip-path="url(#satori_cp-id-0)" mask="url(#satori_om-id-0)"><defs><radialGradient id="hg1" cx="50%" cy="50%" r="50%"><stop offset="0%" stop-color="rgba(138,43,226,0.65)"></stop><stop offset="100%" stop-color="rgba(138,43,226,0)"></stop></radialGradient><radialGradient id="hg2" cx="50%" cy="50%" r="50%"><stop offset="0%" stop-color="rgba(20,80,255,0.6)"></stop><stop offset="100%" stop-color="rgba(20,80,255,0)"></stop></radialGradient><radialGradient id="hg3" cx="50%" cy="50%" r="50%"><stop offset="0%" stop-color="rgba(0,220,240,0.55)"></stop><stop offset="100%" stop-color="rgba(0,220,240,0)"></stop></radialGradient><radialGradient id="hg4" cx="50%" cy="50%" r="50%"><stop offset="0%" stop-color="rgba(220,40,255,0.5)"></stop><stop offset="100%" stop-color="rgba(220,40,255,0)"></stop></radialGradient><linearGradient id="hg-scan" x1="0%" y1="0%" x2="100%" y2="0%"><stop offset="0%" stop-color="rgba(120,200,255,0)"></stop><stop offset="50%" stop-color="rgba(120,200,255,0.4)"></stop><stop offset="100%" stop-color="rgba(120,200,255,0)"></stop></linearGradient></defs><ellipse id="hdr-g1" cx="80" cy="50" rx="180" ry="120" fill="url(#hg1)"></ellipse><ellipse id="hdr-g2" cx="720" cy="70" rx="160" ry="110" fill="url(#hg2)"></ellipse><ellipse id="hdr-g3" cx="400" cy="220" rx="200" ry="120" fill="url(#hg3)"></ellipse><ellipse id="hdr-g4" cx="220" cy="180" rx="130" ry="90" fill="url(#hg4)"></ellipse><circle id="hdr-ring1" cx="400" cy="110" r="80" fill="none" stroke="rgba(120,80,255,0.2)" stroke-width="1"></circle><circle id="hdr-ring2" cx="400" cy="110" r="120" fill="none" stroke="rgba(80,180,255,0.12)" stroke-width="1"></circle><rect id="hdr-scan1" x="0" y="90" width="200" height="1" fill="url(#hg-scan)"></rect><circle id="hdr-dot1" cx="120" cy="45" r="2" fill="rgba(120,200,255,0.8)"></circle><style>

      @keyframes hdr-drift-r { 0%, 100% { transform: translate(0, 0); opacity: 0.7; } 50% { transform: translate(45px, -22px); opacity: 1.15; } }
      @keyframes hdr-drift-l { 0%, 100% { transform: translate(0, 0); opacity: 0.6; } 50% { transform: translate(-40px, 20px); opacity: 1.05; } }
      @keyframes hdr-drift-u { 0%, 100% { transform: translate(0, 0); opacity: 0.75; } 50% { transform: translate(30px, -30px); opacity: 1.1; } }
      @keyframes hdr-pulse { 0%, 100% { transform: scale(1); opacity: 0.6; } 50% { transform: scale(1.3); opacity: 0.35; } }
      @keyframes hdr-scan { 0% { transform: translate(-900px, 0); opacity: 0; } 10% { opacity: 1; } 90% { opacity: 1; } 100% { transform: translate(900px, 0); opacity: 0; } }
      @keyframes hdr-ring-pulse { 0%, 100% { transform: scale(0.9); opacity: 0.15; } 50% { transform: scale(1.1); opacity: 0.4; } }
      @keyframes hdr-ring2-pulse { 0%, 100% { transform: scale(1.1); opacity: 0.1; } 50% { transform: scale(0.85); opacity: 0.3; } }
      @keyframes hdr-draw { 0% { stroke-dashoffset: 500; } 100% { stroke-dashoffset: 0; } }
      @keyframes hdr-draw-rev { 0% { stroke-dashoffset: 0; } 100% { stroke-dashoffset: -400; } }
      @keyframes hdr-dot-float { 0%, 100% { transform: translate(0, 0); opacity: 0.4; } 50% { transform: translate(12px, -18px); opacity: 1; } }
      #hdr-g1 { animation: hdr-drift-r 6.5s ease-in-out infinite; }
      #hdr-g2 { animation: hdr-drift-l 8.2s ease-in-out infinite 0.4s; }
      #hdr-g3 { animation: hdr-drift-u 7.0s ease-in-out infinite 0.7s; }
      #hdr-g4 { animation: hdr-pulse 5.0s ease-in-out infinite; }
      #hdr-scan1 { animation: hdr-scan 4s linear infinite; }
      #hdr-scan2 { animation: hdr-scan 4.5s linear infinite 2s; }
      #hdr-ring1 { animation: hdr-ring-pulse 4s ease-in-out infinite; }
      #hdr-ring2 { animation: hdr-ring2-pulse 5s ease-in-out infinite 0.5s; }
      #hdr-path1 { animation: hdr-draw 3s ease-in-out infinite; }
      #hdr-dot1 { animation: hdr-dot-float 3.5s ease-in-out infinite; }
    
</style>
</svg><mask id="satori_om-id-0-0"><rect x="1" y="1" width="0" height="260" fill="#fff" mask="url(#satori_om-id)"/></mask><mask id="satori_om-id-0-0-0"><rect x="1" y="1" width="0" height="260" fill="#fff" mask="url(#satori_om-id)"/></mask><mask id="satori_om-id-0-0-0-0"><rect x="1" y="1" width="0" height="260" fill="#fff" mask="url(#satori_om-id)"/></mask><mask id="satori_om-id-0-0-0-1"><rect x="1" y="1" width="0" height="260" fill="#fff" mask="url(#satori_om-id)"/></mask><mask id="satori_om-id-0-0-1"><rect x="1" y="1" width="0" height="260" fill="#fff" mask="url(#satori_om-id)"/></mask><mask id="satori_om-id-0-0-1-0"><rect x="1" y="1" width="0" height="260" fill="#fff" mask="url(#satori_om-id)"/></mask><mask id="satori_om-id-0-0-1-1"><rect x="1" y="1" width="0" height="260" fill="#fff" mask="url(#satori_om-id)"/></mask><mask id="satori_om-id-0-0-2"><rect x="1" y="1" width="0" height="260" fill="#fff" mask="url(#satori_om-id)"/></mask><mask id="satori_om-id-0-0-2-0"><rect x="1" y="1" width="0" height="260" fill="#fff" mask="url(#satori_om-id)"/></mask><mask id="satori_om-id-0-0-2-1"><rect x="1" y="1" width="0" height="260" fill="#fff" mask="url(#satori_om-id)"/></mask><mask id="satori_om-id-0-0-3"><rect x="1" y="1" width="0" height="260" fill="#fff" mask="url(#satori_om-id)"/></mask><mask id="satori_om-id-0-0-3-0"><rect x="1" y="1" width="0" height="260" fill="#fff" mask="url(#satori_om-id)"/></mask><mask id="satori_om-id-0-0-3-1"><rect x="1" y="1" width="0" height="260" fill="#fff" mask="url(#satori_om-id)"/></mask><mask id="satori_om-id-0-0-4"><rect x="1" y="1" width="0" height="260" fill="#fff" mask="url(#satori_om-id)"/></mask><mask id="satori_om-id-0-0-4-0"><rect x="1" y="1" width="0" height="260" fill="#fff" mask="url(#satori_om-id)"/></mask><mask id="satori_om-id-0-0-4-1"><rect x="1" y="1" width="0" height="260" fill="#fff" mask="url(#satori_om-id)"/></mask><mask id="satori_om-id-0-0-4-2"><rect x="1" y="1" width="0" height="260" fill="#fff" mask="url(#satori_om-id)"/></mask><mask id="satori_om-id-0-1"><rect x="1" y="1" width="0" height="260" fill="#fff" mask="url(#satori_om-id)"/></mask><mask id="satori_om-id-0-2"><rect x="1" y="1" width="0" height="260" fill="#fff" mask="url(#satori_om-id)"/></mask><mask id="satori_om-id-0-3"><rect x="1" y="1" width="0" height="260" fill="#fff" mask="url(#satori_om-id)"/></mask><mask id="satori_om-id-0-4"><rect x="1" y="1" width="0" height="260" fill="#fff" mask="url(#satori_om-id)"/></mask><mask id="satori_om-id-0-5"><rect x="1" y="1" width="0" height="260" fill="#fff" mask="url(#satori_om-id)"/></mask><mask id="satori_om-id-0-6"><rect x="1" y="1" width="0" height="260" fill="#fff" mask="url(#satori_om-id)"/></mask><mask id="satori_om-id-0-7"><rect x="1" y="1" width="0" height="260" fill="#fff" mask="url(#satori_om-id)"/></mask><mask id="satori_om-id-0-8"><rect x="1" y="1" width="0" height="260" fill="#fff" mask="url(#satori_om-id)"/></mask><mask id="satori_om-id-1"><rect x="145" y="43" width="511" height="125" fill="#fff" mask="url(#satori_om-id)"/></mask><clipPath id="satori_bct-id-1-0" clip-path="url(#satori_cp-id)"><path d="M223.8 105L214.2 105L214.2 58.4L232.4 58.4Q237.7 58.4 241.4 60.5Q245.1 62.5 247.1 66.0Q249.0 69.6 249.0 74.2L249.0 74.2Q249.0 78.8 247.0 82.3Q245.1 85.8 241.3 87.8Q237.5 89.8 232.2 89.8L232.2 89.8L223.8 89.8L223.8 105ZM223.8 66.3L223.8 82.1L230.6 82.1Q233.6 82.1 235.5 81.1Q237.3 80.1 238.3 78.3Q239.2 76.5 239.2 74.2Q239.2 71.8 238.3 70.0Q237.3 68.3 235.4 67.3Q233.5 66.3 230.6 66.3L230.6 66.3L223.8 66.3ZM275.2 105L265.7 105L265.7 58.4L283.8 58.4Q289.2 58.4 292.9 60.3Q296.6 62.2 298.5 65.6Q300.5 69 300.5 73.6Q300.5 78.2 298.5 81.5Q296.5 84.8 292.8 86.6L292.8 86.6Q292.5 86.7 292.3 86.8L292.3 86.8L302.2 105L291.6 105L282.7 88.4L275.2 88.4L275.2 105ZM275.2 66.3L275.2 80.7L282.1 80.7Q285.0 80.7 286.9 79.9Q288.8 79.1 289.7 77.5Q290.7 75.9 290.7 73.6L290.7 73.6Q290.7 71.2 289.7 69.6Q288.8 68 286.9 67.2Q285 66.3 282.1 66.3L282.1 66.3L275.2 66.3ZM325.6 105L315.0 105L330.9 58.4L343.4 58.4L359.8 105L349.2 105L345.6 94.2L329.0 94.2L325.6 105ZM331.4 86.7L343.1 86.7L341.7 82.5Q340.3 78.2 339.0 73L339.0 73Q338.1 69.7 337.1 65.9L337.1 65.9Q336.2 69.7 335.3 73.1L335.3 73.1Q334.0 78.3 332.8 82.5L332.8 82.5L331.4 86.7ZM395.2 105L375.5 105L375.5 58.4L394.0 58.4Q399.1 58.4 402.5 60.0Q405.9 61.5 407.6 64.2Q409.3 66.9 409.3 70.4L409.3 70.4Q409.3 73.2 408.3 75.2Q407.2 77.3 405.3 78.5Q403.4 79.8 401.0 80.4L401.0 80.4L401.0 80.9Q403.6 81.0 405.9 82.4Q408.3 83.8 409.7 86.2Q411.2 88.7 411.2 92.2L411.2 92.2Q411.2 95.8 409.3 98.8Q407.5 101.7 404.0 103.3Q400.4 105 395.2 105L395.2 105ZM385.0 84.5L385.0 97.2L393.3 97.2Q397.5 97.2 399.4 95.5Q401.3 93.9 401.3 91.3L401.3 91.3Q401.3 89.3 400.4 87.8Q399.4 86.3 397.7 85.4Q395.9 84.5 393.5 84.5L393.5 84.5L385.0 84.5ZM385.0 66.2L385.0 78L392.6 78Q394.6 78 396.2 77.3Q397.8 76.5 398.8 75.2Q399.7 73.8 399.7 71.9L399.7 71.9Q399.7 69.4 397.9 67.8Q396.1 66.2 392.8 66.2L392.8 66.2L385.0 66.2ZM437.4 105L427.8 105L427.8 58.4L437.4 58.4L437.4 77.3L457.7 77.3L457.7 58.4L467.2 58.4L467.2 105L457.7 105L457.7 85.2L437.4 85.2L437.4 105ZM493.5 105L483.0 105L498.9 58.4L511.4 58.4L527.7 105L517.1 105L513.5 94.2L497.0 94.2L493.5 105ZM499.3 86.7L511.0 86.7L509.6 82.5Q508.3 78.2 506.9 73L506.9 73Q506 69.7 505.0 65.9L505.0 65.9Q504.1 69.7 503.3 73.1L503.3 73.1Q502.0 78.3 500.7 82.5L500.7 82.5L499.3 86.7ZM555.8 66.3L541.6 66.3L541.6 58.4L579.6 58.4L579.6 66.3L565.4 66.3L565.4 105L555.8 105L555.8 66.3Z "/></clipPath><defs><pattern id="satori_pattern_id-1-0_0" x="0" y="0" width="1" height="1" patternUnits="objectBoundingBox"><linearGradient id="satori_biid-1-0_0" x1="-0.07732807386090484" y1="0.3836275872060482" x2="1.0773280738609048" y2="0.6163724127939517" spreadMethod="pad"><stop offset="0%" stop-color="#ffffff"/><stop offset="30%" stop-color="#d0c0ff"/><stop offset="55.00000000000001%" stop-color="#7ee7ff"/><stop offset="80%" stop-color="#ff88cc"/><stop offset="100%" stop-color="#ffffff"/></linearGradient><rect x="0" y="0" width="382" height="77" fill="url(#satori_biid-1-0_0)"/></pattern></defs><mask id="satori_om-id-1-0"><rect x="210" y="43" width="382" height="77" fill="#fff" mask="url(#satori_om-id)"/></mask><rect x="210" y="43" width="382" height="77" fill="url(#satori_pattern_id-1-0_0)" clip-path="url(#satori_bct-id-1-0)" mask="url(#satori_om-id)"/><mask id="satori_om-id-1-1"><rect x="306" y="126" width="189" height="17" fill="#fff" mask="url(#satori_om-id)"/></mask><g mask="url(#satori_om-id)" clip-path="url(#satori_cp-id)"><path fill="#6a6a8a" d="M308.5 140L307.2 140L307.2 129.8L308.5 129.8L308.5 133.3L308.5 135.2Q308.7 135.0 308.8 134.8L308.8 134.8Q309.2 134.3 309.5 133.9Q309.9 133.5 310.3 133.1L310.3 133.1L313.3 129.8L315.0 129.8L310.9 134.2L315.0 140L313.5 140L310.0 135.1L308.5 136.7L308.5 140ZM324.6 140.2L324.6 140.2Q323.4 140.2 322.5 139.7Q321.6 139.2 321.1 138.4Q320.6 137.6 320.6 136.5L320.6 136.5L320.6 129.8L321.9 129.8L321.9 136.4Q321.9 137.2 322.3 137.7Q322.6 138.3 323.2 138.6Q323.8 139.0 324.6 139.0L324.6 139.0Q325.5 139.0 326.1 138.6Q326.7 138.3 327.0 137.7Q327.3 137.2 327.3 136.4L327.3 136.4L327.3 129.8L328.6 129.8L328.6 136.5Q328.6 137.6 328.1 138.4Q327.6 139.2 326.7 139.7Q325.8 140.2 324.6 140.2ZM336.4 140L335.1 140L335.1 129.8L336.6 129.8L340.7 136.3Q340.9 136.6 341.1 137.0Q341.4 137.4 341.6 137.9L341.6 137.9Q341.8 138.2 341.9 138.5L341.9 138.5Q341.9 138.1 341.9 137.8L341.9 137.8Q341.9 137.3 341.8 136.8Q341.8 136.4 341.8 136.1L341.8 136.1L341.8 129.8L343.1 129.8L343.1 140L341.6 140L337.9 134.2Q337.7 133.8 337.4 133.4Q337.1 132.9 336.8 132.4L336.8 132.4Q336.6 131.9 336.3 131.4L336.3 131.4Q336.3 131.9 336.3 132.3L336.3 132.3Q336.3 133.0 336.3 133.4Q336.4 133.9 336.4 134.2L336.4 134.2L336.4 140ZM353.0 140L351.5 140L348.7 129.8L350.1 129.8L351.7 136.1Q351.8 136.6 351.9 137.1Q352.0 137.6 352.1 138.1L352.1 138.1Q352.2 138.4 352.3 138.8L352.3 138.8Q352.3 138.4 352.4 138.1L352.4 138.1Q352.5 137.6 352.6 137.1Q352.8 136.6 352.9 136.1L352.9 136.1L354.5 129.8L356.0 129.8L357.6 136.1Q357.8 136.6 357.9 137.1Q358.0 137.6 358.1 138.1L358.1 138.1Q358.2 138.4 358.3 138.7L358.3 138.7Q358.3 138.4 358.4 138.1L358.4 138.1Q358.5 137.6 358.6 137.1Q358.7 136.6 358.9 136.1L358.9 136.1L360.5 129.8L361.8 129.8L359.0 140L357.5 140L355.8 133.5Q355.6 132.9 355.4 132.2L355.4 132.2Q355.3 131.8 355.3 131.3L355.3 131.3Q355.2 131.7 355.1 132.1L355.1 132.1Q355.0 132.8 354.8 133.5L354.8 133.5L353.0 140ZM367.9 140L366.5 140L370.2 129.8L371.7 129.8L375.5 140L374.1 140L373.1 137.2L368.9 137.2L367.9 140ZM369.3 136.0L372.7 136.0L371.9 134.0Q371.7 133.4 371.5 132.6L371.5 132.6Q371.3 131.9 371.0 130.9L371.0 130.9Q370.7 131.9 370.5 132.6L370.5 132.6Q370.2 133.4 370.0 134.0L370.0 134.0L369.3 136.0ZM382.4 140L381.1 140L381.1 129.8L384.5 129.8Q385.7 129.8 386.5 130.2Q387.3 130.6 387.6 131.3Q388.0 132.0 388.0 133.0Q388.0 133.9 387.6 134.6Q387.3 135.3 386.5 135.7L386.5 135.7Q386.3 135.7 386.1 135.8L386.1 135.8L388.4 140L386.9 140L384.8 136.0Q384.7 136.0 384.5 136.0L384.5 136.0L382.4 136.0L382.4 140ZM382.4 131.0L382.4 134.9L384.5 134.9Q385.3 134.9 385.8 134.7Q386.3 134.4 386.5 134.0Q386.7 133.6 386.7 133.0L386.7 133.0Q386.7 132.4 386.5 131.9Q386.3 131.5 385.8 131.2Q385.3 131.0 384.5 131.0L384.5 131.0L382.4 131.0Z M403.3 140L402.0 140L402.0 129.8L405.5 129.8Q406.7 129.8 407.4 130.2Q408.2 130.7 408.6 131.4Q409.0 132.1 409.0 133.1Q409.0 134.0 408.6 134.7Q408.2 135.4 407.5 135.9Q406.7 136.3 405.5 136.3L405.5 136.3L403.3 136.3L403.3 140ZM403.3 131.0L403.3 135.2L405.4 135.2Q406.2 135.2 406.7 134.9Q407.2 134.6 407.4 134.1Q407.7 133.7 407.7 133.1Q407.7 132.5 407.4 132.0Q407.2 131.5 406.7 131.2Q406.2 131.0 405.4 131.0L405.4 131.0L403.3 131.0ZM416.2 140L414.9 140L414.9 129.8L418.4 129.8Q419.6 129.8 420.4 130.2Q421.2 130.6 421.5 131.3Q421.9 132.0 421.9 133.0Q421.9 133.9 421.5 134.6Q421.2 135.3 420.4 135.7L420.4 135.7Q420.2 135.7 420.0 135.8L420.0 135.8L422.3 140L420.8 140L418.7 136.0Q418.6 136.0 418.4 136.0L418.4 136.0L416.2 136.0L416.2 140ZM416.2 131.0L416.2 134.9L418.4 134.9Q419.2 134.9 419.7 134.7Q420.2 134.4 420.4 134.0Q420.6 133.6 420.6 133.0L420.6 133.0Q420.6 132.4 420.4 131.9Q420.2 131.5 419.7 131.2Q419.2 131.0 418.4 131.0L418.4 131.0L416.2 131.0ZM428.5 140L427.1 140L430.8 129.8L432.3 129.8L436.0 140L434.7 140L433.6 137.2L429.4 137.2L428.5 140ZM429.8 136.0L433.2 136.0L432.5 134.0Q432.3 133.4 432.0 132.6L432.0 132.6Q431.8 131.9 431.5 130.9L431.5 130.9Q431.2 131.9 431.0 132.6L431.0 132.6Q430.7 133.4 430.6 134.0L430.6 134.0L429.8 136.0ZM445.3 140L441.6 140L441.6 129.8L445.2 129.8Q446.3 129.8 447.0 130.2Q447.7 130.5 448.0 131.2Q448.4 131.8 448.4 132.5L448.4 132.5Q448.4 133.2 448.1 133.6Q447.9 134.0 447.5 134.3Q447.1 134.5 446.7 134.7L446.7 134.7L446.7 134.8Q447.2 134.8 447.6 135.1Q448.1 135.4 448.4 135.9Q448.8 136.5 448.8 137.3L448.8 137.3Q448.8 138.1 448.4 138.7Q448.0 139.3 447.3 139.6Q446.5 140 445.3 140L445.3 140ZM442.9 135.4L442.9 138.9L445.3 138.9Q446.5 138.9 447.0 138.4Q447.5 137.9 447.5 137.3L447.5 137.3Q447.5 136.8 447.2 136.3Q447.0 135.9 446.5 135.6Q446.0 135.4 445.4 135.4L445.4 135.4L442.9 135.4ZM442.9 131.0L442.9 134.3L445.2 134.3Q445.7 134.3 446.1 134.1Q446.6 133.9 446.9 133.5Q447.1 133.1 447.1 132.5L447.1 132.5Q447.1 131.9 446.6 131.4Q446.2 131.0 445.2 131.0L445.2 131.0L442.9 131.0ZM456.1 140L454.8 140L454.8 129.8L456.1 129.8L456.1 134.2L461.4 134.2L461.4 129.8L462.7 129.8L462.7 140L461.4 140L461.4 135.4L456.1 135.4L456.1 140ZM469.7 140L468.3 140L472.0 129.8L473.5 129.8L477.3 140L475.9 140L474.9 137.2L470.7 137.2L469.7 140ZM471.1 136.0L474.5 136.0L473.7 134.0Q473.5 133.4 473.3 132.6L473.3 132.6Q473.0 131.9 472.7 130.9L472.7 130.9Q472.5 131.9 472.2 132.6L472.2 132.6Q472.0 133.4 471.8 134.0L471.8 134.0L471.1 136.0ZM485.5 131.0L482.3 131.0L482.3 129.8L490.0 129.8L490.0 131.0L486.8 131.0L486.8 140L485.5 140L485.5 131.0Z "/></g><mask id="satori_om-id-1-2"><rect x="145" y="153" width="511" height="15" fill="#fff" mask="url(#satori_om-id)"/></mask><g mask="url(#satori_om-id)" clip-path="url(#satori_cp-id)"><path fill="#4a4a6a" d="M151.2 165L146.1 165L146.1 156.3L147.2 156.3L147.2 164.0L151.2 164.0L151.2 165ZM156.9 165.1L156.9 165.1Q156.0 165.1 155.3 164.7Q154.6 164.3 154.3 163.5Q153.9 162.8 153.9 161.8L153.9 161.8Q153.9 160.7 154.3 160.0Q154.6 159.2 155.3 158.8Q156.0 158.4 156.9 158.4L156.9 158.4Q157.8 158.4 158.4 158.8Q159.1 159.2 159.5 160.0Q159.9 160.7 159.9 161.8L159.9 161.8Q159.9 162.8 159.5 163.5Q159.1 164.3 158.4 164.7Q157.8 165.1 156.9 165.1ZM156.9 164.2L156.9 164.2Q157.5 164.2 158.0 163.9Q158.4 163.5 158.6 163.0Q158.8 162.4 158.8 161.8L158.8 161.8Q158.8 161.1 158.6 160.6Q158.4 160.0 158.0 159.7Q157.5 159.3 156.9 159.3L156.9 159.3Q156.2 159.3 155.8 159.7Q155.4 160.0 155.2 160.6Q155.0 161.1 155.0 161.8L155.0 161.8Q155.0 162.4 155.2 163.0Q155.4 163.5 155.8 163.9Q156.2 164.2 156.9 164.2ZM165.4 165L164.4 165L162.4 158.4L163.5 158.4L164.3 161.3Q164.5 161.9 164.7 162.6L164.7 162.6Q164.8 163.2 164.9 163.9L164.9 163.9Q165.1 163.2 165.2 162.7L165.2 162.7Q165.4 161.9 165.6 161.3L165.6 161.3L166.3 158.4L167.5 158.4L168.2 161.3Q168.4 161.9 168.6 162.7L168.6 162.7Q168.7 163.2 168.8 163.9L168.8 163.9Q169.0 163.2 169.1 162.7L169.1 162.7Q169.3 161.9 169.5 161.3L169.5 161.3L170.3 158.4L171.4 158.4L169.4 165L168.4 165L167.5 162.0Q167.4 161.6 167.3 161.1Q167.1 160.6 167.0 160.2L167.0 160.2Q167.0 159.9 166.9 159.6L166.9 159.6Q166.8 159.9 166.8 160.1L166.8 160.1Q166.7 160.6 166.5 161.1Q166.4 161.6 166.3 162.0L166.3 162.0L165.4 165ZM174.1 160.8L178.0 160.8L178.0 161.8L174.1 161.8L174.1 160.8ZM181.2 156.3L182.3 156.3L182.3 165L181.2 165L181.2 156.3ZM188.4 165.1L188.4 165.1Q187.5 165.1 186.8 164.7Q186.1 164.3 185.7 163.5Q185.3 162.8 185.3 161.8Q185.3 160.8 185.7 160.0Q186.1 159.2 186.7 158.8Q187.4 158.4 188.3 158.4L188.3 158.4Q188.8 158.4 189.3 158.5Q189.8 158.7 190.2 159.1Q190.6 159.5 190.9 160.1Q191.1 160.7 191.1 161.6L191.1 161.6L191.1 162.1L186.4 162.1Q186.4 162.7 186.7 163.2L186.7 163.2Q186.9 163.7 187.4 163.9Q187.8 164.2 188.4 164.2L188.4 164.2Q188.8 164.2 189.1 164.1Q189.4 164.0 189.7 163.8Q189.9 163.5 190.0 163.2L190.0 163.2L191.0 163.5Q190.9 164.0 190.5 164.3Q190.2 164.7 189.6 164.9Q189.1 165.1 188.4 165.1ZM186.4 161.2L186.4 161.2L190.1 161.2Q190.0 160.7 189.9 160.4L189.9 160.4Q189.7 159.9 189.3 159.6Q188.9 159.3 188.3 159.3Q187.7 159.3 187.3 159.6Q186.8 159.9 186.6 160.3L186.6 160.3Q186.4 160.7 186.4 161.2ZM197.1 165L196.0 165L193.5 158.4L194.7 158.4L196.1 162.3Q196.3 162.9 196.5 163.5L196.5 163.5Q196.5 163.8 196.6 164.0L196.6 164.0Q196.7 163.8 196.7 163.5L196.7 163.5Q196.9 162.9 197.1 162.3L197.1 162.3L198.5 158.4L199.7 158.4L197.1 165ZM205.1 165.1L205.1 165.1Q204.2 165.1 203.5 164.7Q202.8 164.3 202.4 163.5Q202.1 162.8 202.1 161.8Q202.1 160.8 202.4 160.0Q202.8 159.2 203.5 158.8Q204.1 158.4 205.0 158.4L205.0 158.4Q205.5 158.4 206.1 158.5Q206.6 158.7 207.0 159.1Q207.4 159.5 207.6 160.1Q207.9 160.7 207.9 161.6L207.9 161.6L207.9 162.1L203.1 162.1Q203.2 162.7 203.4 163.2L203.4 163.2Q203.6 163.7 204.1 163.9Q204.6 164.2 205.2 164.2L205.2 164.2Q205.5 164.2 205.9 164.1Q206.2 164.0 206.4 163.8Q206.6 163.5 206.8 163.2L206.8 163.2L207.8 163.5Q207.6 164.0 207.3 164.3Q206.9 164.7 206.4 164.9Q205.8 165.1 205.1 165.1ZM203.1 161.2L203.1 161.2L206.8 161.2Q206.8 160.7 206.6 160.4L206.6 160.4Q206.4 159.9 206.0 159.6Q205.6 159.3 205.0 159.3Q204.4 159.3 204.0 159.6Q203.6 159.9 203.4 160.3L203.4 160.3Q203.2 160.7 203.1 161.2ZM210.9 156.3L211.9 156.3L211.9 165L210.9 165L210.9 156.3Z M223.1 165.2L223.1 165.2Q222.2 165.2 221.5 164.8Q220.8 164.5 220.4 164.0Q220.0 163.4 219.9 162.7L219.9 162.7L221.1 162.7Q221.1 163.2 221.4 163.5Q221.7 163.8 222.1 164.0Q222.6 164.2 223.1 164.2L223.1 164.2Q223.7 164.2 224.2 164.0Q224.6 163.8 224.9 163.4Q225.2 163.1 225.2 162.6L225.2 162.6Q225.2 162.2 224.9 161.9Q224.7 161.7 224.3 161.5Q223.9 161.3 223.5 161.2L223.5 161.2L222.4 160.9Q221.3 160.6 220.8 160.0Q220.2 159.5 220.2 158.6L220.2 158.6Q220.2 157.9 220.6 157.3Q221.0 156.8 221.6 156.5Q222.3 156.2 223.2 156.2L223.2 156.2Q224.0 156.2 224.7 156.5Q225.4 156.8 225.7 157.3Q226.1 157.8 226.1 158.5L226.1 158.5L225.1 158.5Q225.0 157.8 224.4 157.5Q223.9 157.1 223.1 157.1L223.1 157.1Q222.6 157.1 222.1 157.3Q221.7 157.5 221.5 157.8Q221.3 158.1 221.3 158.6L221.3 158.6Q221.3 159.0 221.5 159.3Q221.8 159.6 222.2 159.7Q222.6 159.9 222.9 160.0L222.9 160.0L223.8 160.2Q224.1 160.3 224.6 160.5Q225.0 160.6 225.4 160.9Q225.8 161.2 226.0 161.6Q226.3 162.0 226.3 162.6L226.3 162.6Q226.3 163.3 225.9 163.9Q225.5 164.5 224.8 164.8Q224.1 165.2 223.1 165.2ZM229.3 167.4L229.3 167.4L229.5 166.5L229.6 166.5Q230.0 166.6 230.2 166.5Q230.5 166.5 230.7 166.3Q230.9 166.0 231.1 165.6L231.1 165.6L231.3 165.0L228.8 158.4L229.9 158.4L231.3 162.3Q231.5 162.9 231.7 163.5L231.7 163.5Q231.7 163.8 231.8 164.0L231.8 164.0Q231.9 163.8 231.9 163.5L231.9 163.5Q232.1 162.9 232.3 162.3L232.3 162.3L233.7 158.4L234.9 158.4L232.0 166.0Q231.8 166.5 231.5 166.8Q231.2 167.2 230.9 167.3Q230.5 167.5 230.0 167.5L230.0 167.5Q229.8 167.5 229.6 167.5Q229.3 167.4 229.3 167.4ZM239.8 165.1L239.8 165.1Q239.2 165.1 238.6 164.9Q238.1 164.7 237.8 164.4Q237.4 164.0 237.3 163.4L237.3 163.4L238.3 163.2Q238.5 163.7 238.9 164.0Q239.2 164.2 239.8 164.2L239.8 164.2Q240.5 164.2 240.9 163.9Q241.3 163.6 241.3 163.2L241.3 163.2Q241.3 162.9 241.1 162.7Q240.9 162.4 240.4 162.3L240.4 162.3L239.3 162.1Q238.4 161.9 238.0 161.4Q237.5 161.0 237.5 160.3L237.5 160.3Q237.5 159.7 237.8 159.3Q238.2 158.9 238.7 158.6Q239.2 158.4 239.9 158.4L239.9 158.4Q240.6 158.4 241.1 158.6Q241.6 158.8 241.9 159.1Q242.2 159.5 242.3 159.9L242.3 159.9L241.3 160.2Q241.2 159.8 240.9 159.6Q240.6 159.3 240.0 159.3L240.0 159.3Q239.4 159.3 239.0 159.5Q238.6 159.8 238.6 160.2L238.6 160.2Q238.6 160.6 238.8 160.8Q239.1 161.0 239.7 161.2L239.7 161.2L240.7 161.4Q241.6 161.6 242.0 162.0Q242.4 162.5 242.4 163.2L242.4 163.2Q242.4 163.7 242.1 164.2Q241.8 164.6 241.2 164.9Q240.6 165.1 239.8 165.1ZM246.7 158.4L248.0 158.4L248.0 159.4L246.7 159.4L246.7 163.3Q246.7 163.7 246.9 163.9Q247.0 164.1 247.5 164.1L247.5 164.1Q247.6 164.1 247.7 164.1Q247.9 164.1 248.0 164.1L248.0 164.1L248.2 165.0Q248.0 165.0 247.8 165.1Q247.6 165.1 247.4 165.1L247.4 165.1Q246.6 165.1 246.1 164.6Q245.6 164.2 245.6 163.4L245.6 163.4L245.6 159.4L244.6 159.4L244.6 158.4L245.6 158.4L245.6 156.9L246.7 156.9L246.7 158.4ZM253.6 165.1L253.6 165.1Q252.7 165.1 252.0 164.7Q251.3 164.3 250.9 163.5Q250.6 162.8 250.6 161.8Q250.6 160.8 250.9 160.0Q251.3 159.2 251.9 158.8Q252.6 158.4 253.5 158.4L253.5 158.4Q254.0 158.4 254.5 158.5Q255.0 158.7 255.5 159.1Q255.9 159.5 256.1 160.1Q256.4 160.7 256.4 161.6L256.4 161.6L256.4 162.1L251.6 162.1Q251.6 162.7 251.9 163.2L251.9 163.2Q252.1 163.7 252.6 163.9Q253.0 164.2 253.6 164.2L253.6 164.2Q254.0 164.2 254.3 164.1Q254.7 164.0 254.9 163.8Q255.1 163.5 255.2 163.2L255.2 163.2L256.3 163.5Q256.1 164.0 255.7 164.3Q255.4 164.7 254.8 164.9Q254.3 165.1 253.6 165.1ZM251.6 161.2L251.6 161.2L255.3 161.2Q255.2 160.7 255.1 160.4L255.1 160.4Q254.9 159.9 254.5 159.6Q254.1 159.3 253.5 159.3Q252.9 159.3 252.5 159.6Q252.1 159.9 251.8 160.3L251.8 160.3Q251.7 160.7 251.6 161.2ZM260.4 165L259.4 165L259.4 158.4L260.4 158.4L260.4 159.7Q260.5 159.3 260.7 159.0L260.7 159.0Q261.0 158.7 261.4 158.5Q261.8 158.3 262.2 158.3L262.2 158.3Q262.9 158.3 263.4 158.8L263.4 158.8Q263.8 159.1 263.9 159.7L263.9 159.7Q264.0 159.3 264.3 159.1L264.3 159.1Q264.6 158.7 265.0 158.5Q265.4 158.3 266.0 158.3L266.0 158.3Q266.5 158.3 267.0 158.6Q267.5 158.8 267.8 159.3Q268.0 159.8 268.0 160.6L268.0 160.6L268.0 165L267.0 165L267.0 160.6Q267.0 159.9 266.6 159.6Q266.2 159.3 265.7 159.3L265.7 159.3Q265.2 159.3 264.9 159.5Q264.6 159.7 264.4 160.0Q264.2 160.3 264.2 160.7L264.2 160.7L264.2 165L263.2 165L263.2 160.5Q263.2 160.0 262.8 159.6Q262.4 159.3 261.9 159.3L261.9 159.3Q261.5 159.3 261.2 159.5Q260.8 159.7 260.6 160.0Q260.4 160.4 260.4 160.9L260.4 160.9L260.4 165ZM273.6 165.1L273.6 165.1Q272.9 165.1 272.4 164.9Q271.9 164.7 271.5 164.4Q271.2 164.0 271.1 163.4L271.1 163.4L272.1 163.2Q272.2 163.7 272.6 164.0Q273.0 164.2 273.6 164.2L273.6 164.2Q274.3 164.2 274.7 163.9Q275.1 163.6 275.1 163.2L275.1 163.2Q275.1 162.9 274.9 162.7Q274.6 162.4 274.1 162.3L274.1 162.3L273.0 162.1Q272.2 161.9 271.7 161.4Q271.3 161.0 271.3 160.3L271.3 160.3Q271.3 159.7 271.6 159.3Q271.9 158.9 272.5 158.6Q273.0 158.4 273.7 158.4L273.7 158.4Q274.4 158.4 274.9 158.6Q275.3 158.8 275.6 159.1Q275.9 159.5 276.1 159.9L276.1 159.9L275.1 160.2Q275.0 159.8 274.7 159.6Q274.4 159.3 273.7 159.3L273.7 159.3Q273.1 159.3 272.7 159.5Q272.4 159.8 272.4 160.2L272.4 160.2Q272.4 160.6 272.6 160.8Q272.9 161.0 273.5 161.2L273.5 161.2L274.4 161.4Q275.3 161.6 275.8 162.0Q276.2 162.5 276.2 163.2L276.2 163.2Q276.2 163.7 275.9 164.2Q275.5 164.6 275.0 164.9Q274.4 165.1 273.6 165.1Z M285.3 165L284.2 165L284.2 156.3L287.2 156.3Q288.2 156.3 288.9 156.6Q289.5 157.0 289.9 157.6Q290.2 158.3 290.2 159.0Q290.2 159.8 289.9 160.5Q289.5 161.1 288.9 161.5Q288.2 161.8 287.2 161.8L287.2 161.8L285.3 161.8L285.3 165ZM285.3 157.2L285.3 160.9L287.2 160.9Q287.9 160.9 288.3 160.6Q288.7 160.4 288.9 160.0Q289.1 159.6 289.1 159.0Q289.1 158.5 288.9 158.1Q288.7 157.7 288.3 157.5Q287.8 157.2 287.1 157.2L287.1 157.2L285.3 157.2ZM294.3 165L293.3 165L293.3 158.4L294.3 158.4L294.3 159.5L294.3 159.5Q294.5 159.0 295.0 158.7Q295.5 158.4 296.0 158.4L296.0 158.4Q296.2 158.4 296.3 158.4Q296.5 158.4 296.6 158.4L296.6 158.4L296.6 159.4Q296.5 159.4 296.3 159.4Q296.2 159.4 295.9 159.4L295.9 159.4Q295.5 159.4 295.1 159.6Q294.7 159.8 294.5 160.1Q294.3 160.5 294.3 160.9L294.3 160.9L294.3 165ZM301.9 165.1L301.9 165.1Q301.0 165.1 300.4 164.7Q299.7 164.3 299.3 163.5Q299.0 162.8 299.0 161.8L299.0 161.8Q299.0 160.7 299.3 160.0Q299.7 159.2 300.4 158.8Q301.0 158.4 301.9 158.4L301.9 158.4Q302.8 158.4 303.5 158.8Q304.2 159.2 304.6 160.0Q304.9 160.7 304.9 161.8L304.9 161.8Q304.9 162.8 304.6 163.5Q304.2 164.3 303.5 164.7Q302.8 165.1 301.9 165.1ZM301.9 164.2L301.9 164.2Q302.6 164.2 303.0 163.9Q303.5 163.5 303.7 163.0Q303.9 162.4 303.9 161.8L303.9 161.8Q303.9 161.1 303.7 160.6Q303.5 160.0 303.0 159.7Q302.6 159.3 301.9 159.3L301.9 159.3Q301.3 159.3 300.9 159.7Q300.4 160.0 300.2 160.6Q300.0 161.1 300.0 161.8L300.0 161.8Q300.0 162.4 300.2 163.0Q300.4 163.5 300.9 163.9Q301.3 164.2 301.9 164.2ZM310.6 167.6L310.6 167.6Q309.9 167.6 309.4 167.4Q308.8 167.2 308.5 166.9Q308.1 166.6 307.9 166.3L307.9 166.3L308.8 165.7Q308.9 165.9 309.1 166.1Q309.3 166.3 309.7 166.5Q310.0 166.7 310.6 166.7L310.6 166.7Q311.4 166.7 311.9 166.3Q312.4 165.9 312.4 165.1L312.4 165.1L312.4 163.8L312.3 163.8Q312.2 164.0 312.0 164.2Q311.8 164.5 311.4 164.7Q311.0 164.9 310.4 164.9L310.4 164.9Q309.6 164.9 309.0 164.5Q308.4 164.2 308.0 163.4Q307.7 162.7 307.7 161.7L307.7 161.7Q307.7 160.7 308.0 159.9Q308.4 159.2 309.0 158.8Q309.6 158.4 310.4 158.4L310.4 158.4Q311.1 158.4 311.5 158.6Q311.8 158.8 312.0 159.1Q312.2 159.3 312.3 159.5L312.3 159.5L312.4 159.5L312.4 158.4L313.5 158.4L313.5 165.2Q313.5 166.0 313.1 166.5Q312.7 167.1 312.1 167.3Q311.4 167.6 310.6 167.6ZM310.6 164.0L310.6 164.0Q311.2 164.0 311.6 163.7Q312.0 163.4 312.2 162.9Q312.4 162.4 312.4 161.7L312.4 161.7Q312.4 161.0 312.2 160.4Q312.0 159.9 311.6 159.6Q311.2 159.3 310.6 159.3L310.6 159.3Q310.0 159.3 309.6 159.6Q309.1 159.9 308.9 160.5Q308.7 161.0 308.7 161.7L308.7 161.7Q308.7 162.3 308.9 162.9Q309.1 163.4 309.6 163.7Q310.0 164.0 310.6 164.0ZM317.9 165L316.8 165L316.8 158.4L317.8 158.4L317.8 159.5L317.9 159.5Q318.1 159.0 318.6 158.7Q319.0 158.4 319.6 158.4L319.6 158.4Q319.7 158.4 319.9 158.4Q320.1 158.4 320.1 158.4L320.1 158.4L320.1 159.4Q320.1 159.4 319.9 159.4Q319.7 159.4 319.5 159.4L319.5 159.4Q319.0 159.4 318.7 159.6Q318.3 159.8 318.1 160.1Q317.9 160.5 317.9 160.9L317.9 160.9L317.9 165ZM324.7 165.2L324.7 165.2Q324.1 165.2 323.5 164.9Q323.0 164.7 322.7 164.2Q322.4 163.8 322.4 163.1L322.4 163.1Q322.4 162.6 322.7 162.2Q322.9 161.9 323.3 161.7Q323.6 161.5 324.1 161.4Q324.5 161.3 325.0 161.2L325.0 161.2Q325.6 161.1 325.9 161.1Q326.3 161.1 326.5 161.0Q326.7 160.9 326.7 160.6L326.7 160.6L326.7 160.6Q326.7 160.2 326.5 159.9Q326.4 159.6 326.1 159.4Q325.8 159.3 325.3 159.3L325.3 159.3Q324.8 159.3 324.5 159.4Q324.2 159.6 324.0 159.8Q323.8 160.0 323.6 160.3L323.6 160.3L322.6 159.9Q322.9 159.3 323.3 159.0Q323.7 158.6 324.3 158.5Q324.8 158.4 325.3 158.4L325.3 158.4Q325.6 158.4 326.0 158.4Q326.4 158.5 326.8 158.8Q327.2 159.0 327.5 159.5Q327.7 159.9 327.7 160.7L327.7 160.7L327.7 165L326.7 165L326.7 164.1L326.6 164.1Q326.5 164.3 326.3 164.6Q326.0 164.8 325.6 165.0Q325.2 165.2 324.7 165.2ZM324.9 164.2L324.9 164.2Q325.4 164.2 325.8 164.0Q326.3 163.8 326.5 163.4Q326.7 163.0 326.7 162.6L326.7 162.6L326.7 161.7Q326.6 161.8 326.4 161.9Q326.2 161.9 325.9 162.0Q325.6 162.0 325.4 162.0Q325.1 162.1 324.9 162.1L324.9 162.1Q324.6 162.1 324.2 162.3Q323.9 162.4 323.7 162.6Q323.5 162.8 323.5 163.2L323.5 163.2Q323.5 163.5 323.7 163.8Q323.9 164.0 324.2 164.1Q324.5 164.2 324.9 164.2ZM332.1 165L331.1 165L331.1 158.4L332.1 158.4L332.1 159.7Q332.2 159.3 332.5 159.0L332.5 159.0Q332.7 158.7 333.1 158.5Q333.5 158.3 333.9 158.3L333.9 158.3Q334.7 158.3 335.1 158.8L335.1 158.8Q335.5 159.1 335.6 159.7L335.6 159.7Q335.7 159.3 336.0 159.1L336.0 159.1Q336.3 158.7 336.7 158.5Q337.2 158.3 337.7 158.3L337.7 158.3Q338.2 158.3 338.7 158.6Q339.2 158.8 339.5 159.3Q339.7 159.8 339.7 160.6L339.7 160.6L339.7 165L338.7 165L338.7 160.6Q338.7 159.9 338.3 159.6Q337.9 159.3 337.4 159.3L337.4 159.3Q336.9 159.3 336.6 159.5Q336.3 159.7 336.1 160.0Q335.9 160.3 335.9 160.7L335.9 160.7L335.9 165L334.9 165L334.9 160.5Q334.9 160.0 334.5 159.6Q334.2 159.3 333.6 159.3L333.6 159.3Q333.2 159.3 332.9 159.5Q332.5 159.7 332.3 160.0Q332.1 160.4 332.1 160.9L332.1 160.9L332.1 165ZM344.1 165L343.1 165L343.1 158.4L344.1 158.4L344.1 159.7Q344.3 159.3 344.5 159.0L344.5 159.0Q344.8 158.7 345.1 158.5Q345.5 158.3 346.0 158.3L346.0 158.3Q346.7 158.3 347.1 158.8L347.1 158.8Q347.5 159.1 347.6 159.7L347.6 159.7Q347.8 159.3 348.0 159.1L348.0 159.1Q348.3 158.7 348.7 158.5Q349.2 158.3 349.7 158.3L349.7 158.3Q350.3 158.3 350.7 158.6Q351.2 158.8 351.5 159.3Q351.8 159.8 351.8 160.6L351.8 160.6L351.8 165L350.7 165L350.7 160.6Q350.7 159.9 350.3 159.6Q349.9 159.3 349.4 159.3L349.4 159.3Q348.9 159.3 348.6 159.5Q348.3 159.7 348.1 160.0Q348.0 160.3 348.0 160.7L348.0 160.7L348.0 165L346.9 165L346.9 160.5Q346.9 160.0 346.5 159.6Q346.2 159.3 345.6 159.3L345.6 159.3Q345.2 159.3 344.9 159.5Q344.6 159.7 344.4 160.0Q344.1 160.4 344.1 160.9L344.1 160.9L344.1 165ZM357.9 165.1L357.9 165.1Q356.9 165.1 356.2 164.7Q355.5 164.3 355.2 163.5Q354.8 162.8 354.8 161.8Q354.8 160.8 355.2 160.0Q355.5 159.2 356.2 158.8Q356.8 158.4 357.7 158.4L357.7 158.4Q358.3 158.4 358.8 158.5Q359.3 158.7 359.7 159.1Q360.1 159.5 360.3 160.1Q360.6 160.7 360.6 161.6L360.6 161.6L360.6 162.1L355.9 162.1Q355.9 162.7 356.1 163.2L356.1 163.2Q356.4 163.7 356.8 163.9Q357.3 164.2 357.9 164.2L357.9 164.2Q358.3 164.2 358.6 164.1Q358.9 164.0 359.1 163.8Q359.3 163.5 359.5 163.2L359.5 163.2L360.5 163.5Q360.3 164.0 360.0 164.3Q359.6 164.7 359.1 164.9Q358.5 165.1 357.9 165.1ZM355.9 161.2L355.9 161.2L359.5 161.2Q359.5 160.7 359.3 160.4L359.3 160.4Q359.1 159.9 358.7 159.6Q358.3 159.3 357.7 159.3Q357.1 159.3 356.7 159.6Q356.3 159.9 356.1 160.3L356.1 160.3Q355.9 160.7 355.9 161.2ZM364.7 165L363.6 165L363.6 158.4L364.6 158.4L364.6 159.5L364.7 159.5Q364.9 159.0 365.3 158.7Q365.8 158.4 366.4 158.4L366.4 158.4Q366.5 158.4 366.7 158.4Q366.8 158.4 366.9 158.4L366.9 158.4L366.9 159.4Q366.9 159.4 366.7 159.4Q366.5 159.4 366.3 159.4L366.3 159.4Q365.8 159.4 365.5 159.6Q365.1 159.8 364.9 160.1Q364.7 160.5 364.7 160.9L364.7 160.9L364.7 165Z M375.1 153.5L376.0 153.5L376.0 167.8L375.1 167.8L375.1 153.5Z M386.1 165L385.0 165L385.0 156.3L388.0 156.3Q389.0 156.3 389.7 156.6Q390.3 157.0 390.6 157.6Q391.0 158.3 391.0 159.0Q391.0 159.8 390.6 160.5Q390.3 161.1 389.7 161.5Q389.0 161.8 388.0 161.8L388.0 161.8L386.1 161.8L386.1 165ZM386.1 157.2L386.1 160.9L387.9 160.9Q388.6 160.9 389.0 160.6Q389.5 160.4 389.7 160.0Q389.8 159.6 389.8 159.0Q389.8 158.5 389.7 158.1Q389.5 157.7 389.0 157.5Q388.6 157.2 387.9 157.2L387.9 157.2L386.1 157.2ZM396.8 165.1L396.8 165.1Q395.8 165.1 395.1 164.7Q394.5 164.3 394.1 163.5Q393.7 162.8 393.7 161.8Q393.7 160.8 394.1 160.0Q394.4 159.2 395.1 158.8Q395.8 158.4 396.7 158.4L396.7 158.4Q397.2 158.4 397.7 158.5Q398.2 158.7 398.6 159.1Q399.0 159.5 399.3 160.1Q399.5 160.7 399.5 161.6L399.5 161.6L399.5 162.1L394.8 162.1Q394.8 162.7 395.0 163.2L395.0 163.2Q395.3 163.7 395.7 163.9Q396.2 164.2 396.8 164.2L396.8 164.2Q397.2 164.2 397.5 164.1Q397.8 164.0 398.0 163.8Q398.3 163.5 398.4 163.2L398.4 163.2L399.4 163.5Q399.3 164.0 398.9 164.3Q398.5 164.7 398.0 164.9Q397.5 165.1 396.8 165.1ZM394.8 161.2L394.8 161.2L398.4 161.2Q398.4 160.7 398.2 160.4L398.2 160.4Q398.0 159.9 397.6 159.6Q397.2 159.3 396.7 159.3Q396.1 159.3 395.6 159.6Q395.2 159.9 395.0 160.3L395.0 160.3Q394.8 160.7 394.8 161.2ZM403.6 165L402.5 165L402.5 158.4L403.5 158.4L403.5 159.5L403.6 159.5Q403.8 159.0 404.3 158.7Q404.7 158.4 405.3 158.4L405.3 158.4Q405.4 158.4 405.6 158.4Q405.7 158.4 405.8 158.4L405.8 158.4L405.8 159.4Q405.8 159.4 405.6 159.4Q405.4 159.4 405.2 159.4L405.2 159.4Q404.7 159.4 404.4 159.6Q404.0 159.8 403.8 160.1Q403.6 160.5 403.6 160.9L403.6 160.9L403.6 165ZM410.1 158.4L411.6 158.4L411.6 159.4L410.1 159.4L410.1 165L409.0 165L409.0 159.4L407.7 159.4L407.7 158.4L409.0 158.4L409.0 157.6Q409.0 157.0 409.3 156.6Q409.6 156.2 410.0 156.1Q410.4 155.9 410.9 155.9L410.9 155.9Q411.3 155.9 411.5 155.9Q411.7 156.0 411.9 156.0L411.9 156.0L411.6 156.9Q411.5 156.9 411.4 156.9Q411.2 156.8 411.0 156.8L411.0 156.8Q410.5 156.8 410.3 157.1Q410.1 157.3 410.1 157.8L410.1 157.8L410.1 158.4ZM417.1 165.1L417.1 165.1Q416.3 165.1 415.6 164.7Q414.9 164.3 414.5 163.5Q414.2 162.8 414.2 161.8L414.2 161.8Q414.2 160.7 414.5 160.0Q414.9 159.2 415.6 158.8Q416.3 158.4 417.1 158.4L417.1 158.4Q418.0 158.4 418.7 158.8Q419.4 159.2 419.8 160.0Q420.1 160.7 420.1 161.8L420.1 161.8Q420.1 162.8 419.8 163.5Q419.4 164.3 418.7 164.7Q418.0 165.1 417.1 165.1ZM417.1 164.2L417.1 164.2Q417.8 164.2 418.2 163.9Q418.7 163.5 418.9 163.0Q419.1 162.4 419.1 161.8L419.1 161.8Q419.1 161.1 418.9 160.6Q418.7 160.0 418.2 159.7Q417.8 159.3 417.1 159.3L417.1 159.3Q416.5 159.3 416.1 159.7Q415.6 160.0 415.4 160.6Q415.2 161.1 415.2 161.8L415.2 161.8Q415.2 162.4 415.4 163.0Q415.6 163.5 416.1 163.9Q416.5 164.2 417.1 164.2ZM424.2 165L423.2 165L423.2 158.4L424.2 158.4L424.2 159.5L424.3 159.5Q424.4 159.0 424.9 158.7Q425.4 158.4 426.0 158.4L426.0 158.4Q426.1 158.4 426.2 158.4Q426.4 158.4 426.5 158.4L426.5 158.4L426.5 159.4Q426.4 159.4 426.3 159.4Q426.1 159.4 425.9 159.4L425.9 159.4Q425.4 159.4 425.0 159.6Q424.7 159.8 424.4 160.1Q424.2 160.5 424.2 160.9L424.2 160.9L424.2 165ZM430.2 165L429.2 165L429.2 158.4L430.2 158.4L430.2 159.7Q430.4 159.3 430.6 159.0L430.6 159.0Q430.9 158.7 431.2 158.5Q431.6 158.3 432.1 158.3L432.1 158.3Q432.8 158.3 433.2 158.8L433.2 158.8Q433.6 159.1 433.7 159.7L433.7 159.7Q433.8 159.3 434.1 159.1L434.1 159.1Q434.4 158.7 434.8 158.5Q435.3 158.3 435.8 158.3L435.8 158.3Q436.4 158.3 436.8 158.6Q437.3 158.8 437.6 159.3Q437.9 159.8 437.9 160.6L437.9 160.6L437.9 165L436.8 165L436.8 160.6Q436.8 159.9 436.4 159.6Q436 159.3 435.5 159.3L435.5 159.3Q435.0 159.3 434.7 159.5Q434.4 159.7 434.2 160.0Q434.0 160.3 434.0 160.7L434.0 160.7L434.0 165L433.0 165L433.0 160.5Q433.0 160.0 432.6 159.6Q432.3 159.3 431.7 159.3L431.7 159.3Q431.3 159.3 431.0 159.5Q430.7 159.7 430.5 160.0Q430.2 160.4 430.2 160.9L430.2 160.9L430.2 165ZM443.0 165.2L443.0 165.2Q442.4 165.2 441.9 164.9Q441.4 164.7 441.1 164.2Q440.8 163.8 440.8 163.1L440.8 163.1Q440.8 162.6 441.0 162.2Q441.3 161.9 441.6 161.7Q442.0 161.5 442.4 161.4Q442.9 161.3 443.4 161.2L443.4 161.2Q443.9 161.1 444.3 161.1Q444.7 161.1 444.9 161.0Q445.0 160.9 445.0 160.6L445.0 160.6L445.0 160.6Q445.0 160.2 444.9 159.9Q444.7 159.6 444.4 159.4Q444.1 159.3 443.7 159.3L443.7 159.3Q443.2 159.3 442.9 159.4Q442.5 159.6 442.3 159.8Q442.1 160.0 442.0 160.3L442.0 160.3L441.0 159.9Q441.2 159.3 441.7 159.0Q442.1 158.6 442.6 158.5Q443.1 158.4 443.6 158.4L443.6 158.4Q444.0 158.4 444.4 158.4Q444.8 158.5 445.2 158.8Q445.6 159.0 445.8 159.5Q446.1 159.9 446.1 160.7L446.1 160.7L446.1 165L445.1 165L445.1 164.1L445.0 164.1Q444.9 164.3 444.6 164.6Q444.4 164.8 444.0 165.0Q443.6 165.2 443.0 165.2ZM443.2 164.2L443.2 164.2Q443.8 164.2 444.2 164.0Q444.6 163.8 444.8 163.4Q445.0 163.0 445.0 162.6L445.0 162.6L445.0 161.7Q445.0 161.8 444.8 161.9Q444.5 161.9 444.3 162.0Q444.0 162.0 443.7 162.0Q443.5 162.1 443.3 162.1L443.3 162.1Q442.9 162.1 442.6 162.3Q442.3 162.4 442.1 162.6Q441.9 162.8 441.9 163.2L441.9 163.2Q441.9 163.5 442.0 163.8Q442.2 164.0 442.5 164.1Q442.8 164.2 443.2 164.2ZM450.5 161.1L450.5 161.1L450.5 165L449.4 165L449.4 158.4L450.5 158.4L450.5 159.7Q450.7 159.0 451.2 158.7L451.2 158.7Q451.7 158.4 452.5 158.4L452.5 158.4Q453.1 158.4 453.6 158.6Q454.1 158.9 454.4 159.5Q454.7 160.0 454.7 160.8L454.7 160.8L454.7 165L453.6 165L453.6 160.9Q453.6 160.2 453.2 159.7Q452.8 159.3 452.1 159.3L452.1 159.3Q451.7 159.3 451.3 159.5Q450.9 159.7 450.7 160.1Q450.5 160.5 450.5 161.1ZM460.7 165.1L460.7 165.1Q459.8 165.1 459.1 164.7Q458.5 164.3 458.1 163.5Q457.7 162.8 457.7 161.8L457.7 161.8Q457.7 160.7 458.1 160.0Q458.5 159.2 459.1 158.8Q459.8 158.4 460.7 158.4L460.7 158.4Q461.2 158.4 461.6 158.5Q462.0 158.6 462.4 158.8Q462.7 159.1 463.0 159.4Q463.2 159.8 463.4 160.2L463.4 160.2L462.3 160.5Q462.3 160.2 462.1 160.0Q462.0 159.8 461.8 159.6Q461.6 159.5 461.3 159.4Q461.0 159.3 460.7 159.3L460.7 159.3Q460.0 159.3 459.6 159.7Q459.2 160.0 459.0 160.6Q458.8 161.1 458.8 161.8L458.8 161.8Q458.8 162.4 459.0 163.0Q459.2 163.5 459.6 163.9Q460.0 164.2 460.7 164.2L460.7 164.2Q461.0 164.2 461.3 164.1Q461.6 164.0 461.8 163.9Q462.0 163.7 462.2 163.5Q462.3 163.3 462.4 163.0L462.4 163.0L463.4 163.3Q463.2 163.7 463.0 164.1Q462.7 164.4 462.4 164.6Q462.0 164.9 461.6 165.0Q461.2 165.1 460.7 165.1ZM469.1 165.1L469.1 165.1Q468.2 165.1 467.5 164.7Q466.8 164.3 466.4 163.5Q466.1 162.8 466.1 161.8Q466.1 160.8 466.4 160.0Q466.8 159.2 467.5 158.8Q468.1 158.4 469.0 158.4L469.0 158.4Q469.5 158.4 470.0 158.5Q470.6 158.7 471.0 159.1Q471.4 159.5 471.6 160.1Q471.9 160.7 471.9 161.6L471.9 161.6L471.9 162.1L467.1 162.1Q467.2 162.7 467.4 163.2L467.4 163.2Q467.6 163.7 468.1 163.9Q468.5 164.2 469.1 164.2L469.1 164.2Q469.5 164.2 469.8 164.1Q470.2 164.0 470.4 163.8Q470.6 163.5 470.7 163.2L470.7 163.2L471.8 163.5Q471.6 164.0 471.3 164.3Q470.9 164.7 470.4 164.9Q469.8 165.1 469.1 165.1ZM467.1 161.2L467.1 161.2L470.8 161.2Q470.8 160.7 470.6 160.4L470.6 160.4Q470.4 159.9 470.0 159.6Q469.6 159.3 469.0 159.3Q468.4 159.3 468.0 159.6Q467.6 159.9 467.4 160.3L467.4 160.3Q467.2 160.7 467.1 161.2Z M485.3 165L479.9 165L479.9 156.3L485.2 156.3L485.2 157.3L481 157.3L481 160.1L484.9 160.1L484.9 161.1L481 161.1L481 164.0L485.3 164.0L485.3 165ZM489.5 161.1L489.5 161.1L489.5 165L488.5 165L488.5 158.4L489.5 158.4L489.5 159.7Q489.8 159.0 490.2 158.7L490.2 158.7Q490.8 158.4 491.5 158.4L491.5 158.4Q492.2 158.4 492.7 158.6Q493.2 158.9 493.4 159.5Q493.7 160.0 493.7 160.8L493.7 160.8L493.7 165L492.7 165L492.7 160.9Q492.7 160.2 492.3 159.7Q491.9 159.3 491.2 159.3L491.2 159.3Q490.7 159.3 490.3 159.5Q490.0 159.7 489.7 160.1Q489.5 160.5 489.5 161.1ZM499.7 167.6L499.7 167.6Q499.0 167.6 498.5 167.4Q497.9 167.2 497.6 166.9Q497.2 166.6 497.0 166.3L497.0 166.3L497.9 165.7Q498.0 165.9 498.2 166.1Q498.4 166.3 498.8 166.5Q499.1 166.7 499.7 166.7L499.7 166.7Q500.5 166.7 501.0 166.3Q501.5 165.9 501.5 165.1L501.5 165.1L501.5 163.8L501.4 163.8Q501.3 164.0 501.1 164.2Q500.9 164.5 500.5 164.7Q500.1 164.9 499.5 164.9L499.5 164.9Q498.7 164.9 498.1 164.5Q497.5 164.2 497.1 163.4Q496.7 162.7 496.7 161.7L496.7 161.7Q496.7 160.7 497.1 159.9Q497.5 159.2 498.1 158.8Q498.7 158.4 499.5 158.4L499.5 158.4Q500.2 158.4 500.5 158.6Q500.9 158.8 501.1 159.1Q501.3 159.3 501.4 159.5L501.4 159.5L501.5 159.5L501.5 158.4L502.6 158.4L502.6 165.2Q502.6 166.0 502.2 166.5Q501.8 167.1 501.2 167.3Q500.5 167.6 499.7 167.6ZM499.7 164.0L499.7 164.0Q500.3 164.0 500.7 163.7Q501.1 163.4 501.3 162.9Q501.5 162.4 501.5 161.7L501.5 161.7Q501.5 161.0 501.3 160.4Q501.1 159.9 500.7 159.6Q500.3 159.3 499.7 159.3L499.7 159.3Q499.1 159.3 498.6 159.6Q498.2 159.9 498.0 160.5Q497.8 161.0 497.8 161.7L497.8 161.7Q497.8 162.3 498.0 162.9Q498.2 163.4 498.7 163.7Q499.1 164.0 499.7 164.0ZM507.0 165L505.9 165L505.9 158.4L507.0 158.4L507.0 165ZM506.5 157.4L506.5 157.4Q506.2 157.4 505.9 157.2Q505.7 157.0 505.7 156.7L505.7 156.7Q505.7 156.4 505.9 156.2Q506.2 156.0 506.5 156.0L506.5 156.0Q506.8 156.0 507.0 156.2Q507.2 156.4 507.2 156.7L507.2 156.7Q507.2 157.0 507.0 157.2Q506.8 157.4 506.5 157.4ZM511.4 161.1L511.4 161.1L511.4 165L510.3 165L510.3 158.4L511.3 158.4L511.3 159.7Q511.6 159.0 512.1 158.7L512.1 158.7Q512.6 158.4 513.3 158.4L513.3 158.4Q514.0 158.4 514.5 158.6Q515.0 158.9 515.3 159.5Q515.6 160.0 515.6 160.8L515.6 160.8L515.6 165L514.5 165L514.5 160.9Q514.5 160.2 514.1 159.7Q513.7 159.3 513.0 159.3L513.0 159.3Q512.6 159.3 512.2 159.5Q511.8 159.7 511.6 160.1Q511.4 160.5 511.4 161.1ZM521.7 165.1L521.7 165.1Q520.7 165.1 520.0 164.7Q519.3 164.3 519.0 163.5Q518.6 162.8 518.6 161.8Q518.6 160.8 519.0 160.0Q519.3 159.2 520.0 158.8Q520.7 158.4 521.5 158.4L521.5 158.4Q522.1 158.4 522.6 158.5Q523.1 158.7 523.5 159.1Q523.9 159.5 524.2 160.1Q524.4 160.7 524.4 161.6L524.4 161.6L524.4 162.1L519.7 162.1Q519.7 162.7 519.9 163.2L519.9 163.2Q520.2 163.7 520.6 163.9Q521.1 164.2 521.7 164.2L521.7 164.2Q522.1 164.2 522.4 164.1Q522.7 164.0 522.9 163.8Q523.2 163.5 523.3 163.2L523.3 163.2L524.3 163.5Q524.1 164.0 523.8 164.3Q523.4 164.7 522.9 164.9Q522.3 165.1 521.7 165.1ZM519.7 161.2L519.7 161.2L523.3 161.2Q523.3 160.7 523.1 160.4L523.1 160.4Q522.9 159.9 522.5 159.6Q522.1 159.3 521.5 159.3Q521.0 159.3 520.5 159.6Q520.1 159.9 519.9 160.3L519.9 160.3Q519.7 160.7 519.7 161.2ZM530.2 165.1L530.2 165.1Q529.2 165.1 528.5 164.7Q527.8 164.3 527.5 163.5Q527.1 162.8 527.1 161.8Q527.1 160.8 527.5 160.0Q527.8 159.2 528.5 158.8Q529.2 158.4 530.0 158.4L530.0 158.4Q530.6 158.4 531.1 158.5Q531.6 158.7 532.0 159.1Q532.4 159.5 532.7 160.1Q532.9 160.7 532.9 161.6L532.9 161.6L532.9 162.1L528.2 162.1Q528.2 162.7 528.4 163.2L528.4 163.2Q528.7 163.7 529.1 163.9Q529.6 164.2 530.2 164.2L530.2 164.2Q530.6 164.2 530.9 164.1Q531.2 164.0 531.4 163.8Q531.6 163.5 531.8 163.2L531.8 163.2L532.8 163.5Q532.6 164.0 532.3 164.3Q531.9 164.7 531.4 164.9Q530.8 165.1 530.2 165.1ZM528.2 161.2L528.2 161.2L531.8 161.2Q531.8 160.7 531.6 160.4L531.6 160.4Q531.4 159.9 531.0 159.6Q530.6 159.3 530.0 159.3Q529.5 159.3 529.0 159.6Q528.6 159.9 528.4 160.3L528.4 160.3Q528.2 160.7 528.2 161.2ZM537.0 165L535.9 165L535.9 158.4L536.9 158.4L536.9 159.5L537.0 159.5Q537.2 159.0 537.6 158.7Q538.1 158.4 538.7 158.4L538.7 158.4Q538.8 158.4 539.0 158.4Q539.1 158.4 539.2 158.4L539.2 158.4L539.2 159.4Q539.2 159.4 539.0 159.4Q538.8 159.4 538.6 159.4L538.6 159.4Q538.1 159.4 537.8 159.6Q537.4 159.8 537.2 160.1Q537.0 160.5 537.0 160.9L537.0 160.9L537.0 165ZM543.0 165L541.9 165L541.9 158.4L543.0 158.4L543.0 165ZM542.5 157.4L542.5 157.4Q542.2 157.4 541.9 157.2Q541.7 157.0 541.7 156.7L541.7 156.7Q541.7 156.4 541.9 156.2Q542.2 156.0 542.5 156.0L542.5 156.0Q542.8 156.0 543.0 156.2Q543.2 156.4 543.2 156.7L543.2 156.7Q543.2 157.0 543.0 157.2Q542.8 157.4 542.5 157.4ZM547.4 161.1L547.4 161.1L547.4 165L546.3 165L546.3 158.4L547.3 158.4L547.4 159.7Q547.6 159.0 548.1 158.7L548.1 158.7Q548.6 158.4 549.4 158.4L549.4 158.4Q550.0 158.4 550.5 158.6Q551.0 158.9 551.3 159.5Q551.6 160.0 551.6 160.8L551.6 160.8L551.6 165L550.5 165L550.5 160.9Q550.5 160.2 550.1 159.7Q549.7 159.3 549.0 159.3L549.0 159.3Q548.6 159.3 548.2 159.5Q547.8 159.7 547.6 160.1Q547.4 160.5 547.4 161.1ZM557.6 167.6L557.6 167.6Q556.8 167.6 556.3 167.4Q555.8 167.2 555.4 166.9Q555.1 166.6 554.9 166.3L554.9 166.3L555.7 165.7Q555.9 165.9 556.1 166.1Q556.3 166.3 556.6 166.5Q557.0 166.7 557.6 166.7L557.6 166.7Q558.4 166.7 558.9 166.3Q559.4 165.9 559.4 165.1L559.4 165.1L559.4 163.8L559.3 163.8Q559.2 164.0 559.0 164.2Q558.8 164.5 558.4 164.7Q558.0 164.9 557.4 164.9L557.4 164.9Q556.6 164.9 556.0 164.5Q555.3 164.2 555.0 163.4Q554.6 162.7 554.6 161.7L554.6 161.7Q554.6 160.7 555.0 159.9Q555.3 159.2 556.0 158.8Q556.6 158.4 557.4 158.4L557.4 158.4Q558.0 158.4 558.4 158.6Q558.8 158.8 559.0 159.1Q559.2 159.3 559.3 159.5L559.3 159.5L559.4 159.5L559.4 158.4L560.4 158.4L560.4 165.2Q560.4 166.0 560.0 166.5Q559.7 167.1 559.0 167.3Q558.4 167.6 557.6 167.6ZM557.5 164.0L557.5 164.0Q558.1 164.0 558.6 163.7Q559.0 163.4 559.2 162.9Q559.4 162.4 559.4 161.7L559.4 161.7Q559.4 161.0 559.2 160.4Q559.0 159.9 558.6 159.6Q558.2 159.3 557.5 159.3L557.5 159.3Q556.9 159.3 556.5 159.6Q556.1 159.9 555.9 160.5Q555.7 161.0 555.7 161.7L555.7 161.7Q555.7 162.3 555.9 162.9Q556.1 163.4 556.5 163.7Q556.9 164.0 557.5 164.0Z M569.3 153.5L570.2 153.5L570.2 167.8L569.3 167.8L569.3 153.5Z M582.3 165L579.2 165L579.2 156.3L582.2 156.3Q583.2 156.3 583.8 156.6Q584.3 156.9 584.6 157.4Q584.9 157.9 584.9 158.6L584.9 158.6Q584.9 159.1 584.7 159.5Q584.5 159.9 584.2 160.1Q583.9 160.3 583.5 160.4L583.5 160.4L583.5 160.5Q583.9 160.5 584.3 160.8Q584.7 161.0 585.0 161.5Q585.3 162.0 585.3 162.7L585.3 162.7Q585.3 163.3 585.0 163.9Q584.7 164.4 584.0 164.7Q583.4 165 582.3 165L582.3 165ZM580.3 161.0L580.3 164.0L582.3 164.0Q583.3 164.0 583.8 163.6Q584.2 163.2 584.2 162.7L584.2 162.7Q584.2 162.2 584.0 161.9Q583.8 161.5 583.3 161.3Q582.9 161.0 582.4 161.0L582.4 161.0L580.3 161.0ZM580.3 157.3L580.3 160.1L582.2 160.1Q582.7 160.1 583.0 159.9Q583.4 159.7 583.6 159.4Q583.9 159.1 583.9 158.6L583.9 158.6Q583.9 158.0 583.5 157.6Q583.1 157.3 582.2 157.3L582.2 157.3L580.3 157.3ZM590.2 165.2L590.2 165.2Q589.6 165.2 589.1 164.9Q588.6 164.7 588.3 164.2Q588.0 163.8 588.0 163.1L588.0 163.1Q588.0 162.6 588.2 162.2Q588.4 161.9 588.8 161.7Q589.2 161.5 589.6 161.4Q590.1 161.3 590.5 161.2L590.5 161.2Q591.1 161.1 591.5 161.1Q591.8 161.1 592.0 161.0Q592.2 160.9 592.2 160.6L592.2 160.6L592.2 160.6Q592.2 160.2 592.1 159.9Q591.9 159.6 591.6 159.4Q591.3 159.3 590.8 159.3L590.8 159.3Q590.4 159.3 590.0 159.4Q589.7 159.6 589.5 159.8Q589.3 160.0 589.2 160.3L589.2 160.3L588.2 159.9Q588.4 159.3 588.8 159.0Q589.3 158.6 589.8 158.5Q590.3 158.4 590.8 158.4L590.8 158.4Q591.1 158.4 591.6 158.4Q592.0 158.5 592.4 158.8Q592.8 159.0 593.0 159.5Q593.3 159.9 593.3 160.7L593.3 160.7L593.3 165L592.2 165L592.2 164.1L592.2 164.1Q592.0 164.3 591.8 164.6Q591.5 164.8 591.2 165.0Q590.8 165.2 590.2 165.2ZM590.4 164.2L590.4 164.2Q591.0 164.2 591.4 164.0Q591.8 163.8 592.0 163.4Q592.2 163.0 592.2 162.6L592.2 162.6L592.2 161.7Q592.1 161.8 591.9 161.9Q591.7 161.9 591.4 162.0Q591.2 162.0 590.9 162.0Q590.6 162.1 590.5 162.1L590.5 162.1Q590.1 162.1 589.8 162.3Q589.4 162.4 589.2 162.6Q589.0 162.8 589.0 163.2L589.0 163.2Q589.0 163.5 589.2 163.8Q589.4 164.0 589.7 164.1Q590.0 164.2 590.4 164.2ZM597.7 165L596.6 165L596.6 158.4L597.6 158.4L597.6 159.5L597.7 159.5Q597.9 159.0 598.3 158.7Q598.8 158.4 599.4 158.4L599.4 158.4Q599.5 158.4 599.7 158.4Q599.8 158.4 599.9 158.4L599.9 158.4L599.9 159.4Q599.9 159.4 599.7 159.4Q599.5 159.4 599.3 159.4L599.3 159.4Q598.8 159.4 598.5 159.6Q598.1 159.8 597.9 160.1Q597.7 160.5 597.7 160.9L597.7 160.9L597.7 165ZM605.4 165.1L605.4 165.1Q604.4 165.1 603.7 164.7Q603.1 164.3 602.7 163.5Q602.3 162.8 602.3 161.8Q602.3 160.8 602.7 160.0Q603.0 159.2 603.7 158.8Q604.4 158.4 605.3 158.4L605.3 158.4Q605.8 158.4 606.3 158.5Q606.8 158.7 607.2 159.1Q607.6 159.5 607.9 160.1Q608.1 160.7 608.1 161.6L608.1 161.6L608.1 162.1L603.4 162.1Q603.4 162.7 603.6 163.2L603.6 163.2Q603.9 163.7 604.3 163.9Q604.8 164.2 605.4 164.2L605.4 164.2Q605.8 164.2 606.1 164.1Q606.4 164.0 606.6 163.8Q606.9 163.5 607.0 163.2L607.0 163.2L608.0 163.5Q607.9 164.0 607.5 164.3Q607.1 164.7 606.6 164.9Q606.1 165.1 605.4 165.1ZM603.4 161.2L603.4 161.2L607.0 161.2Q607 160.7 606.9 160.4L606.9 160.4Q606.6 159.9 606.3 159.6Q605.9 159.3 605.3 159.3Q604.7 159.3 604.2 159.6Q603.8 159.9 603.6 160.3L603.6 160.3Q603.4 160.7 603.4 161.2ZM611.0 160.8L614.9 160.8L614.9 161.8L611.0 161.8L611.0 160.8ZM619.2 165L618.1 165L618.1 158.4L619.2 158.4L619.2 159.7Q619.3 159.3 619.5 159.0L619.5 159.0Q619.8 158.7 620.2 158.5Q620.6 158.3 621.0 158.3L621.0 158.3Q621.7 158.3 622.2 158.8L622.2 158.8Q622.5 159.1 622.7 159.7L622.7 159.7Q622.8 159.3 623.0 159.1L623.0 159.1Q623.3 158.7 623.8 158.5Q624.2 158.3 624.7 158.3L624.7 158.3Q625.3 158.3 625.8 158.6Q626.2 158.8 626.5 159.3Q626.8 159.8 626.8 160.6L626.8 160.6L626.8 165L625.8 165L625.8 160.6Q625.8 159.9 625.4 159.6Q625.0 159.3 624.4 159.3L624.4 159.3Q624.0 159.3 623.7 159.5Q623.3 159.7 623.2 160.0Q623.0 160.3 623.0 160.7L623.0 160.7L623.0 165L621.9 165L621.9 160.5Q621.9 160.0 621.6 159.6Q621.2 159.3 620.7 159.3L620.7 159.3Q620.3 159.3 619.9 159.5Q619.6 159.7 619.4 160.0Q619.2 160.4 619.2 160.9L619.2 160.9L619.2 165ZM632.9 165.1L632.9 165.1Q632.0 165.1 631.3 164.7Q630.6 164.3 630.2 163.5Q629.8 162.8 629.8 161.8Q629.8 160.8 630.2 160.0Q630.6 159.2 631.2 158.8Q631.9 158.4 632.8 158.4L632.8 158.4Q633.3 158.4 633.8 158.5Q634.3 158.7 634.7 159.1Q635.1 159.5 635.4 160.1Q635.6 160.7 635.6 161.6L635.6 161.6L635.6 162.1L630.9 162.1Q630.9 162.7 631.2 163.2L631.2 163.2Q631.4 163.7 631.9 163.9Q632.3 164.2 632.9 164.2L632.9 164.2Q633.3 164.2 633.6 164.1Q633.9 164.0 634.2 163.8Q634.4 163.5 634.5 163.2L634.5 163.2L635.5 163.5Q635.4 164.0 635.0 164.3Q634.7 164.7 634.1 164.9Q633.6 165.1 632.9 165.1ZM630.9 161.2L630.9 161.2L634.6 161.2Q634.5 160.7 634.4 160.4L634.4 160.4Q634.2 159.9 633.8 159.6Q633.4 159.3 632.8 159.3Q632.2 159.3 631.8 159.6Q631.4 159.9 631.1 160.3L631.1 160.3Q630.9 160.7 630.9 161.2ZM639.9 158.4L641.2 158.4L641.2 159.4L639.9 159.4L639.9 163.3Q639.9 163.7 640.1 163.9Q640.2 164.1 640.7 164.1L640.7 164.1Q640.8 164.1 640.9 164.1Q641.1 164.1 641.2 164.1L641.2 164.1L641.4 165.0Q641.2 165.0 641.0 165.1Q640.8 165.1 640.6 165.1L640.6 165.1Q639.8 165.1 639.3 164.6Q638.8 164.2 638.8 163.4L638.8 163.4L638.8 159.4L637.8 159.4L637.8 158.4L638.8 158.4L638.8 156.9L639.9 156.9L639.9 158.4ZM645.9 165.2L645.9 165.2Q645.3 165.2 644.8 164.9Q644.3 164.7 644.0 164.2Q643.7 163.8 643.7 163.1L643.7 163.1Q643.7 162.6 643.9 162.2Q644.1 161.9 644.5 161.7Q644.9 161.5 645.3 161.4Q645.8 161.3 646.2 161.2L646.2 161.2Q646.8 161.1 647.2 161.1Q647.6 161.1 647.7 161.0Q647.9 160.9 647.9 160.6L647.9 160.6L647.9 160.6Q647.9 160.2 647.8 159.9Q647.6 159.6 647.3 159.4Q647.0 159.3 646.5 159.3L646.5 159.3Q646.1 159.3 645.7 159.4Q645.4 159.6 645.2 159.8Q645.0 160.0 644.9 160.3L644.9 160.3L643.9 159.9Q644.1 159.3 644.5 159.0Q645.0 158.6 645.5 158.5Q646.0 158.4 646.5 158.4L646.5 158.4Q646.8 158.4 647.3 158.4Q647.7 158.5 648.1 158.8Q648.5 159.0 648.7 159.5Q649.0 159.9 649.0 160.7L649.0 160.7L649.0 165L647.9 165L647.9 164.1L647.9 164.1Q647.7 164.3 647.5 164.6Q647.3 164.8 646.9 165.0Q646.5 165.2 645.9 165.2ZM646.1 164.2L646.1 164.2Q646.7 164.2 647.1 164.0Q647.5 163.8 647.7 163.4Q647.9 163.0 647.9 162.6L647.9 162.6L647.9 161.7Q647.8 161.8 647.6 161.9Q647.4 161.9 647.1 162.0Q646.9 162.0 646.6 162.0Q646.3 162.1 646.2 162.1L646.2 162.1Q645.8 162.1 645.5 162.3Q645.1 162.4 644.9 162.6Q644.7 162.8 644.7 163.2L644.7 163.2Q644.7 163.5 644.9 163.8Q645.1 164.0 645.4 164.1Q645.7 164.2 646.1 164.2ZM652.3 156.3L653.4 156.3L653.4 165L652.3 165L652.3 156.3Z "/></g><mask id="satori_om-id-2"><rect x="178" y="190" width="445" height="27" fill="#fff" mask="url(#satori_om-id)"/></mask><defs><clipPath id="satori_bc-id-2-0" clip-path="url(#satori_cp-id)"><path x="178" y="190" width="125" height="27" d="M191.5,190 h98 a13.5,13.5 0 0 1 13.5,13.5 v0 a13.5,13.5 0 0 1 -13.5,13.5 h-98 a13.5,13.5 0 0 1 -13.5,-13.5 v0 a13.5,13.5 0 0 1 13.5,-13.5"/></clipPath></defs><mask id="satori_om-id-2-0"><rect x="179" y="191" width="123" height="25" fill="#fff" mask="url(#satori_om-id)"/><path width="125" height="27" fill="none" stroke="#000" stroke-width="2" d="M181.954,193.954 A13.5,13.5 0 0 1 191.5,190 h98 a13.5,13.5 0 0 1 13.5,13.5 v0 a13.5,13.5 0 0 1 -13.5,13.5 h-98 a13.5,13.5 0 0 1 -13.5,-13.5 v0 A13.5,13.5 0 0 1 181.954,193.954"/></mask><path x="178" y="190" width="125" height="27" fill="rgba(8,6,14,0.7)" d="M191.5,190 h98 a13.5,13.5 0 0 1 13.5,13.5 v0 a13.5,13.5 0 0 1 -13.5,13.5 h-98 a13.5,13.5 0 0 1 -13.5,-13.5 v0 a13.5,13.5 0 0 1 13.5,-13.5" clip-path="url(#satori_cp-id)" mask="url(#satori_om-id)"/><path width="125" height="27" clip-path="url(#satori_bc-id-2-0)" fill="none" stroke="rgba(120,200,255,0.2)" stroke-width="2" d="M181.954,193.954 A13.5,13.5 0 0 1 191.5,190 h98 a13.5,13.5 0 0 1 13.5,13.5 v0 a13.5,13.5 0 0 1 -13.5,13.5 h-98 a13.5,13.5 0 0 1 -13.5,-13.5 v0 A13.5,13.5 0 0 1 181.954,193.954"/><g mask="url(#satori_om-id)" clip-path="url(#satori_cp-id)"><path fill="#7ee7ff" d="M199.6 208.1L199.6 208.1Q198.4 208.1 197.5 207.6Q196.6 207.1 196.1 206.1Q195.6 205.1 195.6 203.6L195.6 203.6Q195.6 202.2 196.1 201.2Q196.6 200.2 197.5 199.7Q198.5 199.2 199.6 199.2L199.6 199.2Q200.3 199.2 201.0 199.4Q201.6 199.6 202.1 200.0Q202.6 200.4 202.9 200.9Q203.3 201.5 203.4 202.3L203.4 202.3L201.6 202.3Q201.5 201.9 201.3 201.6Q201.2 201.3 200.9 201.1Q200.7 200.9 200.3 200.8Q200.0 200.7 199.6 200.7L199.6 200.7Q199.0 200.7 198.4 201.1Q197.9 201.4 197.7 202.1Q197.4 202.7 197.4 203.6L197.4 203.6Q197.4 204.6 197.7 205.2Q197.9 205.9 198.5 206.2Q199.0 206.5 199.6 206.5L199.6 206.5Q200.0 206.5 200.3 206.4Q200.6 206.3 200.9 206.1Q201.2 205.9 201.3 205.7Q201.5 205.4 201.6 205.0L201.6 205.0L203.4 205.0Q203.3 205.6 203.0 206.2Q202.7 206.7 202.2 207.2Q201.8 207.6 201.1 207.9Q200.4 208.1 199.6 208.1ZM210.3 208L208.9 208L209.3 205.8L207.5 205.8L207.2 208L205.9 208L206.2 205.8L205.0 205.8L205.2 204.5L206.4 204.5L206.7 202.8L205.5 202.8L205.7 201.5L206.9 201.5L207.3 199.3L208.6 199.3L208.3 201.5L210.0 201.5L210.4 199.3L211.7 199.3L211.3 201.5L212.5 201.5L212.3 202.8L211.1 202.8L210.8 204.5L212.0 204.5L211.8 205.8L210.6 205.8L210.3 208ZM208.0 202.8L207.8 204.5L209.5 204.5L209.8 202.8L208.0 202.8Z M220.6 208.1L220.6 208.1Q219.9 208.1 219.3 207.7Q218.7 207.3 218.3 206.6Q218.0 205.8 218.0 204.7L218.0 204.7Q218.0 203.6 218.3 202.9Q218.7 202.1 219.3 201.7Q219.9 201.4 220.6 201.4L220.6 201.4Q221.2 201.4 221.6 201.6Q221.9 201.7 222.2 202.0Q222.4 202.3 222.5 202.6L222.5 202.6L222.6 202.6L222.6 199.3L224.3 199.3L224.3 208L222.6 208L222.6 207.0L222.5 207.0Q222.4 207.2 222.2 207.5Q221.9 207.7 221.6 207.9Q221.2 208.1 220.6 208.1ZM221.2 206.7L221.2 206.7Q221.6 206.7 222.0 206.5Q222.3 206.2 222.4 205.8Q222.6 205.3 222.6 204.7L222.6 204.7Q222.6 204.1 222.4 203.7Q222.3 203.3 222.0 203.0Q221.6 202.8 221.2 202.8L221.2 202.8Q220.7 202.8 220.4 203.0Q220.1 203.3 219.9 203.7Q219.8 204.2 219.8 204.7L219.8 204.7Q219.8 205.3 219.9 205.8Q220.1 206.2 220.4 206.4Q220.7 206.7 221.2 206.7ZM229.8 208.1L229.8 208.1Q228.8 208.1 228.1 207.7Q227.3 207.3 226.9 206.6Q226.5 205.8 226.5 204.8L226.5 204.8Q226.5 203.7 226.9 203.0Q227.3 202.2 228.0 201.8Q228.7 201.4 229.7 201.4L229.7 201.4Q230.3 201.4 230.9 201.6Q231.4 201.8 231.9 202.2Q232.3 202.6 232.5 203.2Q232.8 203.8 232.8 204.7L232.8 204.7L232.8 205.2L228.3 205.2Q228.3 205.7 228.5 206.0L228.5 206.0Q228.7 206.4 229.0 206.6Q229.4 206.8 229.8 206.8L229.8 206.8Q230.1 206.8 230.4 206.7Q230.6 206.6 230.8 206.5Q231.0 206.3 231.1 206.0L231.1 206.0L232.7 206.3Q232.5 206.9 232.1 207.3Q231.7 207.7 231.1 207.9Q230.5 208.1 229.8 208.1ZM228.3 204.1L228.3 204.1L231.1 204.1Q231.0 203.8 230.9 203.5L230.9 203.5Q230.8 203.1 230.5 202.9Q230.2 202.7 229.7 202.7L229.7 202.7Q229.3 202.7 228.9 202.9Q228.6 203.1 228.4 203.5L228.4 203.5Q228.3 203.7 228.3 204.1ZM238.8 208L236.8 208L234.4 201.4L236.3 201.4L237.4 204.8Q237.6 205.5 237.7 206.1L237.7 206.1Q237.8 206.4 237.8 206.6L237.8 206.6Q237.9 206.4 238.0 206.1L238.0 206.1Q238.1 205.5 238.3 204.8L238.3 204.8L239.4 201.4L241.2 201.4L238.8 208ZM246.1 208.1L246.1 208.1Q245.1 208.1 244.4 207.7Q243.7 207.3 243.3 206.6Q242.9 205.8 242.9 204.8L242.9 204.8Q242.9 203.7 243.3 203.0Q243.7 202.2 244.4 201.8Q245.1 201.4 246.0 201.4L246.0 201.4Q246.7 201.4 247.2 201.6Q247.8 201.8 248.2 202.2Q248.6 202.6 248.9 203.2Q249.1 203.8 249.1 204.7L249.1 204.7L249.1 205.2L244.6 205.2Q244.6 205.7 244.8 206.0L244.8 206.0Q245.0 206.4 245.4 206.6Q245.7 206.8 246.2 206.8L246.2 206.8Q246.5 206.8 246.7 206.7Q247.0 206.6 247.1 206.5Q247.3 206.3 247.4 206.0L247.4 206.0L249.0 206.3Q248.9 206.9 248.5 207.3Q248.1 207.7 247.5 207.9Q246.9 208.1 246.1 208.1ZM244.6 204.1L244.6 204.1L247.4 204.1Q247.4 203.8 247.3 203.5L247.3 203.5Q247.1 203.1 246.8 202.9Q246.5 202.7 246.1 202.7L246.1 202.7Q245.6 202.7 245.3 202.9Q245.0 203.1 244.8 203.5L244.8 203.5Q244.7 203.7 244.6 204.1ZM251.3 199.3L253.1 199.3L253.1 208L251.3 208L251.3 199.3ZM258.5 208.1L258.5 208.1Q257.5 208.1 256.8 207.7Q256.1 207.3 255.7 206.5Q255.3 205.8 255.3 204.8L255.3 204.8Q255.3 203.7 255.7 203.0Q256.1 202.2 256.8 201.8Q257.5 201.4 258.5 201.4L258.5 201.4Q259.5 201.4 260.2 201.8Q260.9 202.2 261.3 203.0Q261.7 203.7 261.7 204.8L261.7 204.8Q261.7 205.8 261.3 206.5Q260.9 207.3 260.2 207.7Q259.5 208.1 258.5 208.1ZM258.5 206.7L258.5 206.7Q259.0 206.7 259.3 206.5Q259.6 206.2 259.8 205.8Q259.9 205.3 259.9 204.7L259.9 204.7Q259.9 204.2 259.8 203.7Q259.6 203.3 259.3 203.0Q259.0 202.8 258.5 202.8L258.5 202.8Q258.0 202.8 257.7 203.0Q257.4 203.3 257.2 203.7Q257.1 204.2 257.1 204.7L257.1 204.7Q257.1 205.3 257.2 205.8Q257.4 206.2 257.7 206.5Q258.0 206.7 258.5 206.7ZM265.7 210.4L263.9 210.4L263.9 201.4L265.7 201.4L265.7 202.6L265.7 202.6Q265.9 202.3 266.1 202.0Q266.3 201.7 266.7 201.6Q267.0 201.4 267.6 201.4L267.6 201.4Q268.3 201.4 268.9 201.7Q269.5 202.1 269.9 202.9Q270.3 203.6 270.3 204.7L270.3 204.7Q270.3 205.8 269.9 206.6Q269.6 207.3 269.0 207.7Q268.3 208.1 267.6 208.1L267.6 208.1Q267.1 208.1 266.7 207.9Q266.3 207.7 266.1 207.5Q265.9 207.2 265.7 207.0L265.7 207.0L265.7 207.0L265.7 210.4ZM267.1 206.7L267.1 206.7Q267.5 206.7 267.8 206.4Q268.1 206.2 268.3 205.8Q268.5 205.3 268.5 204.7L268.5 204.7Q268.5 204.2 268.3 203.7Q268.1 203.3 267.8 203.0Q267.5 202.8 267.1 202.8L267.1 202.8Q266.6 202.8 266.3 203.0Q266.0 203.3 265.8 203.7Q265.6 204.1 265.6 204.7L265.6 204.7Q265.6 205.3 265.8 205.8Q266.0 206.2 266.3 206.5Q266.6 206.7 267.1 206.7ZM275.4 208.1L275.4 208.1Q274.4 208.1 273.7 207.7Q273.0 207.3 272.6 206.6Q272.2 205.8 272.2 204.8L272.2 204.8Q272.2 203.7 272.6 203.0Q273.0 202.2 273.7 201.8Q274.4 201.4 275.4 201.4L275.4 201.4Q276.0 201.4 276.6 201.6Q277.1 201.8 277.5 202.2Q278.0 202.6 278.2 203.2Q278.4 203.8 278.4 204.7L278.4 204.7L278.4 205.2L274.0 205.2Q274.0 205.7 274.1 206.0L274.1 206.0Q274.3 206.4 274.7 206.6Q275.0 206.8 275.5 206.8L275.5 206.8Q275.8 206.8 276.0 206.7Q276.3 206.6 276.5 206.5Q276.6 206.3 276.7 206.0L276.7 206.0L278.3 206.3Q278.2 206.9 277.8 207.3Q277.4 207.7 276.8 207.9Q276.2 208.1 275.4 208.1ZM274.0 204.1L274.0 204.1L276.7 204.1Q276.7 203.8 276.6 203.5L276.6 203.5Q276.4 203.1 276.1 202.9Q275.8 202.7 275.4 202.7L275.4 202.7Q274.9 202.7 274.6 202.9Q274.3 203.1 274.1 203.5L274.1 203.5Q274.0 203.7 274.0 204.1ZM282.4 208L280.6 208L280.6 201.4L282.3 201.4L282.3 202.6L282.4 202.6Q282.6 202.0 283.0 201.7Q283.4 201.4 284.0 201.4L284.0 201.4Q284.1 201.4 284.3 201.4Q284.4 201.4 284.6 201.4L284.6 201.4L284.6 203.0Q284.4 202.9 284.2 202.9Q284.0 202.9 283.8 202.9L283.8 202.9Q283.4 202.9 283.1 203.1Q282.8 203.2 282.6 203.6Q282.4 203.9 282.4 204.3L282.4 204.3L282.4 208Z "/></g><defs><clipPath id="satori_bc-id-2-1" clip-path="url(#satori_cp-id)"><path x="311" y="190" width="103" height="27" d="M324.5,190 h76 a13.5,13.5 0 0 1 13.5,13.5 v0 a13.5,13.5 0 0 1 -13.5,13.5 h-76 a13.5,13.5 0 0 1 -13.5,-13.5 v0 a13.5,13.5 0 0 1 13.5,-13.5"/></clipPath></defs><mask id="satori_om-id-2-1"><rect x="312" y="191" width="101" height="25" fill="#fff" mask="url(#satori_om-id)"/><path width="103" height="27" fill="none" stroke="#000" stroke-width="2" d="M314.954,193.954 A13.5,13.5 0 0 1 324.5,190 h76 a13.5,13.5 0 0 1 13.5,13.5 v0 a13.5,13.5 0 0 1 -13.5,13.5 h-76 a13.5,13.5 0 0 1 -13.5,-13.5 v0 A13.5,13.5 0 0 1 314.954,193.954"/></mask><path x="311" y="190" width="103" height="27" fill="rgba(8,6,14,0.7)" d="M324.5,190 h76 a13.5,13.5 0 0 1 13.5,13.5 v0 a13.5,13.5 0 0 1 -13.5,13.5 h-76 a13.5,13.5 0 0 1 -13.5,-13.5 v0 a13.5,13.5 0 0 1 13.5,-13.5" clip-path="url(#satori_cp-id)" mask="url(#satori_om-id)"/><path width="103" height="27" clip-path="url(#satori_bc-id-2-1)" fill="none" stroke="rgba(120,200,255,0.2)" stroke-width="2" d="M314.954,193.954 A13.5,13.5 0 0 1 324.5,190 h76 a13.5,13.5 0 0 1 13.5,13.5 v0 a13.5,13.5 0 0 1 -13.5,13.5 h-76 a13.5,13.5 0 0 1 -13.5,-13.5 v0 A13.5,13.5 0 0 1 314.954,193.954"/><g mask="url(#satori_om-id)" clip-path="url(#satori_cp-id)"><path fill="#e8c8ff" d="M330.0 208.1L330.0 208.1Q329.6 208.1 329.3 207.8Q329.0 207.5 329.0 207.1L329.0 207.1Q329.0 206.7 329.3 206.4Q329.6 206.1 330.0 206.1L330.0 206.1Q330.4 206.1 330.7 206.4Q331.0 206.7 331.0 207.1L331.0 207.1Q331.0 207.5 330.7 207.8Q330.4 208.1 330.0 208.1ZM335.6 208L333.8 208L333.8 199.3L335.8 199.3L338.6 203.7Q338.8 204.0 339.0 204.4Q339.2 204.8 339.4 205.3L339.4 205.3Q339.5 205.6 339.6 205.8L339.6 205.8Q339.6 205.6 339.6 205.4L339.6 205.4Q339.6 204.8 339.6 204.3Q339.5 203.8 339.5 203.5L339.5 203.5L339.5 199.3L341.4 199.3L341.4 208L339.4 208L336.9 204.0Q336.6 203.5 336.3 203.1Q336.1 202.7 335.9 202.2L335.9 202.2Q335.7 201.9 335.5 201.5L335.5 201.5Q335.5 201.8 335.6 202.2L335.6 202.2Q335.6 202.7 335.6 203.2Q335.6 203.7 335.6 204.0L335.6 204.0L335.6 208ZM349.8 208L343.9 208L343.9 199.3L349.8 199.3L349.8 200.8L345.7 200.8L345.7 202.9L349.5 202.9L349.5 204.3L345.7 204.3L345.7 206.5L349.8 206.5L349.8 208ZM354.6 200.8L351.9 200.8L351.9 199.3L359.0 199.3L359.0 200.8L356.3 200.8L356.3 208L354.6 208L354.6 200.8Z M368.9 208.1L368.9 208.1Q367.7 208.1 366.8 207.6Q365.9 207.1 365.4 206.1Q364.8 205.1 364.8 203.6L364.8 203.6Q364.8 202.2 365.4 201.2Q365.9 200.2 366.8 199.7Q367.8 199.2 368.9 199.2L368.9 199.2Q369.6 199.2 370.3 199.4Q370.9 199.6 371.4 200.0Q371.9 200.4 372.2 200.9Q372.6 201.5 372.7 202.3L372.7 202.3L370.8 202.3Q370.8 201.9 370.6 201.6Q370.5 201.3 370.2 201.1Q370.0 200.9 369.6 200.8Q369.3 200.7 368.9 200.7L368.9 200.7Q368.3 200.7 367.7 201.1Q367.2 201.4 366.9 202.1Q366.7 202.7 366.7 203.6L366.7 203.6Q366.7 204.6 366.9 205.2Q367.2 205.9 367.7 206.2Q368.3 206.5 368.9 206.5L368.9 206.5Q369.3 206.5 369.6 206.4Q369.9 206.3 370.2 206.1Q370.5 205.9 370.6 205.7Q370.8 205.4 370.9 205.0L370.9 205.0L372.7 205.0Q372.6 205.6 372.3 206.2Q372.0 206.7 371.5 207.2Q371.1 207.6 370.4 207.9Q369.7 208.1 368.9 208.1ZM377.9 208.1L377.9 208.1Q376.9 208.1 376.1 207.7Q375.4 207.3 375.0 206.5Q374.6 205.8 374.6 204.8L374.6 204.8Q374.6 203.7 375.0 203.0Q375.4 202.2 376.1 201.8Q376.9 201.4 377.9 201.4L377.9 201.4Q378.8 201.4 379.6 201.8Q380.3 202.2 380.7 203.0Q381.1 203.7 381.1 204.8L381.1 204.8Q381.1 205.8 380.7 206.5Q380.3 207.3 379.6 207.7Q378.8 208.1 377.9 208.1ZM377.9 206.7L377.9 206.7Q378.3 206.7 378.6 206.5Q379.0 206.2 379.1 205.8Q379.3 205.3 379.3 204.7L379.3 204.7Q379.3 204.2 379.1 203.7Q379.0 203.3 378.6 203.0Q378.3 202.8 377.9 202.8L377.9 202.8Q377.4 202.8 377.1 203.0Q376.8 203.3 376.6 203.7Q376.4 204.2 376.4 204.7L376.4 204.7Q376.4 205.3 376.6 205.8Q376.8 206.2 377.1 206.5Q377.4 206.7 377.9 206.7ZM385.0 208L383.3 208L383.3 201.4L385.0 201.4L385.0 202.6L385.1 202.6Q385.2 202.0 385.7 201.7Q386.1 201.4 386.6 201.4L386.6 201.4Q386.8 201.4 386.9 201.4Q387.1 201.4 387.2 201.4L387.2 201.4L387.2 203.0Q387.1 202.9 386.9 202.9Q386.6 202.9 386.4 202.9L386.4 202.9Q386.0 202.9 385.7 203.1Q385.4 203.2 385.2 203.6Q385.0 203.9 385.0 204.3L385.0 204.3L385.0 208ZM392.1 208.1L392.1 208.1Q391.1 208.1 390.4 207.7Q389.7 207.3 389.3 206.6Q388.9 205.8 388.9 204.8L388.9 204.8Q388.9 203.7 389.3 203.0Q389.7 202.2 390.4 201.8Q391.1 201.4 392.0 201.4L392.0 201.4Q392.7 201.4 393.2 201.6Q393.8 201.8 394.2 202.2Q394.6 202.6 394.9 203.2Q395.1 203.8 395.1 204.7L395.1 204.7L395.1 205.2L390.6 205.2Q390.7 205.7 390.8 206.0L390.8 206.0Q391.0 206.4 391.4 206.6Q391.7 206.8 392.2 206.8L392.2 206.8Q392.5 206.8 392.7 206.7Q393.0 206.6 393.1 206.5Q393.3 206.3 393.4 206.0L393.4 206.0L395.0 206.3Q394.9 206.9 394.5 207.3Q394.1 207.7 393.5 207.9Q392.9 208.1 392.1 208.1ZM390.6 204.1L390.6 204.1L393.4 204.1Q393.4 203.8 393.3 203.5L393.3 203.5Q393.1 203.1 392.8 202.9Q392.5 202.7 392.1 202.7L392.1 202.7Q391.6 202.7 391.3 202.9Q391.0 203.1 390.8 203.5L390.8 203.5Q390.7 203.7 390.6 204.1Z "/></g><defs><clipPath id="satori_bc-id-2-2" clip-path="url(#satori_cp-id)"><path x="422" y="190" width="74" height="27" d="M435.5,190 h47 a13.5,13.5 0 0 1 13.5,13.5 v0 a13.5,13.5 0 0 1 -13.5,13.5 h-47 a13.5,13.5 0 0 1 -13.5,-13.5 v0 a13.5,13.5 0 0 1 13.5,-13.5"/></clipPath></defs><mask id="satori_om-id-2-2"><rect x="423" y="191" width="72" height="25" fill="#fff" mask="url(#satori_om-id)"/><path width="74" height="27" fill="none" stroke="#000" stroke-width="2" d="M425.954,193.954 A13.5,13.5 0 0 1 435.5,190 h47 a13.5,13.5 0 0 1 13.5,13.5 v0 a13.5,13.5 0 0 1 -13.5,13.5 h-47 a13.5,13.5 0 0 1 -13.5,-13.5 v0 A13.5,13.5 0 0 1 425.954,193.954"/></mask><path x="422" y="190" width="74" height="27" fill="rgba(8,6,14,0.7)" d="M435.5,190 h47 a13.5,13.5 0 0 1 13.5,13.5 v0 a13.5,13.5 0 0 1 -13.5,13.5 h-47 a13.5,13.5 0 0 1 -13.5,-13.5 v0 a13.5,13.5 0 0 1 13.5,-13.5" clip-path="url(#satori_cp-id)" mask="url(#satori_om-id)"/><path width="74" height="27" clip-path="url(#satori_bc-id-2-2)" fill="none" stroke="rgba(120,200,255,0.2)" stroke-width="2" d="M425.954,193.954 A13.5,13.5 0 0 1 435.5,190 h47 a13.5,13.5 0 0 1 13.5,13.5 v0 a13.5,13.5 0 0 1 -13.5,13.5 h-47 a13.5,13.5 0 0 1 -13.5,-13.5 v0 A13.5,13.5 0 0 1 425.954,193.954"/><g mask="url(#satori_om-id)" clip-path="url(#satori_cp-id)"><path fill="#ff88cc" d="M441.3 208L439.3 208L442.3 199.3L444.6 199.3L447.7 208L445.7 208L445.0 206.0L441.9 206.0L441.3 208ZM442.4 204.6L444.5 204.6L444.3 203.8Q444.0 203.0 443.8 202L443.8 202Q443.6 201.4 443.4 200.7L443.4 200.7Q443.2 201.4 443.1 202.0L443.1 202.0Q442.8 203.0 442.6 203.8L442.6 203.8L442.4 204.6ZM449.8 199.3L451.5 199.3L451.5 208L449.8 208L449.8 199.3ZM456.3 198.9L457.8 198.9L455.0 209.3L453.5 209.3L456.3 198.9ZM461.6 208L459.8 208L459.8 199.3L462.5 199.3L463.9 203.3Q464.0 203.6 464.1 204.0Q464.3 204.4 464.4 205.0L464.4 205.0Q464.5 205.5 464.6 205.9L464.6 205.9Q464.7 205.5 464.8 205.0L464.8 205.0Q464.9 204.5 465.0 204.0Q465.1 203.6 465.2 203.3L465.2 203.3L466.6 199.3L469.4 199.3L469.4 208L467.6 208L467.6 203.9Q467.6 203.6 467.6 203.2Q467.6 202.7 467.6 202.2Q467.6 201.8 467.6 201.3L467.6 201.3Q467.6 201.0 467.7 200.8L467.7 200.8Q467.6 201.1 467.5 201.3L467.5 201.3Q467.4 201.8 467.3 202.3Q467.1 202.8 467.0 203.2Q466.9 203.6 466.8 203.9L466.8 203.9L465.3 208L463.8 208L462.4 203.9Q462.3 203.6 462.1 203.2Q462.0 202.8 461.9 202.3Q461.7 201.8 461.6 201.3L461.6 201.3Q461.5 201.1 461.5 200.9L461.5 200.9Q461.5 201.0 461.5 201.2L461.5 201.2Q461.5 201.7 461.5 202.2Q461.5 202.7 461.5 203.2Q461.6 203.6 461.6 203.9L461.6 203.9L461.6 208ZM477.5 208L472.0 208L472.0 199.3L473.7 199.3L473.7 206.5L477.5 206.5L477.5 208Z "/></g><defs><clipPath id="satori_bc-id-2-3" clip-path="url(#satori_cp-id)"><path x="504" y="190" width="119" height="27" d="M517.5,190 h92 a13.5,13.5 0 0 1 13.5,13.5 v0 a13.5,13.5 0 0 1 -13.5,13.5 h-92 a13.5,13.5 0 0 1 -13.5,-13.5 v0 a13.5,13.5 0 0 1 13.5,-13.5"/></clipPath></defs><mask id="satori_om-id-2-3"><rect x="505" y="191" width="117" height="25" fill="#fff" mask="url(#satori_om-id)"/><path width="119" height="27" fill="none" stroke="#000" stroke-width="2" d="M507.954,193.954 A13.5,13.5 0 0 1 517.5,190 h92 a13.5,13.5 0 0 1 13.5,13.5 v0 a13.5,13.5 0 0 1 -13.5,13.5 h-92 a13.5,13.5 0 0 1 -13.5,-13.5 v0 A13.5,13.5 0 0 1 507.954,193.954"/></mask><path x="504" y="190" width="119" height="27" fill="rgba(8,6,14,0.7)" d="M517.5,190 h92 a13.5,13.5 0 0 1 13.5,13.5 v0 a13.5,13.5 0 0 1 -13.5,13.5 h-92 a13.5,13.5 0 0 1 -13.5,-13.5 v0 a13.5,13.5 0 0 1 13.5,-13.5" clip-path="url(#satori_cp-id)" mask="url(#satori_om-id)"/><path width="119" height="27" clip-path="url(#satori_bc-id-2-3)" fill="none" stroke="rgba(120,200,255,0.2)" stroke-width="2" d="M507.954,193.954 A13.5,13.5 0 0 1 517.5,190 h92 a13.5,13.5 0 0 1 13.5,13.5 v0 a13.5,13.5 0 0 1 -13.5,13.5 h-92 a13.5,13.5 0 0 1 -13.5,-13.5 v0 A13.5,13.5 0 0 1 507.954,193.954"/><g mask="url(#satori_om-id)" clip-path="url(#satori_cp-id)"><path fill="#9ee79e" d="M524.7 208.1L524.7 208.1Q523.7 208.1 523.0 207.7Q522.3 207.3 521.9 206.5Q521.5 205.8 521.5 204.8L521.5 204.8Q521.5 203.7 521.9 203.0Q522.3 202.2 523.0 201.8Q523.7 201.4 524.7 201.4L524.7 201.4Q525.7 201.4 526.4 201.8Q527.1 202.2 527.5 203.0Q527.9 203.7 527.9 204.8L527.9 204.8Q527.9 205.8 527.5 206.5Q527.1 207.3 526.4 207.7Q525.7 208.1 524.7 208.1ZM524.7 206.7L524.7 206.7Q525.1 206.7 525.5 206.5Q525.8 206.2 525.9 205.8Q526.1 205.3 526.1 204.7L526.1 204.7Q526.1 204.2 525.9 203.7Q525.8 203.3 525.5 203.0Q525.1 202.8 524.7 202.8L524.7 202.8Q524.2 202.8 523.9 203.0Q523.6 203.3 523.4 203.7Q523.3 204.2 523.3 204.7L523.3 204.7Q523.3 205.3 523.4 205.8Q523.6 206.2 523.9 206.5Q524.2 206.7 524.7 206.7ZM531.9 210.4L530.1 210.4L530.1 201.4L531.8 201.4L531.8 202.6L531.9 202.6Q532.0 202.3 532.3 202.0Q532.5 201.7 532.9 201.6Q533.2 201.4 533.8 201.4L533.8 201.4Q534.5 201.4 535.1 201.7Q535.7 202.1 536.1 202.9Q536.4 203.6 536.4 204.7L536.4 204.7Q536.4 205.8 536.1 206.6Q535.7 207.3 535.1 207.7Q534.5 208.1 533.8 208.1L533.8 208.1Q533.2 208.1 532.9 207.9Q532.5 207.7 532.3 207.5Q532.0 207.2 531.9 207.0L531.9 207.0L531.9 207.0L531.9 210.4ZM533.2 206.7L533.2 206.7Q533.7 206.7 534.0 206.4Q534.3 206.2 534.5 205.8Q534.6 205.3 534.6 204.7L534.6 204.7Q534.6 204.2 534.5 203.7Q534.3 203.3 534.0 203.0Q533.7 202.8 533.2 202.8L533.2 202.8Q532.8 202.8 532.5 203.0Q532.2 203.3 532.0 203.7Q531.8 204.1 531.8 204.7L531.8 204.7Q531.8 205.3 532.0 205.8Q532.2 206.2 532.5 206.5Q532.8 206.7 533.2 206.7ZM541.6 208.1L541.6 208.1Q540.6 208.1 539.9 207.7Q539.2 207.3 538.8 206.6Q538.4 205.8 538.4 204.8L538.4 204.8Q538.4 203.7 538.8 203.0Q539.2 202.2 539.9 201.8Q540.6 201.4 541.5 201.4L541.5 201.4Q542.2 201.4 542.7 201.6Q543.3 201.8 543.7 202.2Q544.1 202.6 544.4 203.2Q544.6 203.8 544.6 204.7L544.6 204.7L544.6 205.2L540.1 205.2Q540.2 205.7 540.3 206.0L540.3 206.0Q540.5 206.4 540.9 206.6Q541.2 206.8 541.7 206.8L541.7 206.8Q542.0 206.8 542.2 206.7Q542.5 206.6 542.7 206.5Q542.8 206.3 542.9 206.0L542.9 206.0L544.5 206.3Q544.4 206.9 544.0 207.3Q543.6 207.7 543.0 207.9Q542.4 208.1 541.6 208.1ZM540.2 204.1L540.2 204.1L542.9 204.1Q542.9 203.8 542.8 203.5L542.8 203.5Q542.6 203.1 542.3 202.9Q542.0 202.7 541.6 202.7L541.6 202.7Q541.1 202.7 540.8 202.9Q540.5 203.1 540.3 203.5L540.3 203.5Q540.2 203.7 540.2 204.1ZM548.6 204.2L548.6 204.2L548.6 208L546.8 208L546.8 201.4L548.5 201.4L548.5 202.8Q548.8 202.2 549.2 201.8L549.2 201.8Q549.7 201.4 550.5 201.4L550.5 201.4Q551.2 201.4 551.7 201.7Q552.2 202.0 552.5 202.5Q552.8 203.1 552.8 203.8L552.8 203.8L552.8 208L551.0 208L551.0 204.1Q551.0 203.5 550.7 203.2Q550.4 202.8 549.9 202.8L549.9 202.8Q549.5 202.8 549.2 203.0Q548.9 203.2 548.7 203.5Q548.6 203.8 548.6 204.2Z M561.7 208.1L561.7 208.1Q560.9 208.1 560.3 207.9Q559.7 207.7 559.3 207.2Q559.0 206.8 558.8 206.2L558.8 206.2L560.5 205.9Q560.6 206.4 560.9 206.6Q561.3 206.8 561.8 206.8L561.8 206.8Q562.3 206.8 562.6 206.6Q562.9 206.5 562.9 206.2L562.9 206.2Q562.9 205.9 562.7 205.7Q562.5 205.6 562.0 205.5L562.0 205.5L560.9 205.3Q559.9 205.1 559.5 204.6Q559.0 204.1 559.0 203.4L559.0 203.4Q559.0 202.8 559.4 202.3Q559.7 201.9 560.3 201.6Q560.9 201.4 561.8 201.4L561.8 201.4Q562.5 201.4 563.1 201.6Q563.7 201.8 564.0 202.2Q564.4 202.6 564.5 203.1L564.5 203.1L562.9 203.4Q562.8 203.1 562.6 202.8Q562.3 202.6 561.8 202.6L561.8 202.6Q561.4 202.6 561.1 202.8Q560.8 203.0 560.8 203.3L560.8 203.3Q560.8 203.5 561.0 203.7Q561.2 203.9 561.6 204.0L561.6 204.0L562.8 204.2Q563.7 204.4 564.2 204.8Q564.7 205.3 564.7 206.0L564.7 206.0Q564.7 206.6 564.3 207.1Q563.9 207.6 563.3 207.9Q562.6 208.1 561.7 208.1ZM569.8 208.1L569.8 208.1Q568.8 208.1 568.1 207.7Q567.4 207.3 567.0 206.5Q566.6 205.8 566.6 204.8L566.6 204.8Q566.6 203.7 567.0 203.0Q567.4 202.2 568.1 201.8Q568.8 201.4 569.8 201.4L569.8 201.4Q570.8 201.4 571.5 201.8Q572.2 202.2 572.6 203.0Q573.0 203.7 573.0 204.8L573.0 204.8Q573.0 205.8 572.6 206.5Q572.2 207.3 571.5 207.7Q570.8 208.1 569.8 208.1ZM569.8 206.7L569.8 206.7Q570.3 206.7 570.6 206.5Q570.9 206.2 571.0 205.8Q571.2 205.3 571.2 204.7L571.2 204.7Q571.2 204.2 571.0 203.7Q570.9 203.3 570.6 203.0Q570.3 202.8 569.8 202.8L569.8 202.8Q569.3 202.8 569.0 203.0Q568.7 203.3 568.5 203.7Q568.4 204.2 568.4 204.7L568.4 204.7Q568.4 205.3 568.5 205.8Q568.7 206.2 569.0 206.5Q569.3 206.7 569.8 206.7ZM577.5 208.1L577.5 208.1Q576.8 208.1 576.3 207.8Q575.8 207.5 575.5 206.9Q575.2 206.4 575.2 205.6L575.2 205.6L575.2 201.4L577.0 201.4L577.0 205.3Q577.0 205.9 577.3 206.3Q577.6 206.6 578.2 206.6L578.2 206.6Q578.5 206.6 578.8 206.5Q579.1 206.3 579.3 206.0Q579.4 205.7 579.4 205.2L579.4 205.2L579.4 201.4L581.2 201.4L581.2 208L579.5 208L579.5 206.6Q579.3 207.3 578.8 207.6L578.8 207.6Q578.3 208.1 577.5 208.1ZM585.4 208L583.7 208L583.7 201.4L585.4 201.4L585.4 202.6L585.5 202.6Q585.6 202.0 586.1 201.7Q586.5 201.4 587.0 201.4L587.0 201.4Q587.2 201.4 587.3 201.4Q587.5 201.4 587.6 201.4L587.6 201.4L587.6 203.0Q587.5 202.9 587.3 202.9Q587.0 202.9 586.8 202.9L586.8 202.9Q586.4 202.9 586.1 203.1Q585.8 203.2 585.6 203.6Q585.4 203.9 585.4 204.3L585.4 204.3L585.4 208ZM592.5 208.1L592.5 208.1Q591.5 208.1 590.8 207.7Q590.1 207.3 589.7 206.5Q589.3 205.8 589.3 204.8L589.3 204.8Q589.3 203.7 589.7 203.0Q590.1 202.2 590.8 201.8Q591.5 201.4 592.5 201.4L592.5 201.4Q593.1 201.4 593.6 201.5Q594.1 201.7 594.4 202.0Q594.8 202.2 595.1 202.6Q595.3 203.0 595.4 203.5L595.4 203.5L593.8 203.9Q593.7 203.6 593.6 203.4Q593.5 203.2 593.3 203.0Q593.2 202.9 593.0 202.8Q592.8 202.8 592.5 202.8L592.5 202.8Q592.1 202.8 591.7 203.0Q591.4 203.3 591.3 203.7Q591.1 204.2 591.1 204.7L591.1 204.7Q591.1 205.3 591.3 205.8Q591.4 206.2 591.7 206.5Q592.1 206.7 592.5 206.7L592.5 206.7Q592.8 206.7 593.0 206.7Q593.2 206.6 593.4 206.4Q593.5 206.3 593.6 206.1Q593.7 205.9 593.8 205.6L593.8 205.6L595.4 205.9Q595.3 206.4 595.1 206.8Q594.8 207.2 594.5 207.5Q594.1 207.8 593.6 208.0Q593.1 208.1 592.5 208.1ZM600.6 208.1L600.6 208.1Q599.6 208.1 598.9 207.7Q598.1 207.3 597.7 206.6Q597.4 205.8 597.4 204.8L597.4 204.8Q597.4 203.7 597.7 203.0Q598.1 202.2 598.8 201.8Q599.5 201.4 600.5 201.4L600.5 201.4Q601.1 201.4 601.7 201.6Q602.3 201.8 602.7 202.2Q603.1 202.6 603.3 203.2Q603.6 203.8 603.6 204.7L603.6 204.7L603.6 205.2L599.1 205.2Q599.1 205.7 599.3 206.0L599.3 206.0Q599.5 206.4 599.8 206.6Q600.2 206.8 600.6 206.8L600.6 206.8Q600.9 206.8 601.2 206.7Q601.4 206.6 601.6 206.5Q601.8 206.3 601.9 206.0L601.9 206.0L603.5 206.3Q603.3 206.9 602.9 207.3Q602.5 207.7 601.9 207.9Q601.4 208.1 600.6 208.1ZM599.1 204.1L599.1 204.1L601.9 204.1Q601.9 203.8 601.7 203.5L601.7 203.5Q601.6 203.1 601.3 202.9Q601.0 202.7 600.5 202.7L600.5 202.7Q600.1 202.7 599.7 202.9Q599.4 203.1 599.3 203.5L599.3 203.5Q599.1 203.7 599.1 204.1Z "/></g></svg>