<!-- Generated by readme-aura https://github.com/collectioneur/readme-aura -->
<svg width="800" height="70" viewBox="0 0 800 70" xmlns="http://www.w3.org/2000/svg"><defs><clipPath id="satori_bc-id"><path x="0" y="0" width="800" height="70" d="M30,0 h740 a30,30 0 0 1 30,30 v10 a30,30 0 0 1 -30,30 h-740 a30,30 0 0 1 -30,-30 v-10 a30,30 0 0 1 30,-30"/></clipPath></defs><clipPath id="satori_cp-id"><path x="0" y="0" width="800" height="70" d="M30,0 h740 a30,30 0 0 1 30,30 v10 a30,30 0 0 1 -30,30 h-740 a30,30 0 0 1 -30,-30 v-10 a30,30 0 0 1 30,-30"/></clipPath><mask id="satori_om-id"><rect x="1" y="1" width="798" height="68" fill="#fff"/><path width="800" height="70" fill="none" stroke="#000" stroke-width="2" d="M8.786999999999999,8.786999999999999 A30,30 0 0 1 30,0 h740 a30,30 0 0 1 30,30 v10 a30,30 0 0 1 -30,30 h-740 a30,30 0 0 1 -30,-30 v-10 A30,30 0 0 1 8.786999999999999,8.786999999999999"/></mask><path x="0" y="0" width="800" height="70" fill="#06060a" d="M30,0 h740 a30,30 0 0 1 30,30 v10 a30,30 0 0 1 -30,30 h-740 a30,30 0 0 1 -30,-30 v-10 a30,30 0 0 1 30,-30"/><path width="800" height="70" clip-path="url(#satori_bc-id)" fill="none" stroke="rgba(110,80,220,0.15)" stroke-width="2" d="M8.786999999999999,8.786999999999999 A30,30 0 0 1 30,0 h740 a30,30 0 0 1 30,30 v10 a30,30 0 0 1 -30,30 h-740 a30,30 0 0 1 -30,-30 v-10 A30,30 0 0 1 8.786999999999999,8.786999999999999"/><clipPath id="satori_cp-id-0" clip-path="url(#satori_cp-id)"><rect x="1" y="1" width="800" height="70"/></clipPath><mask id="satori_om-id-0"><rect x="1" y="1" width="800" height="70" fill="#fff" mask="url(#satori_om-id)"/></mask><svg x="1" y="1" width="800" height="70" preserveAspectRatio="none" clip-path="url(#satori_cp-id-0)" mask="url(#satori_om-id-0)"><defs><linearGradient id="ts-scg" x1="0%" y1="0%" x2="100%" y2="0%"><stop offset="0%" stop-color="rgba(120,200,255,0)"></stop><stop offset="50%" stop-color="rgba(180,120,255,0.35)"></stop><stop offset="100%" stop-color="rgba(120,200,255,0)"></stop></linearGradient></defs><rect id="ts-scan1" x="0" y="34" width="140" height="1" fill="url(#ts-scg)"></rect><style>

      @keyframes ts-scan { 0% { transform: translate(-900px, 0); } 100% { transform: translate(900px, 0); } }
      #ts-scan1 { animation: ts-scan 3.5s linear infinite; }
    
</style>
</svg><mask id="satori_om-id-0-0"><rect x="1" y="1" width="0" height="70" fill="#fff" mask="url(#satori_om-id)"/></mask><mask id="satori_om-id-0-0-0"><rect x="1" y="1" width="0" height="70" fill="#fff" mask="url(#satori_om-id)"/></mask><mask id="satori_om-id-0-0-0-0"><rect x="1" y="1" width="0" height="70" fill="#fff" mask="url(#satori_om-id)"/></mask><mask id="satori_om-id-0-0-0-1"><rect x="1" y="1" width="0" height="70" fill="#fff" mask="url(#satori_om-id)"/></mask><mask id="satori_om-id-0-0-0-2"><rect x="1" y="1" width="0" height="70" fill="#fff" mask="url(#satori_om-id)"/></mask><mask id="satori_om-id-0-1"><rect x="1" y="1" width="0" height="70" fill="#fff" mask="url(#satori_om-id)"/></mask><defs><clipPath id="satori_bc-id-1" clip-path="url(#satori_cp-id)"><path x="26" y="21" width="53" height="28" d="M40,21 h25 a14,14 0 0 1 14,14 v0 a14,14 0 0 1 -14,14 h-25 a14,14 0 0 1 -14,-14 v0 a14,14 0 0 1 14,-14"/></clipPath></defs><mask id="satori_om-id-1"><rect x="27" y="22" width="51" height="26" fill="#fff" mask="url(#satori_om-id)"/><path width="53" height="28" fill="none" stroke="#000" stroke-width="2" d="M30.101,25.101 A14,14 0 0 1 40,21 h25 a14,14 0 0 1 14,14 v0 a14,14 0 0 1 -14,14 h-25 a14,14 0 0 1 -14,-14 v0 A14,14 0 0 1 30.101,25.101"/></mask><path x="26" y="21" width="53" height="28" fill="rgba(8,6,14,0.7)" d="M40,21 h25 a14,14 0 0 1 14,14 v0 a14,14 0 0 1 -14,14 h-25 a14,14 0 0 1 -14,-14 v0 a14,14 0 0 1 14,-14" clip-path="url(#satori_cp-id)" mask="url(#satori_om-id)"/><path width="53" height="28" clip-path="url(#satori_bc-id-1)" fill="none" stroke="rgba(100,80,220,0.25)" stroke-width="2" d="M30.101,25.101 A14,14 0 0 1 40,21 h25 a14,14 0 0 1 14,14 v0 a14,14 0 0 1 -14,14 h-25 a14,14 0 0 1 -14,-14 v0 A14,14 0 0 1 30.101,25.101"/><g mask="url(#satori_om-id)" clip-path="url(#satori_cp-id)"><path fill="#7eb8ff" d="M48.0 40.1L48.0 40.1Q46.7 40.1 45.7 39.6Q44.7 39.0 44.2 37.9Q43.6 36.8 43.6 35.3L43.6 35.3Q43.6 33.7 44.2 32.6Q44.8 31.6 45.7 31.0Q46.7 30.4 48.0 30.4L48.0 30.4Q48.8 30.4 49.5 30.6Q50.2 30.9 50.7 31.3Q51.3 31.7 51.6 32.4Q52.0 33.0 52.1 33.8L52.1 33.8L50.1 33.8Q50.0 33.4 49.9 33.1Q49.7 32.8 49.4 32.6Q49.1 32.4 48.8 32.2Q48.4 32.1 48.0 32.1L48.0 32.1Q47.3 32.1 46.7 32.5Q46.2 32.9 45.9 33.6Q45.6 34.3 45.6 35.3L45.6 35.3Q45.6 36.3 45.9 37.0Q46.2 37.7 46.7 38.1Q47.3 38.4 48.0 38.4L48.0 38.4Q48.4 38.4 48.8 38.3Q49.1 38.2 49.4 38.0Q49.7 37.8 49.9 37.5Q50.0 37.1 50.1 36.8L50.1 36.8L52.1 36.8Q52.0 37.4 51.7 38.0Q51.4 38.6 50.8 39.1Q50.3 39.6 49.6 39.9Q48.9 40.1 48.0 40.1ZM58.4 40L57.0 40L57.4 37.6L55.5 37.6L55.1 40L53.7 40L54.1 37.6L52.8 37.6L53.0 36.2L54.3 36.2L54.6 34.4L53.3 34.4L53.5 32.9L54.8 32.9L55.2 30.5L56.7 30.5L56.3 32.9L58.2 32.9L58.6 30.5L60.0 30.5L59.6 32.9L60.9 32.9L60.7 34.4L59.4 34.4L59.1 36.2L60.4 36.2L60.1 37.6L58.8 37.6L58.4 40ZM56.0 34.4L55.7 36.2L57.6 36.2L57.9 34.4L56.0 34.4Z "/></g><defs><clipPath id="satori_bc-id-2" clip-path="url(#satori_cp-id)"><path x="89" y="21" width="62" height="28" d="M103,21 h34 a14,14 0 0 1 14,14 v0 a14,14 0 0 1 -14,14 h-34 a14,14 0 0 1 -14,-14 v0 a14,14 0 0 1 14,-14"/></clipPath></defs><mask id="satori_om-id-2"><rect x="90" y="22" width="60" height="26" fill="#fff" mask="url(#satori_om-id)"/><path width="62" height="28" fill="none" stroke="#000" stroke-width="2" d="M93.101,25.101 A14,14 0 0 1 103,21 h34 a14,14 0 0 1 14,14 v0 a14,14 0 0 1 -14,14 h-34 a14,14 0 0 1 -14,-14 v0 A14,14 0 0 1 93.101,25.101"/></mask><path x="89" y="21" width="62" height="28" fill="rgba(8,6,14,0.7)" d="M103,21 h34 a14,14 0 0 1 14,14 v0 a14,14 0 0 1 -14,14 h-34 a14,14 0 0 1 -14,-14 v0 a14,14 0 0 1 14,-14" clip-path="url(#satori_cp-id)" mask="url(#satori_om-id)"/><path width="62" height="28" clip-path="url(#satori_bc-id-2)" fill="none" stroke="rgba(100,80,220,0.25)" stroke-width="2" d="M93.101,25.101 A14,14 0 0 1 103,21 h34 a14,14 0 0 1 14,14 v0 a14,14 0 0 1 -14,14 h-34 a14,14 0 0 1 -14,-14 v0 A14,14 0 0 1 93.101,25.101"/><g mask="url(#satori_om-id)" clip-path="url(#satori_cp-id)"><path fill="#78d4ff" d="M111.0 40.1L111.0 40.1Q109.7 40.1 108.7 39.6Q107.7 39.0 107.2 37.9Q106.6 36.8 106.6 35.3L106.6 35.3Q106.6 33.7 107.2 32.6Q107.8 31.6 108.7 31.0Q109.7 30.4 111.0 30.4L111.0 30.4Q111.8 30.4 112.5 30.6Q113.2 30.9 113.7 31.3Q114.3 31.7 114.6 32.4Q115.0 33.0 115.1 33.8L115.1 33.8L113.1 33.8Q113.0 33.4 112.9 33.1Q112.7 32.8 112.4 32.6Q112.1 32.4 111.8 32.2Q111.4 32.1 111.0 32.1L111.0 32.1Q110.3 32.1 109.7 32.5Q109.2 32.9 108.9 33.6Q108.6 34.3 108.6 35.3L108.6 35.3Q108.6 36.3 108.9 37.0Q109.2 37.7 109.7 38.1Q110.3 38.4 111.0 38.4L111.0 38.4Q111.4 38.4 111.8 38.3Q112.1 38.2 112.4 38.0Q112.7 37.8 112.9 37.5Q113.0 37.1 113.1 36.8L113.1 36.8L115.1 36.8Q115.0 37.4 114.7 38.0Q114.4 38.6 113.8 39.1Q113.3 39.6 112.6 39.9Q111.9 40.1 111.0 40.1ZM120.8 39.5L119.2 39.5L119.2 37.0L116.8 37.0L116.8 35.5L119.2 35.5L119.2 33.0L120.8 33.0L120.8 35.5L123.3 35.5L123.3 37.0L120.8 37.0L120.8 39.5ZM129.7 39.5L128.0 39.5L128.0 37.0L125.6 37.0L125.6 35.5L128.0 35.5L128.0 33.0L129.7 33.0L129.7 35.5L132.1 35.5L132.1 37.0L129.7 37.0L129.7 39.5Z "/></g><defs><clipPath id="satori_bc-id-3" clip-path="url(#satori_cp-id)"><path x="161" y="21" width="92" height="28" d="M175,21 h64 a14,14 0 0 1 14,14 v0 a14,14 0 0 1 -14,14 h-64 a14,14 0 0 1 -14,-14 v0 a14,14 0 0 1 14,-14"/></clipPath></defs><mask id="satori_om-id-3"><rect x="162" y="22" width="90" height="26" fill="#fff" mask="url(#satori_om-id)"/><path width="92" height="28" fill="none" stroke="#000" stroke-width="2" d="M165.101,25.101 A14,14 0 0 1 175,21 h64 a14,14 0 0 1 14,14 v0 a14,14 0 0 1 -14,14 h-64 a14,14 0 0 1 -14,-14 v0 A14,14 0 0 1 165.101,25.101"/></mask><path x="161" y="21" width="92" height="28" fill="rgba(8,6,14,0.7)" d="M175,21 h64 a14,14 0 0 1 14,14 v0 a14,14 0 0 1 -14,14 h-64 a14,14 0 0 1 -14,-14 v0 a14,14 0 0 1 14,-14" clip-path="url(#satori_cp-id)" mask="url(#satori_om-id)"/><path width="92" height="28" clip-path="url(#satori_bc-id-3)" fill="none" stroke="rgba(100,80,220,0.25)" stroke-width="2" d="M165.101,25.101 A14,14 0 0 1 175,21 h64 a14,14 0 0 1 14,14 v0 a14,14 0 0 1 -14,14 h-64 a14,14 0 0 1 -14,-14 v0 A14,14 0 0 1 165.101,25.101"/><g mask="url(#satori_om-id)" clip-path="url(#satori_cp-id)"><path fill="#b8a0ff" d="M180.3 40L178.3 40L180.6 36.4L178.4 32.9L180.5 32.9L181.1 34.0Q181.4 34.6 181.7 35.1L181.7 35.1Q181.7 35.3 181.8 35.4L181.8 35.4Q181.9 35.3 181.9 35.1L181.9 35.1Q182.2 34.6 182.5 34.0L182.5 34.0L183.2 32.9L185.2 32.9L183.0 36.4L185.3 40L183.2 40L182.4 38.7Q182.1 38.1 181.9 37.6L181.9 37.6Q181.8 37.4 181.7 37.3L181.7 37.3Q181.7 37.4 181.6 37.6L181.6 37.6Q181.4 38.1 181.1 38.7L181.1 38.7L180.3 40ZM189.8 40.1L189.8 40.1Q188.7 40.1 187.9 39.8Q187.1 39.4 186.6 38.8Q186.1 38.2 186.1 37.5L186.1 37.5Q186.1 36.9 186.4 36.4Q186.7 35.9 187.1 35.5Q187.6 35.2 188.2 35.1L188.2 35.1L188.2 35.1Q187.4 34.9 187.0 34.3Q186.5 33.7 186.5 33.0L186.5 33.0Q186.5 32.2 186.9 31.6Q187.3 31.1 188.1 30.7Q188.8 30.4 189.8 30.4L189.8 30.4Q190.7 30.4 191.5 30.7Q192.2 31.1 192.6 31.6Q193.1 32.2 193.1 33.0L193.1 33.0Q193.1 33.7 192.6 34.3Q192.1 34.9 191.4 35.1L191.4 35.1L191.4 35.1Q191.9 35.2 192.4 35.5Q192.9 35.9 193.1 36.4Q193.4 36.9 193.4 37.5L193.4 37.5Q193.4 38.2 192.9 38.8Q192.5 39.4 191.7 39.8Q190.8 40.1 189.8 40.1ZM189.8 38.7L189.8 38.7Q190.3 38.7 190.6 38.5Q191.0 38.3 191.2 38.0Q191.4 37.7 191.4 37.3L191.4 37.3Q191.4 36.9 191.2 36.6Q191.0 36.2 190.6 36.1Q190.2 35.9 189.8 35.9L189.8 35.9Q189.3 35.9 188.9 36.1Q188.6 36.2 188.4 36.6Q188.1 36.9 188.1 37.3L188.1 37.3Q188.1 37.7 188.3 38.0Q188.5 38.3 188.9 38.5Q189.3 38.7 189.8 38.7ZM189.8 34.5L189.8 34.5Q190.2 34.5 190.5 34.3Q190.8 34.1 191.0 33.8Q191.2 33.5 191.2 33.2L191.2 33.2Q191.2 32.8 191.0 32.5Q190.8 32.2 190.5 32.1Q190.2 31.9 189.8 31.9L189.8 31.9Q189.4 31.9 189.0 32.1Q188.7 32.2 188.5 32.5Q188.4 32.8 188.4 33.2L188.4 33.2Q188.4 33.5 188.5 33.8Q188.7 34.1 189.0 34.3Q189.4 34.5 189.8 34.5ZM198.3 40.1L198.3 40.1Q197.6 40.1 197.0 39.9Q196.3 39.6 195.8 39.1Q195.2 38.6 194.9 37.7Q194.6 36.8 194.6 35.5L194.6 35.5Q194.6 34.3 194.9 33.4Q195.1 32.4 195.6 31.8Q196.1 31.1 196.8 30.8Q197.5 30.4 198.4 30.4L198.4 30.4Q199.3 30.4 200.1 30.8Q200.8 31.1 201.2 31.8Q201.7 32.4 201.8 33.2L201.8 33.2L199.8 33.2Q199.7 32.7 199.4 32.4Q199.0 32.1 198.4 32.1L198.4 32.1Q197.8 32.1 197.4 32.5Q196.9 32.8 196.7 33.5Q196.5 34.2 196.5 35.1L196.5 35.1L196.6 35.1Q196.8 34.7 197.1 34.4Q197.5 34.1 198.0 33.9Q198.4 33.8 198.9 33.8L198.9 33.8Q199.8 33.8 200.4 34.2Q201.1 34.6 201.5 35.3Q201.9 36.0 201.9 36.8L201.9 36.8Q201.9 37.8 201.4 38.5Q201.0 39.3 200.2 39.7Q199.4 40.1 198.3 40.1ZM198.3 38.6L198.3 38.6Q198.8 38.6 199.2 38.4Q199.5 38.1 199.8 37.8Q200.0 37.4 200.0 36.9L200.0 36.9Q200.0 36.4 199.8 36.0Q199.6 35.7 199.2 35.4Q198.8 35.2 198.3 35.2L198.3 35.2Q198.0 35.2 197.7 35.3Q197.4 35.5 197.2 35.7Q196.9 35.9 196.8 36.2Q196.7 36.5 196.7 36.9L196.7 36.9Q196.7 37.4 196.9 37.7Q197.1 38.1 197.5 38.4Q197.9 38.6 198.3 38.6Z M208.0 40L205.8 40L209.1 30.5L211.6 30.5L214.9 40L212.8 40L212.0 37.8L208.7 37.8L208.0 40ZM209.2 36.3L211.5 36.3L211.2 35.4Q211.0 34.6 210.7 33.5L210.7 33.5Q210.5 32.8 210.3 32.1L210.3 32.1Q210.1 32.8 210.0 33.5L210.0 33.5Q209.7 34.6 209.4 35.4L209.4 35.4L209.2 36.3ZM219.6 40.1L219.6 40.1Q218.4 40.1 217.6 39.8Q216.7 39.4 216.3 38.8Q215.8 38.1 215.8 37.1L215.8 37.1L217.7 37.1Q217.7 37.5 217.9 37.9Q218.2 38.2 218.6 38.3Q219.0 38.5 219.5 38.5L219.5 38.5Q220.1 38.5 220.4 38.4Q220.8 38.2 221.0 37.9Q221.3 37.7 221.3 37.3L221.3 37.3Q221.3 37.0 221.1 36.8Q220.9 36.5 220.5 36.4Q220.1 36.2 219.6 36.1L219.6 36.1L218.6 35.8Q217.4 35.5 216.7 34.9Q216.0 34.3 216.0 33.3L216.0 33.3Q216.0 32.4 216.5 31.8Q216.9 31.1 217.7 30.8Q218.5 30.4 219.6 30.4L219.6 30.4Q220.6 30.4 221.4 30.8Q222.2 31.1 222.6 31.8Q223.1 32.4 223.1 33.2L223.1 33.2L221.2 33.2Q221.2 32.7 220.7 32.4Q220.3 32.0 219.6 32.0L219.6 32.0Q219.1 32.0 218.7 32.2Q218.4 32.3 218.2 32.6Q218.0 32.8 218.0 33.1L218.0 33.1Q218.0 33.5 218.2 33.7Q218.4 34.0 218.8 34.1Q219.1 34.2 219.5 34.3L219.5 34.3L220.4 34.5Q221.0 34.7 221.5 34.9Q222.0 35.1 222.4 35.5Q222.8 35.8 223.0 36.3Q223.2 36.7 223.2 37.3L223.2 37.3Q223.2 38.2 222.8 38.8Q222.3 39.4 221.5 39.8Q220.7 40.1 219.6 40.1ZM226.5 40L224.6 40L224.6 30.5L227.6 30.5L229.1 34.9Q229.2 35.2 229.3 35.7Q229.4 36.2 229.6 36.7L229.6 36.7Q229.7 37.3 229.8 37.8L229.8 37.8Q229.9 37.3 230.0 36.7L230.0 36.7Q230.2 36.2 230.3 35.7Q230.4 35.2 230.5 34.9L230.5 34.9L232.0 30.5L235.0 30.5L235.0 40L233.1 40L233.1 35.5Q233.1 35.2 233.1 34.8Q233.1 34.3 233.1 33.8Q233.1 33.2 233.1 32.7L233.1 32.7Q233.1 32.4 233.1 32.2L233.1 32.2Q233.1 32.5 233.0 32.8L233.0 32.8Q232.8 33.3 232.7 33.8Q232.5 34.4 232.4 34.8Q232.3 35.3 232.2 35.5L232.2 35.5L230.6 40L229.0 40L227.4 35.5Q227.3 35.3 227.2 34.8Q227.0 34.4 226.9 33.9Q226.7 33.3 226.6 32.8L226.6 32.8Q226.5 32.5 226.5 32.3L226.5 32.3Q226.5 32.5 226.5 32.7L226.5 32.7Q226.5 33.2 226.5 33.7Q226.5 34.3 226.5 34.8Q226.5 35.2 226.5 35.5L226.5 35.5L226.5 40Z "/></g><defs><clipPath id="satori_bc-id-4" clip-path="url(#satori_cp-id)"><path x="263" y="21" width="80" height="28" d="M277,21 h52 a14,14 0 0 1 14,14 v0 a14,14 0 0 1 -14,14 h-52 a14,14 0 0 1 -14,-14 v0 a14,14 0 0 1 14,-14"/></clipPath></defs><mask id="satori_om-id-4"><rect x="264" y="22" width="78" height="26" fill="#fff" mask="url(#satori_om-id)"/><path width="80" height="28" fill="none" stroke="#000" stroke-width="2" d="M267.101,25.101 A14,14 0 0 1 277,21 h52 a14,14 0 0 1 14,14 v0 a14,14 0 0 1 -14,14 h-52 a14,14 0 0 1 -14,-14 v0 A14,14 0 0 1 267.101,25.101"/></mask><path x="263" y="21" width="80" height="28" fill="rgba(8,6,14,0.7)" d="M277,21 h52 a14,14 0 0 1 14,14 v0 a14,14 0 0 1 -14,14 h-52 a14,14 0 0 1 -14,-14 v0 a14,14 0 0 1 14,-14" clip-path="url(#satori_cp-id)" mask="url(#satori_om-id)"/><path width="80" height="28" clip-path="url(#satori_bc-id-4)" fill="none" stroke="rgba(100,80,220,0.25)" stroke-width="2" d="M267.101,25.101 A14,14 0 0 1 277,21 h52 a14,14 0 0 1 14,14 v0 a14,14 0 0 1 -14,14 h-52 a14,14 0 0 1 -14,-14 v0 A14,14 0 0 1 267.101,25.101"/><g mask="url(#satori_om-id)" clip-path="url(#satori_cp-id)"><path fill="#9ee79e" d="M282.8 40L280.9 40L280.9 30.5L284.5 30.5Q285.6 30.5 286.4 31.0Q287.1 31.4 287.5 32.1Q287.9 32.8 287.9 33.7L287.9 33.7Q287.9 34.7 287.5 35.4Q287.1 36.1 286.4 36.5Q285.6 36.9 284.5 36.9L284.5 36.9L282.8 36.9L282.8 40ZM282.8 32.1L282.8 35.3L284.2 35.3Q284.8 35.3 285.2 35.1Q285.6 34.9 285.7 34.6Q285.9 34.2 285.9 33.7Q285.9 33.3 285.7 32.9Q285.6 32.5 285.2 32.3Q284.8 32.1 284.2 32.1L284.2 32.1L282.8 32.1ZM289.2 42.5L289.2 42.5L289.6 41.1L289.9 41.1Q290.2 41.2 290.5 41.2Q290.8 41.1 291.0 41.0Q291.2 40.8 291.2 40.4L291.2 40.4L291.3 40.0L288.6 32.9L290.6 32.9L291.8 36.6Q292.1 37.3 292.2 38.0L292.2 38.0Q292.2 38.2 292.3 38.5L292.3 38.5Q292.3 38.2 292.4 38.0L292.4 38.0Q292.6 37.3 292.8 36.6L292.8 36.6L294.0 32.9L296.0 32.9L293.0 40.8Q292.8 41.4 292.5 41.8Q292.1 42.2 291.6 42.5Q291.1 42.7 290.4 42.7L290.4 42.7Q290.0 42.7 289.7 42.7Q289.4 42.6 289.2 42.5ZM299.3 32.9L300.6 32.9L300.6 34.4L299.3 34.4L299.3 37.9Q299.3 38.3 299.4 38.4Q299.6 38.6 299.9 38.6L299.9 38.6Q300.0 38.6 300.2 38.6Q300.4 38.5 300.5 38.5L300.5 38.5L300.8 39.9Q300.5 40.0 300.2 40.1Q299.8 40.1 299.6 40.1L299.6 40.1Q298.5 40.1 297.9 39.6Q297.4 39.1 297.4 38.1L297.4 38.1L297.4 34.4L296.4 34.4L296.4 32.9L297.4 32.9L297.4 31.2L299.3 31.2L299.3 32.9ZM303.7 35.9L303.7 35.9L303.7 40L301.8 40L301.8 30.5L303.7 30.5L303.7 34.3Q304.0 33.7 304.4 33.3L304.4 33.3Q305.0 32.8 305.9 32.8L305.9 32.8Q306.6 32.8 307.1 33.1Q307.7 33.5 308.0 34.1Q308.3 34.7 308.3 35.5L308.3 35.5L308.3 40L306.4 40L306.4 35.8Q306.4 35.2 306.0 34.8Q305.7 34.4 305.1 34.4L305.1 34.4Q304.7 34.4 304.4 34.6Q304.1 34.8 303.9 35.1Q303.7 35.4 303.7 35.9ZM313.1 40.1L313.1 40.1Q312.0 40.1 311.2 39.7Q310.5 39.2 310.0 38.4Q309.6 37.6 309.6 36.5L309.6 36.5Q309.6 35.4 310.0 34.6Q310.5 33.7 311.2 33.3Q312.0 32.8 313.1 32.8L313.1 32.8Q314.2 32.8 314.9 33.3Q315.7 33.7 316.1 34.6Q316.6 35.4 316.6 36.5L316.6 36.5Q316.6 37.6 316.1 38.4Q315.7 39.2 314.9 39.7Q314.2 40.1 313.1 40.1ZM313.1 38.6L313.1 38.6Q313.6 38.6 313.9 38.4Q314.3 38.1 314.5 37.6Q314.6 37.1 314.6 36.5L314.6 36.5Q314.6 35.8 314.5 35.4Q314.3 34.9 313.9 34.6Q313.6 34.3 313.1 34.3L313.1 34.3Q312.6 34.3 312.2 34.6Q311.9 34.9 311.7 35.4Q311.6 35.8 311.6 36.5L311.6 36.5Q311.6 37.1 311.7 37.6Q311.9 38.1 312.2 38.4Q312.6 38.6 313.1 38.6ZM319.8 35.9L319.8 35.9L319.8 40L317.9 40L317.9 32.9L319.7 32.9L319.7 34.4Q320.0 33.7 320.5 33.3L320.5 33.3Q321.0 32.8 321.9 32.8L321.9 32.8Q322.7 32.8 323.2 33.1Q323.8 33.5 324.1 34.1Q324.4 34.7 324.4 35.5L324.4 35.5L324.4 40L322.5 40L322.5 35.8Q322.5 35.2 322.1 34.8Q321.8 34.4 321.2 34.4L321.2 34.4Q320.8 34.4 320.5 34.6Q320.1 34.8 320.0 35.1Q319.8 35.4 319.8 35.9Z "/></g><defs><clipPath id="satori_bc-id-5" clip-path="url(#satori_cp-id)"><path x="353" y="21" width="103" height="28" d="M367,21 h75 a14,14 0 0 1 14,14 v0 a14,14 0 0 1 -14,14 h-75 a14,14 0 0 1 -14,-14 v0 a14,14 0 0 1 14,-14"/></clipPath></defs><mask id="satori_om-id-5"><rect x="354" y="22" width="101" height="26" fill="#fff" mask="url(#satori_om-id)"/><path width="103" height="28" fill="none" stroke="#000" stroke-width="2" d="M357.101,25.101 A14,14 0 0 1 367,21 h75 a14,14 0 0 1 14,14 v0 a14,14 0 0 1 -14,14 h-75 a14,14 0 0 1 -14,-14 v0 A14,14 0 0 1 357.101,25.101"/></mask><path x="353" y="21" width="103" height="28" fill="rgba(8,6,14,0.7)" d="M367,21 h75 a14,14 0 0 1 14,14 v0 a14,14 0 0 1 -14,14 h-75 a14,14 0 0 1 -14,-14 v0 a14,14 0 0 1 14,-14" clip-path="url(#satori_cp-id)" mask="url(#satori_om-id)"/><path width="103" height="28" clip-path="url(#satori_bc-id-5)" fill="none" stroke="rgba(100,80,220,0.25)" stroke-width="2" d="M357.101,25.101 A14,14 0 0 1 367,21 h75 a14,14 0 0 1 14,14 v0 a14,14 0 0 1 -14,14 h-75 a14,14 0 0 1 -14,-14 v0 A14,14 0 0 1 357.101,25.101"/><g mask="url(#satori_om-id)" clip-path="url(#satori_cp-id)"><path fill="#ffcc88" d="M373.6 40.1L373.6 40.1Q372.1 40.1 371.3 39.4Q370.4 38.6 370.4 37.2L370.4 37.2L370.4 36.6L372.4 36.6L372.4 37.2Q372.4 37.9 372.7 38.2Q373.0 38.6 373.6 38.6L373.6 38.6Q374.2 38.6 374.5 38.2Q374.8 37.9 374.8 37.2L374.8 37.2L374.8 30.5L376.7 30.5L376.7 37.1Q376.7 38.6 375.9 39.4Q375.1 40.1 373.6 40.1ZM380.4 40.1L380.4 40.1Q379.7 40.1 379.2 39.9Q378.6 39.7 378.3 39.2Q378.0 38.7 378.0 38.0L378.0 38.0Q378.0 37.4 378.2 37.0Q378.5 36.6 378.8 36.4Q379.2 36.1 379.7 36.0Q380.2 35.9 380.7 35.8L380.7 35.8Q381.3 35.8 381.7 35.7Q382.1 35.7 382.3 35.5Q382.4 35.4 382.4 35.2L382.4 35.2L382.4 35.2Q382.4 34.9 382.3 34.7Q382.2 34.4 381.9 34.3Q381.7 34.2 381.3 34.2L381.3 34.2Q380.9 34.2 380.7 34.3Q380.4 34.4 380.2 34.6Q380.1 34.8 380.0 35.0L380.0 35.0L378.2 34.8Q378.4 34.1 378.8 33.7Q379.3 33.3 379.9 33.0Q380.5 32.8 381.3 32.8L381.3 32.8Q381.9 32.8 382.4 33.0Q383.0 33.1 383.4 33.4Q383.8 33.7 384.1 34.1Q384.3 34.6 384.3 35.2L384.3 35.2L384.3 40L382.5 40L382.5 39.0L382.5 39.0Q382.3 39.3 382.0 39.6Q381.7 39.8 381.3 40.0Q380.9 40.1 380.4 40.1ZM380.9 38.8L380.9 38.8Q381.4 38.8 381.7 38.6Q382.1 38.4 382.3 38.1Q382.4 37.8 382.4 37.5L382.4 37.5L382.4 36.7Q382.4 36.8 382.2 36.8Q382.0 36.9 381.8 36.9Q381.6 36.9 381.4 37.0Q381.2 37.0 381.0 37.0L381.0 37.0Q380.7 37.1 380.4 37.2Q380.1 37.3 380.0 37.5Q379.9 37.7 379.9 38.0L379.9 38.0Q379.9 38.2 380.0 38.4Q380.1 38.6 380.4 38.7Q380.6 38.8 380.9 38.8ZM390.1 40L388.0 40L385.3 32.9L387.4 32.9L388.6 36.6Q388.8 37.3 388.9 38.0L388.9 38.0Q389.0 38.3 389.1 38.5L389.1 38.5Q389.1 38.3 389.2 38.0L389.2 38.0Q389.3 37.3 389.6 36.6L389.6 36.6L390.7 32.9L392.7 32.9L390.1 40ZM395.7 40.1L395.7 40.1Q395.1 40.1 394.5 39.9Q394.0 39.7 393.7 39.2Q393.4 38.7 393.4 38.0L393.4 38.0Q393.4 37.4 393.6 37.0Q393.8 36.6 394.2 36.4Q394.6 36.1 395.0 36.0Q395.5 35.9 396.1 35.8L396.1 35.8Q396.7 35.8 397.0 35.7Q397.4 35.7 397.6 35.5Q397.8 35.4 397.8 35.2L397.8 35.2L397.8 35.2Q397.8 34.9 397.6 34.7Q397.5 34.4 397.3 34.3Q397.0 34.2 396.7 34.2L396.7 34.2Q396.3 34.2 396.0 34.3Q395.7 34.4 395.6 34.6Q395.4 34.8 395.3 35.0L395.3 35.0L393.6 34.8Q393.8 34.1 394.2 33.7Q394.6 33.3 395.2 33.0Q395.9 32.8 396.7 32.8L396.7 32.8Q397.2 32.8 397.8 33.0Q398.3 33.1 398.7 33.4Q399.2 33.7 399.4 34.1Q399.7 34.6 399.7 35.2L399.7 35.2L399.7 40L397.9 40L397.9 39.0L397.8 39.0Q397.6 39.3 397.4 39.6Q397.1 39.8 396.7 40.0Q396.3 40.1 395.7 40.1ZM396.3 38.8L396.3 38.8Q396.7 38.8 397.1 38.6Q397.4 38.4 397.6 38.1Q397.8 37.8 397.8 37.5L397.8 37.5L397.8 36.7Q397.7 36.8 397.5 36.8Q397.4 36.9 397.1 36.9Q396.9 36.9 396.7 37.0Q396.5 37.0 396.4 37.0L396.4 37.0Q396.0 37.1 395.8 37.2Q395.5 37.3 395.3 37.5Q395.2 37.7 395.2 38.0L395.2 38.0Q395.2 38.2 395.3 38.4Q395.5 38.6 395.7 38.7Q396.0 38.8 396.3 38.8ZM404.8 40.1L404.8 40.1Q403.7 40.1 402.8 39.8Q402.0 39.4 401.5 38.8Q401.1 38.1 401.0 37.1L401.0 37.1L402.9 37.1Q403.0 37.5 403.2 37.9Q403.4 38.2 403.9 38.3Q404.3 38.5 404.8 38.5L404.8 38.5Q405.3 38.5 405.7 38.4Q406.1 38.2 406.3 37.9Q406.5 37.7 406.5 37.3L406.5 37.3Q406.5 37.0 406.3 36.8Q406.1 36.5 405.8 36.4Q405.4 36.2 404.9 36.1L404.9 36.1L403.8 35.8Q402.6 35.5 402.0 34.9Q401.3 34.3 401.3 33.3L401.3 33.3Q401.3 32.4 401.7 31.8Q402.2 31.1 403.0 30.8Q403.8 30.4 404.8 30.4L404.8 30.4Q405.9 30.4 406.7 30.8Q407.4 31.1 407.9 31.8Q408.3 32.4 408.3 33.2L408.3 33.2L406.5 33.2Q406.4 32.7 406.0 32.4Q405.5 32.0 404.8 32.0L404.8 32.0Q404.3 32.0 404.0 32.2Q403.6 32.3 403.4 32.6Q403.3 32.8 403.3 33.1L403.3 33.1Q403.3 33.5 403.5 33.7Q403.7 34.0 404.0 34.1Q404.4 34.2 404.8 34.3L404.8 34.3L405.6 34.5Q406.2 34.7 406.7 34.9Q407.3 35.1 407.6 35.5Q408.0 35.8 408.2 36.3Q408.5 36.7 408.5 37.3L408.5 37.3Q408.5 38.2 408.0 38.8Q407.6 39.4 406.8 39.8Q406.0 40.1 404.8 40.1ZM413.0 40.1L413.0 40.1Q411.9 40.1 411.1 39.7Q410.4 39.2 409.9 38.4Q409.5 37.6 409.5 36.5L409.5 36.5Q409.5 35.4 409.9 34.6Q410.4 33.7 411.1 33.3Q411.9 32.8 413.0 32.8L413.0 32.8Q413.6 32.8 414.1 33.0Q414.7 33.1 415.1 33.4Q415.5 33.8 415.8 34.2Q416.0 34.6 416.1 35.2L416.1 35.2L414.4 35.5Q414.3 35.2 414.2 35.0Q414.1 34.8 413.9 34.6Q413.7 34.5 413.5 34.4Q413.3 34.3 413.0 34.3L413.0 34.3Q412.5 34.3 412.2 34.6Q411.8 34.9 411.6 35.3Q411.5 35.8 411.5 36.5L411.5 36.5Q411.5 37.1 411.6 37.6Q411.8 38.1 412.2 38.4Q412.5 38.6 413.0 38.6L413.0 38.6Q413.3 38.6 413.5 38.6Q413.7 38.5 413.9 38.3Q414.1 38.1 414.2 37.9Q414.3 37.7 414.4 37.4L414.4 37.4L416.2 37.7Q416.1 38.3 415.8 38.7Q415.5 39.2 415.1 39.5Q414.7 39.8 414.2 40.0Q413.6 40.1 413.0 40.1ZM419.4 40L417.5 40L417.5 32.9L419.3 32.9L419.3 34.1L419.4 34.1Q419.6 33.5 420.0 33.1Q420.5 32.8 421.1 32.8L421.1 32.8Q421.2 32.8 421.4 32.8Q421.6 32.8 421.7 32.9L421.7 32.9L421.7 34.6Q421.6 34.5 421.3 34.5Q421.1 34.5 420.9 34.5L420.9 34.5Q420.5 34.5 420.1 34.7Q419.8 34.9 419.6 35.2Q419.4 35.5 419.4 36.0L419.4 36.0L419.4 40ZM424.7 40L422.8 40L422.8 32.9L424.7 32.9L424.7 40ZM423.7 32.0L423.7 32.0Q423.3 32.0 423.0 31.7Q422.7 31.4 422.7 31.0L422.7 31.0Q422.7 30.6 423.0 30.3Q423.3 30.0 423.7 30.0L423.7 30.0Q424.1 30.0 424.4 30.3Q424.8 30.6 424.8 31.0L424.8 31.0Q424.8 31.4 424.4 31.7Q424.1 32.0 423.7 32.0ZM428.2 42.7L426.3 42.7L426.3 32.9L428.2 32.9L428.2 34.1L428.2 34.1Q428.4 33.8 428.6 33.5Q428.9 33.2 429.3 33.0Q429.7 32.8 430.3 32.8L430.3 32.8Q431.1 32.8 431.7 33.2Q432.4 33.6 432.7 34.4Q433.1 35.3 433.1 36.5L433.1 36.5Q433.1 37.6 432.8 38.5Q432.4 39.3 431.7 39.7Q431.1 40.1 430.3 40.1L430.3 40.1Q429.7 40.1 429.3 39.9Q428.9 39.7 428.6 39.4Q428.4 39.1 428.2 38.9L428.2 38.9L428.2 38.9L428.2 42.7ZM429.7 38.6L429.7 38.6Q430.2 38.6 430.5 38.3Q430.8 38.0 431.0 37.6Q431.2 37.1 431.2 36.5L431.2 36.5Q431.2 35.8 431.0 35.4Q430.8 34.9 430.5 34.6Q430.2 34.3 429.7 34.3L429.7 34.3Q429.2 34.3 428.8 34.6Q428.5 34.9 428.3 35.3Q428.1 35.8 428.1 36.5L428.1 36.5Q428.1 37.1 428.3 37.6Q428.5 38.1 428.8 38.3Q429.2 38.6 429.7 38.6ZM436.7 32.9L438.0 32.9L438.0 34.4L436.7 34.4L436.7 37.9Q436.7 38.3 436.8 38.4Q437.0 38.6 437.3 38.6L437.3 38.6Q437.4 38.6 437.6 38.6Q437.8 38.5 437.9 38.5L437.9 38.5L438.2 39.9Q437.9 40.0 437.6 40.1Q437.2 40.1 437.0 40.1L437.0 40.1Q435.9 40.1 435.3 39.6Q434.8 39.1 434.8 38.1L434.8 38.1L434.8 34.4L433.8 34.4L433.8 32.9L434.8 32.9L434.8 31.2L436.7 31.2L436.7 32.9Z "/></g><defs><clipPath id="satori_bc-id-6" clip-path="url(#satori_cp-id)"><path x="466" y="21" width="92" height="28" d="M480,21 h64 a14,14 0 0 1 14,14 v0 a14,14 0 0 1 -14,14 h-64 a14,14 0 0 1 -14,-14 v0 a14,14 0 0 1 14,-14"/></clipPath></defs><mask id="satori_om-id-6"><rect x="467" y="22" width="90" height="26" fill="#fff" mask="url(#satori_om-id)"/><path width="92" height="28" fill="none" stroke="#000" stroke-width="2" d="M470.101,25.101 A14,14 0 0 1 480,21 h64 a14,14 0 0 1 14,14 v0 a14,14 0 0 1 -14,14 h-64 a14,14 0 0 1 -14,-14 v0 A14,14 0 0 1 470.101,25.101"/></mask><path x="466" y="21" width="92" height="28" fill="rgba(8,6,14,0.7)" d="M480,21 h64 a14,14 0 0 1 14,14 v0 a14,14 0 0 1 -14,14 h-64 a14,14 0 0 1 -14,-14 v0 a14,14 0 0 1 14,-14" clip-path="url(#satori_cp-id)" mask="url(#satori_om-id)"/><path width="92" height="28" clip-path="url(#satori_bc-id-6)" fill="none" stroke="rgba(100,80,220,0.25)" stroke-width="2" d="M470.101,25.101 A14,14 0 0 1 480,21 h64 a14,14 0 0 1 14,14 v0 a14,14 0 0 1 -14,14 h-64 a14,14 0 0 1 -14,-14 v0 A14,14 0 0 1 470.101,25.101"/><g mask="url(#satori_om-id)" clip-path="url(#satori_cp-id)"><path fill="#ffb088" d="M485.5 40L483.3 40L486.5 30.5L489.1 30.5L492.4 40L490.2 40L489.5 37.8L486.2 37.8L485.5 40ZM486.6 36.3L489.0 36.3L488.7 35.4Q488.5 34.6 488.2 33.5L488.2 33.5Q488.0 32.8 487.8 32.1L487.8 32.1Q487.6 32.8 487.4 33.5L487.4 33.5Q487.2 34.6 486.9 35.4L486.9 35.4L486.6 36.3ZM497.0 40.1L497.0 40.1Q495.9 40.1 495.1 39.8Q494.2 39.4 493.7 38.8Q493.3 38.1 493.2 37.1L493.2 37.1L495.1 37.1Q495.2 37.5 495.4 37.9Q495.7 38.2 496.1 38.3Q496.5 38.5 497.0 38.5L497.0 38.5Q497.5 38.5 497.9 38.4Q498.3 38.2 498.5 37.9Q498.7 37.7 498.7 37.3L498.7 37.3Q498.7 37.0 498.5 36.8Q498.3 36.5 498.0 36.4Q497.6 36.2 497.1 36.1L497.1 36.1L496.1 35.8Q494.9 35.5 494.2 34.9Q493.5 34.3 493.5 33.3L493.5 33.3Q493.5 32.4 494.0 31.8Q494.4 31.1 495.2 30.8Q496.0 30.4 497.1 30.4L497.1 30.4Q498.1 30.4 498.9 30.8Q499.7 31.1 500.1 31.8Q500.5 32.4 500.6 33.2L500.6 33.2L498.7 33.2Q498.6 32.7 498.2 32.4Q497.8 32.0 497.0 32.0L497.0 32.0Q496.5 32.0 496.2 32.2Q495.8 32.3 495.7 32.6Q495.5 32.8 495.5 33.1L495.5 33.1Q495.5 33.5 495.7 33.7Q495.9 34.0 496.3 34.1Q496.6 34.2 497.0 34.3L497.0 34.3L497.9 34.5Q498.5 34.7 499.0 34.9Q499.5 35.1 499.9 35.5Q500.3 35.8 500.5 36.3Q500.7 36.7 500.7 37.3L500.7 37.3Q500.7 38.2 500.2 38.8Q499.8 39.4 499.0 39.8Q498.2 40.1 497.0 40.1ZM504.0 40L502.1 40L502.1 30.5L505.8 30.5Q506.8 30.5 507.6 31.0Q508.4 31.4 508.7 32.1Q509.1 32.8 509.1 33.7L509.1 33.7Q509.1 34.7 508.7 35.4Q508.3 36.1 507.6 36.5Q506.8 36.9 505.7 36.9L505.7 36.9L504.0 36.9L504.0 40ZM504.0 32.1L504.0 35.3L505.4 35.3Q506.0 35.3 506.4 35.1Q506.8 34.9 507.0 34.6Q507.1 34.2 507.1 33.7Q507.1 33.3 507.0 32.9Q506.8 32.5 506.4 32.3Q506.0 32.1 505.4 32.1L505.4 32.1L504.0 32.1ZM511.8 40.1L511.8 40.1Q511.3 40.1 511.0 39.8Q510.7 39.5 510.7 39.0L510.7 39.0Q510.7 38.6 511.0 38.3Q511.3 37.9 511.8 37.9L511.8 37.9Q512.3 37.9 512.6 38.3Q512.9 38.6 512.9 39.0L512.9 39.0Q512.9 39.5 512.6 39.8Q512.3 40.1 511.8 40.1ZM516.8 40L514.8 40L514.8 30.5L517.0 30.5L520.0 35.3Q520.2 35.7 520.5 36.1Q520.7 36.6 520.9 37.1L520.9 37.1Q521.1 37.3 521.2 37.6L521.2 37.6Q521.2 37.4 521.1 37.1L521.1 37.1Q521.1 36.6 521.1 36.0Q521.1 35.5 521.1 35.1L521.1 35.1L521.1 30.5L523.0 30.5L523.0 40L520.9 40L518.2 35.7Q517.9 35.2 517.6 34.7Q517.3 34.2 517.1 33.7L517.1 33.7Q516.9 33.4 516.7 32.9L516.7 32.9Q516.7 33.3 516.7 33.7L516.7 33.7Q516.8 34.3 516.8 34.8Q516.8 35.3 516.8 35.7L516.8 35.7L516.8 40ZM531.1 40L524.7 40L524.7 30.5L531.1 30.5L531.1 32.1L526.7 32.1L526.7 34.4L530.7 34.4L530.7 36.0L526.7 36.0L526.7 38.4L531.1 38.4L531.1 40ZM535.2 32.1L532.3 32.1L532.3 30.5L540.0 30.5L540.0 32.1L537.1 32.1L537.1 40L535.2 40L535.2 32.1Z "/></g><defs><clipPath id="satori_bc-id-7" clip-path="url(#satori_cp-id)"><path x="568" y="21" width="110" height="28" d="M582,21 h82 a14,14 0 0 1 14,14 v0 a14,14 0 0 1 -14,14 h-82 a14,14 0 0 1 -14,-14 v0 a14,14 0 0 1 14,-14"/></clipPath></defs><mask id="satori_om-id-7"><rect x="569" y="22" width="108" height="26" fill="#fff" mask="url(#satori_om-id)"/><path width="110" height="28" fill="none" stroke="#000" stroke-width="2" d="M572.101,25.101 A14,14 0 0 1 582,21 h82 a14,14 0 0 1 14,14 v0 a14,14 0 0 1 -14,14 h-82 a14,14 0 0 1 -14,-14 v0 A14,14 0 0 1 572.101,25.101"/></mask><path x="568" y="21" width="110" height="28" fill="rgba(8,6,14,0.7)" d="M582,21 h82 a14,14 0 0 1 14,14 v0 a14,14 0 0 1 -14,14 h-82 a14,14 0 0 1 -14,-14 v0 a14,14 0 0 1 14,-14" clip-path="url(#satori_cp-id)" mask="url(#satori_om-id)"/><path width="110" height="28" clip-path="url(#satori_bc-id-7)" fill="none" stroke="rgba(100,80,220,0.25)" stroke-width="2" d="M572.101,25.101 A14,14 0 0 1 582,21 h82 a14,14 0 0 1 14,14 v0 a14,14 0 0 1 -14,14 h-82 a14,14 0 0 1 -14,-14 v0 A14,14 0 0 1 572.101,25.101"/><g mask="url(#satori_om-id)" clip-path="url(#satori_cp-id)"><path fill="#e8c8ff" d="M587.8 40L585.9 40L585.9 30.5L589.5 30.5Q590.6 30.5 591.4 31.0Q592.1 31.4 592.5 32.1Q592.9 32.8 592.9 33.7L592.9 33.7Q592.9 34.7 592.5 35.4Q592.1 36.1 591.4 36.5Q590.6 36.9 589.5 36.9L589.5 36.9L587.8 36.9L587.8 40ZM587.8 32.1L587.8 35.3L589.2 35.3Q589.8 35.3 590.2 35.1Q590.6 34.9 590.7 34.6Q590.9 34.2 590.9 33.7Q590.9 33.3 590.7 32.9Q590.6 32.5 590.2 32.3Q589.8 32.1 589.2 32.1L589.2 32.1L587.8 32.1ZM597.4 40.1L597.4 40.1Q596.3 40.1 595.6 39.7Q594.8 39.2 594.4 38.4Q593.9 37.6 593.9 36.5L593.9 36.5Q593.9 35.4 594.4 34.6Q594.8 33.7 595.6 33.3Q596.3 32.8 597.4 32.8L597.4 32.8Q598.5 32.8 599.3 33.3Q600.0 33.7 600.5 34.6Q600.9 35.4 600.9 36.5L600.9 36.5Q600.9 37.6 600.5 38.4Q600.0 39.2 599.3 39.7Q598.5 40.1 597.4 40.1ZM597.4 38.6L597.4 38.6Q597.9 38.6 598.3 38.4Q598.6 38.1 598.8 37.6Q598.9 37.1 598.9 36.5L598.9 36.5Q598.9 35.8 598.8 35.4Q598.6 34.9 598.3 34.6Q597.9 34.3 597.4 34.3L597.4 34.3Q596.9 34.3 596.6 34.6Q596.2 34.9 596.1 35.4Q595.9 35.8 595.9 36.5L595.9 36.5Q595.9 37.1 596.1 37.6Q596.2 38.1 596.6 38.4Q596.9 38.6 597.4 38.6ZM605.0 40.1L605.0 40.1Q604.2 40.1 603.5 39.9Q602.8 39.7 602.4 39.2Q602.0 38.7 601.9 38.1L601.9 38.1L603.7 37.8Q603.8 38.2 604.2 38.5Q604.5 38.7 605.1 38.7L605.1 38.7Q605.6 38.7 605.9 38.5Q606.3 38.3 606.3 38.0L606.3 38.0Q606.3 37.7 606.0 37.6Q605.8 37.4 605.3 37.3L605.3 37.3L604.1 37.0Q603.1 36.8 602.6 36.3Q602.1 35.8 602.1 35.0L602.1 35.0Q602.1 34.3 602.4 33.8Q602.8 33.3 603.5 33.1Q604.2 32.8 605.1 32.8L605.1 32.8Q605.9 32.8 606.5 33.0Q607.1 33.3 607.5 33.7Q607.9 34.1 608.0 34.7L608.0 34.7L606.3 35.0Q606.2 34.6 605.9 34.4Q605.6 34.2 605.1 34.2L605.1 34.2Q604.6 34.2 604.3 34.4Q604.0 34.6 604.0 34.9L604.0 34.9Q604.0 35.2 604.2 35.4Q604.4 35.5 604.9 35.6L604.9 35.6L606.2 35.9Q607.2 36.1 607.7 36.6Q608.2 37.0 608.2 37.8L608.2 37.8Q608.2 38.5 607.8 39.0Q607.4 39.6 606.7 39.8Q606.0 40.1 605.0 40.1ZM611.7 32.9L613.0 32.9L613.0 34.4L611.7 34.4L611.7 37.9Q611.7 38.3 611.8 38.4Q612.0 38.6 612.3 38.6L612.3 38.6Q612.4 38.6 612.6 38.6Q612.8 38.5 612.9 38.5L612.9 38.5L613.2 39.9Q612.9 40.0 612.6 40.1Q612.3 40.1 612.0 40.1L612.0 40.1Q610.9 40.1 610.3 39.6Q609.8 39.1 609.8 38.1L609.8 38.1L609.8 34.4L608.8 34.4L608.8 32.9L609.8 32.9L609.8 31.2L611.7 31.2L611.7 32.9ZM617.4 42.8L617.4 42.8Q616.5 42.8 615.9 42.6Q615.2 42.4 614.8 42.0Q614.4 41.6 614.2 41.1L614.2 41.1L615.8 40.6Q615.9 40.8 616.1 41.0Q616.3 41.2 616.6 41.3Q616.9 41.4 617.4 41.4L617.4 41.4Q618.1 41.4 618.5 41.1Q619.0 40.8 619.0 40.1L619.0 40.1L619.0 38.7L618.8 38.7Q618.7 39.0 618.4 39.3Q618.2 39.6 617.8 39.7Q617.4 39.9 616.8 39.9L616.8 39.9Q616.0 39.9 615.4 39.5Q614.7 39.1 614.3 38.4Q614.0 37.6 614.0 36.4L614.0 36.4Q614.0 35.2 614.3 34.4Q614.7 33.6 615.4 33.2Q616.1 32.8 616.8 32.8L616.8 32.8Q617.4 32.8 617.8 33.0Q618.3 33.2 618.5 33.5Q618.8 33.8 618.9 34.1L618.9 34.1L619.0 34.1L619.0 32.9L620.8 32.9L620.8 39.9Q620.8 40.9 620.4 41.5Q620.0 42.2 619.2 42.5Q618.4 42.8 617.4 42.8ZM617.4 38.5L617.4 38.5Q617.9 38.5 618.3 38.2Q618.6 38.0 618.8 37.5Q619.0 37.1 619.0 36.4L619.0 36.4Q619.0 35.8 618.8 35.3Q618.6 34.9 618.3 34.6Q617.9 34.3 617.4 34.3L617.4 34.3Q616.9 34.3 616.6 34.6Q616.3 34.9 616.1 35.3Q615.9 35.8 615.9 36.4L615.9 36.4Q615.9 37.0 616.1 37.5Q616.3 38.0 616.6 38.2Q616.9 38.5 617.4 38.5ZM624.4 40L622.5 40L622.5 32.9L624.3 32.9L624.3 34.1L624.4 34.1Q624.6 33.5 625.0 33.1Q625.5 32.8 626.1 32.8L626.1 32.8Q626.2 32.8 626.4 32.8Q626.6 32.8 626.7 32.9L626.7 32.9L626.7 34.6Q626.6 34.5 626.3 34.5Q626.1 34.5 625.9 34.5L625.9 34.5Q625.5 34.5 625.1 34.7Q624.8 34.9 624.6 35.2Q624.4 35.5 624.4 36.0L624.4 36.0L624.4 40ZM631.0 40.1L631.0 40.1Q629.9 40.1 629.1 39.7Q628.3 39.3 627.9 38.4Q627.5 37.6 627.5 36.5L627.5 36.5Q627.5 35.4 627.9 34.6Q628.3 33.7 629.1 33.3Q629.8 32.8 630.9 32.8L630.9 32.8Q631.6 32.8 632.2 33.0Q632.8 33.3 633.2 33.7Q633.7 34.2 633.9 34.8Q634.2 35.5 634.2 36.4L634.2 36.4L634.2 36.9L629.3 36.9Q629.4 37.5 629.6 37.9L629.6 37.9Q629.8 38.3 630.1 38.5Q630.5 38.7 631.0 38.7L631.0 38.7Q631.3 38.7 631.6 38.6Q631.9 38.5 632.1 38.3Q632.3 38.1 632.4 37.9L632.4 37.9L634.1 38.2Q633.9 38.8 633.5 39.2Q633.1 39.7 632.4 39.9Q631.8 40.1 631.0 40.1ZM629.4 35.8L629.4 35.8L632.4 35.8Q632.3 35.4 632.2 35.1L632.2 35.1Q632.0 34.7 631.7 34.5Q631.4 34.2 630.9 34.2L630.9 34.2Q630.4 34.2 630.0 34.5Q629.7 34.7 629.5 35.1L629.5 35.1Q629.4 35.4 629.4 35.8ZM639.0 40.1L639.0 40.1Q637.9 40.1 637.0 39.8Q636.2 39.4 635.7 38.8Q635.3 38.1 635.2 37.1L635.2 37.1L637.1 37.1Q637.2 37.5 637.4 37.9Q637.6 38.2 638.1 38.3Q638.5 38.5 639.0 38.5L639.0 38.5Q639.5 38.5 639.9 38.4Q640.3 38.2 640.5 37.9Q640.7 37.7 640.7 37.3L640.7 37.3Q640.7 37.0 640.5 36.8Q640.3 36.5 640.0 36.4Q639.6 36.2 639.1 36.1L639.1 36.1L638.0 35.8Q636.8 35.5 636.2 34.9Q635.5 34.3 635.5 33.3L635.5 33.3Q635.5 32.4 635.9 31.8Q636.4 31.1 637.2 30.8Q638.0 30.4 639.0 30.4L639.0 30.4Q640.1 30.4 640.9 30.8Q641.6 31.1 642.1 31.8Q642.5 32.4 642.5 33.2L642.5 33.2L640.7 33.2Q640.6 32.7 640.2 32.4Q639.7 32.0 639.0 32.0L639.0 32.0Q638.5 32.0 638.2 32.2Q637.8 32.3 637.7 32.6Q637.5 32.8 637.5 33.1L637.5 33.1Q637.5 33.5 637.7 33.7Q637.9 34.0 638.2 34.1Q638.6 34.2 639.0 34.3L639.0 34.3L639.8 34.5Q640.4 34.7 640.9 34.9Q641.5 35.1 641.8 35.5Q642.2 35.8 642.4 36.3Q642.7 36.7 642.7 37.3L642.7 37.3Q642.7 38.2 642.2 38.8Q641.8 39.4 641.0 39.8Q640.2 40.1 639.0 40.1ZM648.2 40.1L648.2 40.1Q647.0 40.1 646.0 39.6Q645.0 39.0 644.4 37.9Q643.8 36.8 643.8 35.3L643.8 35.3Q643.8 33.7 644.4 32.6Q645.0 31.6 646.0 31.0Q647.0 30.4 648.2 30.4L648.2 30.4Q649.5 30.4 650.5 31.0Q651.5 31.6 652.0 32.6Q652.6 33.7 652.6 35.3L652.6 35.3Q652.6 36.8 652.0 37.9L652.0 37.9Q651.7 38.6 651.1 39.1L651.1 39.1L652.5 40.8L650.7 40.8L649.9 39.8Q649.1 40.1 648.2 40.1ZM648.8 38.3L647.6 36.8L649.3 36.8L650.0 37.6Q650.2 37.4 650.3 37.0L650.3 37.0Q650.7 36.3 650.7 35.3L650.7 35.3Q650.7 34.3 650.3 33.6Q650.0 32.9 649.5 32.5Q648.9 32.1 648.2 32.1L648.2 32.1Q647.5 32.1 646.9 32.5Q646.4 32.9 646.1 33.6Q645.8 34.3 645.8 35.3L645.8 35.3Q645.8 36.3 646.1 37.0Q646.4 37.7 646.9 38.0Q647.5 38.4 648.2 38.4L648.2 38.4Q648.5 38.4 648.8 38.3L648.8 38.3ZM660.2 40L654.2 40L654.2 30.5L656.1 30.5L656.1 38.4L660.2 38.4L660.2 40Z "/></g><defs><clipPath id="satori_bc-id-8" clip-path="url(#satori_cp-id)"><path x="688" y="21" width="86" height="28" d="M702,21 h58 a14,14 0 0 1 14,14 v0 a14,14 0 0 1 -14,14 h-58 a14,14 0 0 1 -14,-14 v0 a14,14 0 0 1 14,-14"/></clipPath></defs><mask id="satori_om-id-8"><rect x="689" y="22" width="84" height="26" fill="#fff" mask="url(#satori_om-id)"/><path width="86" height="28" fill="none" stroke="#000" stroke-width="2" d="M692.101,25.101 A14,14 0 0 1 702,21 h58 a14,14 0 0 1 14,14 v0 a14,14 0 0 1 -14,14 h-58 a14,14 0 0 1 -14,-14 v0 A14,14 0 0 1 692.101,25.101"/></mask><path x="688" y="21" width="86" height="28" fill="rgba(8,6,14,0.7)" d="M702,21 h58 a14,14 0 0 1 14,14 v0 a14,14 0 0 1 -14,14 h-58 a14,14 0 0 1 -14,-14 v0 a14,14 0 0 1 14,-14" clip-path="url(#satori_cp-id)" mask="url(#satori_om-id)"/><path width="86" height="28" clip-path="url(#satori_bc-id-8)" fill="none" stroke="rgba(100,80,220,0.25)" stroke-width="2" d="M692.101,25.101 A14,14 0 0 1 702,21 h58 a14,14 0 0 1 14,14 v0 a14,14 0 0 1 -14,14 h-58 a14,14 0 0 1 -14,-14 v0 A14,14 0 0 1 692.101,25.101"/><g mask="url(#satori_om-id)" clip-path="url(#satori_cp-id)"><path fill="#7ee7ff" d="M707.8 40L705.9 40L705.9 30.5L709.5 30.5Q710.6 30.5 711.4 30.9Q712.1 31.3 712.5 32.0Q712.9 32.7 712.9 33.6Q712.9 34.6 712.5 35.2Q712.1 35.9 711.4 36.3L711.4 36.3Q711.3 36.3 711.3 36.3L711.3 36.3L713.3 40L711.1 40L709.3 36.6L707.8 36.6L707.8 40ZM707.8 32.1L707.8 35.1L709.2 35.1Q709.8 35.1 710.2 34.9Q710.5 34.7 710.7 34.4Q710.9 34.1 710.9 33.6L710.9 33.6Q710.9 33.1 710.7 32.8Q710.5 32.5 710.2 32.3Q709.8 32.1 709.2 32.1L709.2 32.1L707.8 32.1ZM717.6 40.1L717.6 40.1Q716.5 40.1 715.7 39.7Q714.9 39.3 714.5 38.4Q714.1 37.6 714.1 36.5L714.1 36.5Q714.1 35.4 714.5 34.6Q714.9 33.7 715.7 33.3Q716.4 32.8 717.5 32.8L717.5 32.8Q718.2 32.8 718.8 33.0Q719.4 33.3 719.8 33.7Q720.3 34.2 720.5 34.8Q720.8 35.5 720.8 36.4L720.8 36.4L720.8 36.9L715.9 36.9Q716.0 37.5 716.1 37.9L716.1 37.9Q716.3 38.3 716.7 38.5Q717.1 38.7 717.6 38.7L717.6 38.7Q717.9 38.7 718.2 38.6Q718.5 38.5 718.7 38.3Q718.9 38.1 719.0 37.9L719.0 37.9L720.7 38.2Q720.5 38.8 720.1 39.2Q719.7 39.7 719.0 39.9Q718.4 40.1 717.6 40.1ZM715.9 35.8L715.9 35.8L719.0 35.8Q718.9 35.4 718.8 35.1L718.8 35.1Q718.6 34.7 718.3 34.5Q718.0 34.2 717.5 34.2L717.5 34.2Q717.0 34.2 716.6 34.5Q716.3 34.7 716.1 35.1L716.1 35.1Q716.0 35.4 715.9 35.8ZM724.1 40.1L724.1 40.1Q723.4 40.1 722.9 39.9Q722.3 39.7 722.0 39.2Q721.7 38.7 721.7 38.0L721.7 38.0Q721.7 37.4 721.9 37.0Q722.2 36.6 722.5 36.4Q722.9 36.1 723.4 36.0Q723.9 35.9 724.4 35.8L724.4 35.8Q725.0 35.8 725.4 35.7Q725.8 35.7 725.9 35.5Q726.1 35.4 726.1 35.2L726.1 35.2L726.1 35.2Q726.1 34.9 726.0 34.7Q725.9 34.4 725.6 34.3Q725.4 34.2 725.0 34.2L725.0 34.2Q724.6 34.2 724.4 34.3Q724.1 34.4 723.9 34.6Q723.7 34.8 723.7 35.0L723.7 35.0L721.9 34.8Q722.1 34.1 722.5 33.7Q723.0 33.3 723.6 33.0Q724.2 32.8 725.0 32.8L725.0 32.8Q725.6 32.8 726.1 33.0Q726.7 33.1 727.1 33.4Q727.5 33.7 727.8 34.1Q728.0 34.6 728.0 35.2L728.0 35.2L728.0 40L726.2 40L726.2 39.0L726.2 39.0Q726.0 39.3 725.7 39.6Q725.4 39.8 725.0 40.0Q724.6 40.1 724.1 40.1ZM724.6 38.8L724.6 38.8Q725.1 38.8 725.4 38.6Q725.7 38.4 725.9 38.1Q726.1 37.8 726.1 37.5L726.1 37.5L726.1 36.7Q726.0 36.8 725.9 36.8Q725.7 36.9 725.5 36.9Q725.3 36.9 725.1 37.0Q724.9 37.0 724.7 37.0L724.7 37.0Q724.4 37.1 724.1 37.2Q723.8 37.3 723.7 37.5Q723.5 37.7 723.5 38.0L723.5 38.0Q723.5 38.2 723.7 38.4Q723.8 38.6 724.1 38.7Q724.3 38.8 724.6 38.8ZM732.8 40.1L732.8 40.1Q731.7 40.1 731.0 39.7Q730.2 39.2 729.8 38.4Q729.3 37.6 729.3 36.5L729.3 36.5Q729.3 35.4 729.8 34.6Q730.2 33.7 731.0 33.3Q731.7 32.8 732.8 32.8L732.8 32.8Q733.4 32.8 734.0 33.0Q734.5 33.1 734.9 33.4Q735.3 33.8 735.6 34.2Q735.9 34.6 736.0 35.2L736.0 35.2L734.2 35.5Q734.1 35.2 734.0 35.0Q733.9 34.8 733.7 34.6Q733.6 34.5 733.3 34.4Q733.1 34.3 732.8 34.3L732.8 34.3Q732.3 34.3 732.0 34.6Q731.6 34.9 731.5 35.3Q731.3 35.8 731.3 36.5L731.3 36.5Q731.3 37.1 731.5 37.6Q731.6 38.1 732.0 38.4Q732.3 38.6 732.8 38.6L732.8 38.6Q733.1 38.6 733.3 38.6Q733.6 38.5 733.7 38.3Q733.9 38.1 734.0 37.9Q734.2 37.7 734.2 37.4L734.2 37.4L736.0 37.7Q735.9 38.3 735.6 38.7Q735.3 39.2 734.9 39.5Q734.5 39.8 734.0 40.0Q733.5 40.1 732.8 40.1ZM739.5 32.9L740.8 32.9L740.8 34.4L739.5 34.4L739.5 37.9Q739.5 38.3 739.6 38.4Q739.8 38.6 740.1 38.6L740.1 38.6Q740.2 38.6 740.4 38.6Q740.6 38.5 740.7 38.5L740.7 38.5L741.0 39.9Q740.7 40.0 740.4 40.1Q740.1 40.1 739.8 40.1L739.8 40.1Q738.7 40.1 738.1 39.6Q737.6 39.1 737.6 38.1L737.6 38.1L737.6 34.4L736.6 34.4L736.6 32.9L737.6 32.9L737.6 31.2L739.5 31.2L739.5 32.9ZM743.4 40.1L743.4 40.1Q742.9 40.1 742.6 39.8Q742.3 39.5 742.3 39.0L742.3 39.0Q742.3 38.6 742.6 38.3Q742.9 37.9 743.4 37.9L743.4 37.9Q743.9 37.9 744.2 38.3Q744.5 38.6 744.5 39.0L744.5 39.0Q744.5 39.5 744.2 39.8Q743.9 40.1 743.4 40.1ZM746.4 40.3L746.4 32.9L748.3 32.9L748.3 40.4Q748.3 41.2 748.0 41.7Q747.7 42.2 747.1 42.4Q746.5 42.7 745.7 42.7L745.7 42.7L745.3 42.7L745.3 41.2L745.5 41.2Q746.0 41.2 746.2 40.9Q746.4 40.7 746.4 40.3L746.4 40.3ZM747.3 32.0L747.3 32.0Q746.9 32.0 746.6 31.7Q746.3 31.4 746.3 31.0L746.3 31.0Q746.3 30.6 746.6 30.3Q746.9 30.0 747.3 30.0L747.3 30.0Q747.8 30.0 748.1 30.3Q748.4 30.6 748.4 31.0L748.4 31.0Q748.4 31.4 748.1 31.7Q747.8 32.0 747.3 32.0ZM752.7 40.1L752.7 40.1Q751.9 40.1 751.2 39.9Q750.6 39.7 750.1 39.2Q749.7 38.7 749.6 38.1L749.6 38.1L751.4 37.8Q751.5 38.2 751.9 38.5Q752.2 38.7 752.8 38.7L752.8 38.7Q753.3 38.7 753.7 38.5Q754.0 38.3 754.0 38.0L754.0 38.0Q754.0 37.7 753.7 37.6Q753.5 37.4 753.1 37.3L753.1 37.3L751.8 37.0Q750.8 36.8 750.3 36.3Q749.8 35.8 749.8 35.0L749.8 35.0Q749.8 34.3 750.2 33.8Q750.5 33.3 751.2 33.1Q751.9 32.8 752.8 32.8L752.8 32.8Q753.6 32.8 754.2 33.0Q754.8 33.3 755.2 33.7Q755.6 34.1 755.7 34.7L755.7 34.7L754.0 35.0Q753.9 34.6 753.6 34.4Q753.3 34.2 752.8 34.2L752.8 34.2Q752.3 34.2 752.0 34.4Q751.7 34.6 751.7 34.9L751.7 34.9Q751.7 35.2 751.9 35.4Q752.1 35.5 752.6 35.6L752.6 35.6L753.9 35.9Q754.9 36.1 755.4 36.6Q755.9 37.0 755.9 37.8L755.9 37.8Q755.9 38.5 755.5 39.0Q755.1 39.6 754.4 39.8Q753.7 40.1 752.7 40.1Z "/></g></svg>