<!-- Generated by readme-aura https://github.com/collectioneur/readme-aura -->
<svg width="800" height="100" viewBox="0 0 800 100" xmlns="http://www.w3.org/2000/svg"><defs><clipPath id="satori_bc-id"><path x="0" y="0" width="800" height="100" d="M16,0 h768 a16,16 0 0 1 16,16 v68 a16,16 0 0 1 -16,16 h-768 a16,16 0 0 1 -16,-16 v-68 a16,16 0 0 1 16,-16"/></clipPath></defs><clipPath id="satori_cp-id"><path x="0" y="0" width="800" height="100" d="M16,0 h768 a16,16 0 0 1 16,16 v68 a16,16 0 0 1 -16,16 h-768 a16,16 0 0 1 -16,-16 v-68 a16,16 0 0 1 16,-16"/></clipPath><mask id="satori_om-id"><rect x="1" y="1" width="798" height="98" fill="#fff"/><path width="800" height="100" fill="none" stroke="#000" stroke-width="2" d="M4.686,4.686 A16,16 0 0 1 16,0 h768 a16,16 0 0 1 16,16 v68 a16,16 0 0 1 -16,16 h-768 a16,16 0 0 1 -16,-16 v-68 A16,16 0 0 1 4.686,4.686"/></mask><path x="0" y="0" width="800" height="100" fill="#06060a" d="M16,0 h768 a16,16 0 0 1 16,16 v68 a16,16 0 0 1 -16,16 h-768 a16,16 0 0 1 -16,-16 v-68 a16,16 0 0 1 16,-16"/><path width="800" height="100" clip-path="url(#satori_bc-id)" fill="none" stroke="rgba(110,80,220,0.15)" stroke-width="2" d="M4.686,4.686 A16,16 0 0 1 16,0 h768 a16,16 0 0 1 16,16 v68 a16,16 0 0 1 -16,16 h-768 a16,16 0 0 1 -16,-16 v-68 A16,16 0 0 1 4.686,4.686"/><mask id="satori_om-id-0"><rect x="256" y="28" width="289" height="45" fill="#fff" mask="url(#satori_om-id)"/></mask><mask id="satori_om-id-0-0"><rect x="256" y="28" width="45" height="45" fill="#fff" mask="url(#satori_om-id)"/></mask><mask id="satori_om-id-0-0-0"><rect x="256" y="28" width="44" height="45" fill="#fff" mask="url(#satori_om-id)"/></mask><mask id="satori_om-id-0-0-0-0"><rect x="257" y="28" width="42" height="29" fill="#fff" mask="url(#satori_om-id)"/></mask><g mask="url(#satori_om-id)" clip-path="url(#satori_cp-id)"><path fill="#ffffff" d="M261.9 33.5L265.8 33.5L265.8 51L262.2 51L262.2 36.7L262.1 36.7L258.1 39.5L258.1 36.2L261.9 33.5ZM281.2 51L268.8 51L268.8 48.4L275.0 42.6Q275.8 41.8 276.3 41.2Q276.9 40.6 277.2 40.0Q277.4 39.4 277.4 38.7L277.4 38.7Q277.4 37.9 277.1 37.3Q276.7 36.8 276.1 36.5Q275.5 36.2 274.7 36.2L274.7 36.2Q273.9 36.2 273.3 36.5Q272.7 36.8 272.4 37.4Q272.1 38.0 272.1 38.9L272.1 38.9L268.6 38.9Q268.6 37.2 269.4 35.9Q270.2 34.7 271.6 34.0Q273.0 33.3 274.8 33.3L274.8 33.3Q276.6 33.3 278 34.0Q279.4 34.6 280.2 35.8Q280.9 36.9 280.9 38.5L280.9 38.5Q280.9 39.4 280.5 40.4Q280.2 41.3 279.2 42.5Q278.2 43.7 276.4 45.3L276.4 45.3L273.8 47.9L273.8 48.1L281.2 48.1L281.2 51ZM290.3 51.2L290.3 51.2Q288.3 51.2 286.8 50.6Q285.3 49.9 284.4 48.8Q283.6 47.7 283.6 46.3L283.6 46.3Q283.6 45.2 284.1 44.3Q284.6 43.4 285.4 42.8Q286.3 42.2 287.3 42.0L287.3 42.0L287.3 41.9Q285.9 41.6 285.1 40.5Q284.2 39.4 284.2 38.0L284.2 38.0Q284.2 36.6 285.0 35.6Q285.8 34.5 287.1 33.9Q288.5 33.3 290.3 33.3L290.3 33.3Q292.0 33.3 293.4 33.9Q294.8 34.5 295.6 35.6Q296.4 36.6 296.4 38.0L296.4 38.0Q296.4 39.4 295.5 40.5Q294.6 41.6 293.2 41.9L293.2 41.9L293.2 42.0Q294.3 42.2 295.1 42.8Q296.0 43.4 296.5 44.3Q297.0 45.2 297.0 46.3L297.0 46.3Q297.0 47.7 296.1 48.8Q295.3 49.9 293.7 50.6Q292.2 51.2 290.3 51.2ZM290.3 48.6L290.3 48.6Q291.2 48.6 291.8 48.3Q292.5 47.9 292.9 47.4Q293.3 46.8 293.3 46.0L293.3 46.0Q293.3 45.3 292.9 44.7Q292.5 44.1 291.8 43.7Q291.1 43.4 290.3 43.4L290.3 43.4Q289.4 43.4 288.7 43.7Q288.1 44.1 287.7 44.7Q287.3 45.2 287.3 46.0L287.3 46.0Q287.3 46.8 287.7 47.4Q288.0 47.9 288.7 48.3Q289.4 48.6 290.3 48.6ZM290.3 40.8L290.3 40.8Q291.0 40.8 291.6 40.5Q292.2 40.1 292.5 39.6Q292.8 39.1 292.8 38.4L292.8 38.4Q292.8 37.7 292.5 37.1Q292.2 36.6 291.6 36.3Q291.0 36.0 290.3 36.0L290.3 36.0Q289.5 36.0 288.9 36.3Q288.3 36.6 288.0 37.1Q287.7 37.7 287.7 38.4L287.7 38.4Q287.7 39.1 288.0 39.6Q288.3 40.1 288.9 40.5Q289.5 40.8 290.3 40.8Z "/></g><mask id="satori_om-id-0-0-0-1"><rect x="256" y="61" width="44" height="12" fill="#fff" mask="url(#satori_om-id)"/></mask><g mask="url(#satori_om-id)" clip-path="url(#satori_cp-id)"><path fill="#b8860b" d="M259.3 71.1L259.3 71.1Q258.5 71.1 257.8 70.8Q257.2 70.6 256.8 70.0Q256.4 69.5 256.4 68.7L256.4 68.7L257.9 68.7Q257.9 69.1 258.1 69.4Q258.3 69.6 258.6 69.7Q258.9 69.8 259.3 69.8L259.3 69.8Q259.7 69.8 260.0 69.7Q260.3 69.6 260.5 69.4Q260.6 69.2 260.6 68.9L260.6 68.9Q260.6 68.7 260.5 68.5Q260.3 68.3 260.1 68.2Q259.8 68.1 259.4 68.0L259.4 68.0L258.6 67.8Q257.7 67.6 257.1 67.1Q256.6 66.6 256.6 65.8L256.6 65.8Q256.6 65.2 257.0 64.7Q257.3 64.2 257.9 63.9Q258.6 63.6 259.3 63.6L259.3 63.6Q260.2 63.6 260.8 63.9Q261.4 64.2 261.7 64.7Q262.0 65.2 262.0 65.8L262.0 65.8L260.6 65.8Q260.6 65.4 260.2 65.1Q259.9 64.9 259.3 64.9L259.3 64.9Q259.0 64.9 258.7 65.0Q258.4 65.1 258.3 65.3Q258.1 65.5 258.1 65.7L258.1 65.7Q258.1 66.0 258.3 66.2Q258.5 66.3 258.7 66.5Q259.0 66.6 259.3 66.6L259.3 66.6L260.0 66.8Q260.4 66.9 260.8 67.1Q261.2 67.3 261.5 67.5Q261.8 67.8 262.0 68.1Q262.1 68.5 262.1 68.9L262.1 68.9Q262.1 69.6 261.8 70.1Q261.5 70.6 260.8 70.8Q260.2 71.1 259.3 71.1ZM267.1 65.0L264.9 65.0L264.9 63.7L270.9 63.7L270.9 65.0L268.6 65.0L268.6 71L267.1 71L267.1 65.0ZM275.1 71L273.5 71L275.9 63.7L277.9 63.7L280.4 71L278.8 71L278.2 69.3L275.6 69.3L275.1 71ZM276.0 68.1L277.8 68.1L277.6 67.5Q277.4 66.8 277.2 66L277.2 66Q277.1 65.5 276.9 64.9L276.9 64.9Q276.8 65.5 276.6 66.0L276.6 66.0Q276.4 66.8 276.2 67.5L276.2 67.5L276.0 68.1ZM284.8 71L283.3 71L283.3 63.7L286.2 63.7Q287.0 63.7 287.6 64.0Q288.2 64.3 288.5 64.8Q288.8 65.4 288.8 66.1Q288.8 66.8 288.5 67.3Q288.2 67.9 287.6 68.1L287.6 68.1Q287.5 68.1 287.5 68.2L287.5 68.2L289.0 71L287.4 71L286.0 68.4L284.8 68.4L284.8 71ZM284.8 65.0L284.8 67.2L285.9 67.2Q286.4 67.2 286.7 67.1Q287.0 66.9 287.1 66.7Q287.2 66.5 287.2 66.1L287.2 66.1Q287.2 65.7 287.1 65.5Q287.0 65.2 286.7 65.1Q286.4 65.0 285.9 65.0L285.9 65.0L284.8 65.0ZM294.6 71.1L294.6 71.1Q293.7 71.1 293.1 70.8Q292.4 70.6 292.1 70.0Q291.7 69.5 291.7 68.7L291.7 68.7L293.1 68.7Q293.2 69.1 293.3 69.4Q293.5 69.6 293.8 69.7Q294.2 69.8 294.6 69.8L294.6 69.8Q295.0 69.8 295.3 69.7Q295.6 69.6 295.7 69.4Q295.9 69.2 295.9 68.9L295.9 68.9Q295.9 68.7 295.7 68.5Q295.6 68.3 295.3 68.2Q295.0 68.1 294.6 68.0L294.6 68.0L293.8 67.8Q292.9 67.6 292.4 67.1Q291.9 66.6 291.9 65.8L291.9 65.8Q291.9 65.2 292.2 64.7Q292.6 64.2 293.2 63.9Q293.8 63.6 294.6 63.6L294.6 63.6Q295.4 63.6 296.0 63.9Q296.6 64.2 296.9 64.7Q297.3 65.2 297.3 65.8L297.3 65.8L295.9 65.8Q295.8 65.4 295.5 65.1Q295.1 64.9 294.6 64.9L294.6 64.9Q294.2 64.9 293.9 65.0Q293.7 65.1 293.5 65.3Q293.4 65.5 293.4 65.7L293.4 65.7Q293.4 66.0 293.6 66.2Q293.7 66.3 294.0 66.5Q294.3 66.6 294.6 66.6L294.6 66.6L295.2 66.8Q295.7 66.9 296.1 67.1Q296.5 67.3 296.8 67.5Q297.1 67.8 297.2 68.1Q297.4 68.5 297.4 68.9L297.4 68.9Q297.4 69.6 297.1 70.1Q296.7 70.6 296.1 70.8Q295.5 71.1 294.6 71.1Z "/></g><mask id="satori_om-id-0-0-1"><rect x="300" y="28" width="1" height="40" fill="#fff" mask="url(#satori_om-id)"/></mask><rect x="300" y="28" width="1" height="40" fill="rgba(120,80,220,0.2)" clip-path="url(#satori_cp-id)" mask="url(#satori_om-id)"/><mask id="satori_om-id-0-1"><rect x="331" y="28" width="45" height="45" fill="#fff" mask="url(#satori_om-id)"/></mask><mask id="satori_om-id-0-1-0"><rect x="331" y="28" width="44" height="45" fill="#fff" mask="url(#satori_om-id)"/></mask><mask id="satori_om-id-0-1-0-0"><rect x="337" y="28" width="32" height="29" fill="#fff" mask="url(#satori_om-id)"/></mask><g mask="url(#satori_om-id)" clip-path="url(#satori_cp-id)"><path fill="#ffffff" d="M344.7 51.2L344.7 51.2Q342.8 51.2 341.4 50.6Q339.9 49.9 339.0 48.8Q338.2 47.6 338.2 46.1L338.2 46.1L341.8 46.1Q341.8 46.8 342.2 47.2Q342.6 47.7 343.2 48Q343.9 48.3 344.7 48.3L344.7 48.3Q345.6 48.3 346.3 48.0Q346.9 47.7 347.3 47.1Q347.7 46.6 347.7 45.9L347.7 45.9Q347.7 45.2 347.3 44.6Q346.9 44.1 346.2 43.7Q345.4 43.4 344.4 43.4L344.4 43.4L342.8 43.4L342.8 40.8L344.4 40.8Q345.3 40.8 345.9 40.5Q346.6 40.2 346.9 39.7Q347.3 39.1 347.3 38.4L347.3 38.4Q347.3 37.7 347.0 37.2Q346.7 36.7 346.1 36.5Q345.5 36.2 344.8 36.2L344.8 36.2Q344.0 36.2 343.4 36.4Q342.7 36.7 342.3 37.2Q342.0 37.7 341.9 38.4L341.9 38.4L338.5 38.4Q338.5 36.9 339.3 35.7Q340.2 34.6 341.6 33.9Q343.0 33.3 344.8 33.3L344.8 33.3Q346.6 33.3 347.9 34.0Q349.3 34.6 350.0 35.7Q350.8 36.8 350.8 38.2L350.8 38.2Q350.8 39.7 349.8 40.7Q348.9 41.6 347.5 41.9L347.5 41.9L347.5 42.0Q348.8 42.2 349.6 42.8Q350.5 43.3 350.9 44.2Q351.4 45.0 351.4 46.1L351.4 46.1Q351.4 47.6 350.5 48.8Q349.7 49.9 348.2 50.6Q346.7 51.2 344.7 51.2ZM362.0 47.9L353.7 47.9L353.7 45.1L361.0 33.5L365.5 33.5L365.5 45.0L367.6 45.0L367.6 47.9L365.5 47.9L365.5 51L362.0 51L362.0 47.9ZM357.3 45.0L362.1 45.0L362.1 37.5L362.0 37.5L357.3 44.9L357.3 45.0Z "/></g><mask id="satori_om-id-0-1-0-1"><rect x="331" y="61" width="44" height="12" fill="#fff" mask="url(#satori_om-id)"/></mask><g mask="url(#satori_om-id)" clip-path="url(#satori_cp-id)"><path fill="#8b7ec8" d="M333.1 71L331.7 71L331.7 63.7L336.4 63.7L336.4 65.0L333.1 65.0L333.1 67.0L336.1 67.0L336.1 68.2L333.1 68.2L333.1 71ZM342.7 71.1L342.7 71.1Q341.8 71.1 341.0 70.7Q340.2 70.2 339.8 69.4Q339.3 68.5 339.3 67.4L339.3 67.4Q339.3 66.2 339.8 65.3Q340.2 64.5 341.0 64.1Q341.8 63.6 342.7 63.6L342.7 63.6Q343.7 63.6 344.5 64.1Q345.2 64.5 345.7 65.3Q346.1 66.2 346.1 67.4L346.1 67.4Q346.1 68.5 345.7 69.4Q345.2 70.2 344.5 70.7Q343.7 71.1 342.7 71.1ZM342.7 69.8L342.7 69.8Q343.3 69.8 343.7 69.5Q344.1 69.2 344.4 68.7Q344.6 68.1 344.6 67.4L344.6 67.4Q344.6 66.6 344.4 66.0Q344.1 65.5 343.7 65.2Q343.3 65.0 342.7 65.0L342.7 65.0Q342.2 65.0 341.7 65.2Q341.3 65.5 341.1 66.0Q340.8 66.6 340.8 67.4L340.8 67.4Q340.8 68.1 341.1 68.7Q341.3 69.2 341.7 69.5Q342.2 69.8 342.7 69.8ZM350.7 71L349.2 71L349.2 63.7L352.1 63.7Q352.9 63.7 353.5 64.0Q354.1 64.3 354.4 64.8Q354.7 65.4 354.7 66.1Q354.7 66.8 354.4 67.3Q354.1 67.9 353.5 68.1L353.5 68.1Q353.4 68.1 353.4 68.2L353.4 68.2L354.9 71L353.3 71L351.9 68.4L350.7 68.4L350.7 71ZM350.7 65.0L350.7 67.2L351.8 67.2Q352.3 67.2 352.5 67.1Q352.8 66.9 353.0 66.7Q353.1 66.5 353.1 66.1L353.1 66.1Q353.1 65.7 353.0 65.5Q352.8 65.2 352.5 65.1Q352.3 65.0 351.8 65.0L351.8 65.0L350.7 65.0ZM359.3 71L357.8 71L357.8 63.7L359.3 63.7L359.3 65.7L359.3 67.4Q359.3 67.3 359.3 67.3L359.3 67.3Q359.6 66.9 359.8 66.6Q360.1 66.2 360.4 65.8L360.4 65.8L362.2 63.7L364.0 63.7L361.3 66.9L364.1 71L362.3 71L360.3 67.9L359.3 68.9L359.3 71ZM369.7 71.1L369.7 71.1Q368.8 71.1 368.1 70.8Q367.5 70.6 367.1 70.0Q366.8 69.5 366.7 68.7L366.7 68.7L368.2 68.7Q368.2 69.1 368.4 69.4Q368.6 69.6 368.9 69.7Q369.2 69.8 369.6 69.8L369.6 69.8Q370.0 69.8 370.3 69.7Q370.6 69.6 370.8 69.4Q371.0 69.2 371.0 68.9L371.0 68.9Q371.0 68.7 370.8 68.5Q370.7 68.3 370.4 68.2Q370.1 68.1 369.7 68.0L369.7 68.0L368.9 67.8Q368.0 67.6 367.5 67.1Q366.9 66.6 366.9 65.8L366.9 65.8Q366.9 65.2 367.3 64.7Q367.7 64.2 368.3 63.9Q368.9 63.6 369.7 63.6L369.7 63.6Q370.5 63.6 371.1 63.9Q371.7 64.2 372.0 64.7Q372.4 65.2 372.4 65.8L372.4 65.8L370.9 65.8Q370.9 65.4 370.6 65.1Q370.2 64.9 369.7 64.9L369.7 64.9Q369.3 64.9 369.0 65.0Q368.8 65.1 368.6 65.3Q368.5 65.5 368.5 65.7L368.5 65.7Q368.5 66.0 368.6 66.2Q368.8 66.3 369.1 66.5Q369.3 66.6 369.6 66.6L369.6 66.6L370.3 66.8Q370.8 66.9 371.1 67.1Q371.5 67.3 371.8 67.5Q372.1 67.8 372.3 68.1Q372.5 68.5 372.5 68.9L372.5 68.9Q372.5 69.6 372.1 70.1Q371.8 70.6 371.2 70.8Q370.5 71.1 369.7 71.1Z "/></g><mask id="satori_om-id-0-1-1"><rect x="375" y="28" width="1" height="40" fill="#fff" mask="url(#satori_om-id)"/></mask><rect x="375" y="28" width="1" height="40" fill="rgba(120,80,220,0.2)" clip-path="url(#satori_cp-id)" mask="url(#satori_om-id)"/><mask id="satori_om-id-0-2"><rect x="406" y="28" width="45" height="45" fill="#fff" mask="url(#satori_om-id)"/></mask><mask id="satori_om-id-0-2-0"><rect x="406" y="28" width="44" height="45" fill="#fff" mask="url(#satori_om-id)"/></mask><mask id="satori_om-id-0-2-0-0"><rect x="413" y="28" width="31" height="29" fill="#fff" mask="url(#satori_om-id)"/></mask><g mask="url(#satori_om-id)" clip-path="url(#satori_cp-id)"><path fill="#ffffff" d="M426.8 51L414.5 51L414.5 48.4L420.6 42.6Q421.4 41.8 422.0 41.2Q422.5 40.6 422.8 40.0Q423.1 39.4 423.1 38.7L423.1 38.7Q423.1 37.9 422.8 37.3Q422.4 36.8 421.8 36.5Q421.2 36.2 420.4 36.2L420.4 36.2Q419.6 36.2 419.0 36.5Q418.4 36.8 418.0 37.4Q417.7 38.0 417.7 38.9L417.7 38.9L414.3 38.9Q414.3 37.2 415.1 35.9Q415.8 34.7 417.2 34.0Q418.6 33.3 420.4 33.3L420.4 33.3Q422.3 33.3 423.7 34.0Q425.0 34.6 425.8 35.8Q426.6 36.9 426.6 38.5L426.6 38.5Q426.6 39.4 426.2 40.4Q425.8 41.3 424.8 42.5Q423.9 43.7 422.1 45.3L422.1 45.3L419.4 47.9L419.4 48.1L426.8 48.1L426.8 51ZM435.5 51.2L435.5 51.2Q433.7 51.2 432.3 50.6Q430.9 49.9 430.1 48.8Q429.3 47.6 429.2 46.1L429.2 46.1L432.7 46.1Q432.7 46.8 433.1 47.3Q433.5 47.8 434.1 48.1Q434.7 48.4 435.5 48.4L435.5 48.4Q436.4 48.4 437.0 48.0Q437.7 47.6 438.1 46.9Q438.5 46.2 438.5 45.3L438.5 45.3Q438.5 44.4 438.1 43.6Q437.7 42.9 437.0 42.5Q436.3 42.1 435.4 42.1L435.4 42.1Q434.6 42.1 433.9 42.4Q433.2 42.7 432.8 43.3L432.8 43.3L429.6 42.7L430.4 33.5L441.0 33.5L441.0 36.5L433.4 36.5L432.9 40.9L433.0 40.9Q433.5 40.3 434.4 39.9Q435.3 39.5 436.5 39.5L436.5 39.5Q437.6 39.5 438.6 39.9Q439.6 40.3 440.4 41.1Q441.1 41.8 441.5 42.9Q441.9 43.9 441.9 45.2L441.9 45.2Q441.9 47.0 441.1 48.3Q440.3 49.7 438.9 50.5Q437.4 51.2 435.5 51.2Z "/></g><mask id="satori_om-id-0-2-0-1"><rect x="406" y="61" width="44" height="12" fill="#fff" mask="url(#satori_om-id)"/></mask><g mask="url(#satori_om-id)" clip-path="url(#satori_cp-id)"><path fill="#5a9ca8" d="M408.1 71L406.7 71L406.7 63.7L409.5 63.7Q410.3 63.7 410.9 64.0Q411.5 64.3 411.8 64.8Q412.1 65.4 412.1 66.1Q412.1 66.8 411.8 67.3Q411.5 67.9 410.9 68.1L410.9 68.1Q410.8 68.1 410.8 68.2L410.8 68.2L412.4 71L410.7 71L409.3 68.4L408.1 68.4L408.1 71ZM408.1 65.0L408.1 67.2L409.2 67.2Q409.7 67.2 410.0 67.1Q410.3 66.9 410.4 66.7Q410.6 66.5 410.6 66.1L410.6 66.1Q410.6 65.7 410.4 65.5Q410.3 65.2 410.0 65.1Q409.7 65.0 409.2 65.0L409.2 65.0L408.1 65.0ZM420.1 71L415.2 71L415.2 63.7L420.1 63.7L420.1 65.0L416.7 65.0L416.7 66.7L419.8 66.7L419.8 67.9L416.7 67.9L416.7 69.8L420.1 69.8L420.1 71ZM424.8 71L423.3 71L423.3 63.7L426.1 63.7Q427.0 63.7 427.5 64.0Q428.1 64.4 428.4 64.9Q428.7 65.5 428.7 66.2L428.7 66.2Q428.7 66.9 428.4 67.5Q428.1 68.0 427.5 68.3Q426.9 68.6 426.1 68.6L426.1 68.6L424.8 68.6L424.8 71ZM424.8 65.0L424.8 67.4L425.9 67.4Q426.3 67.4 426.6 67.3Q426.9 67.1 427.1 66.8Q427.2 66.5 427.2 66.2Q427.2 65.8 427.1 65.5Q426.9 65.3 426.6 65.1Q426.3 65.0 425.9 65.0L425.9 65.0L424.8 65.0ZM435.0 71.1L435.0 71.1Q434.0 71.1 433.2 70.7Q432.5 70.2 432.0 69.4Q431.6 68.5 431.6 67.4L431.6 67.4Q431.6 66.2 432.0 65.3Q432.5 64.5 433.2 64.1Q434.0 63.6 435.0 63.6L435.0 63.6Q435.9 63.6 436.7 64.1Q437.5 64.5 437.9 65.3Q438.4 66.2 438.4 67.4L438.4 67.4Q438.4 68.5 437.9 69.4Q437.5 70.2 436.7 70.7Q435.9 71.1 435.0 71.1ZM435.0 69.8L435.0 69.8Q435.5 69.8 436.0 69.5Q436.4 69.2 436.6 68.7Q436.9 68.1 436.9 67.4L436.9 67.4Q436.9 66.6 436.6 66.0Q436.4 65.5 436.0 65.2Q435.5 65.0 435.0 65.0L435.0 65.0Q434.4 65.0 434.0 65.2Q433.6 65.5 433.3 66.0Q433.1 66.6 433.1 67.4L433.1 67.4Q433.1 68.1 433.3 68.7Q433.6 69.2 434.0 69.5Q434.4 69.8 435.0 69.8ZM444.2 71.1L444.2 71.1Q443.3 71.1 442.6 70.8Q442.0 70.6 441.6 70.0Q441.3 69.5 441.2 68.7L441.2 68.7L442.7 68.7Q442.7 69.1 442.9 69.4Q443.1 69.6 443.4 69.7Q443.7 69.8 444.1 69.8L444.1 69.8Q444.5 69.8 444.8 69.7Q445.1 69.6 445.3 69.4Q445.5 69.2 445.5 68.9L445.5 68.9Q445.5 68.7 445.3 68.5Q445.2 68.3 444.9 68.2Q444.6 68.1 444.2 68.0L444.2 68.0L443.4 67.8Q442.5 67.6 442.0 67.1Q441.4 66.6 441.4 65.8L441.4 65.8Q441.4 65.2 441.8 64.7Q442.1 64.2 442.8 63.9Q443.4 63.6 444.2 63.6L444.2 63.6Q445.0 63.6 445.6 63.9Q446.2 64.2 446.5 64.7Q446.9 65.2 446.9 65.8L446.9 65.8L445.4 65.8Q445.4 65.4 445.0 65.1Q444.7 64.9 444.2 64.9L444.2 64.9Q443.8 64.9 443.5 65.0Q443.2 65.1 443.1 65.3Q443.0 65.5 443.0 65.7L443.0 65.7Q443.0 66.0 443.1 66.2Q443.3 66.3 443.6 66.5Q443.8 66.6 444.1 66.6L444.1 66.6L444.8 66.8Q445.2 66.9 445.6 67.1Q446.0 67.3 446.3 67.5Q446.6 67.8 446.8 68.1Q447.0 68.5 447.0 68.9L447.0 68.9Q447.0 69.6 446.6 70.1Q446.3 70.6 445.7 70.8Q445.0 71.1 444.2 71.1Z "/></g><mask id="satori_om-id-0-2-1"><rect x="450" y="28" width="1" height="40" fill="#fff" mask="url(#satori_om-id)"/></mask><rect x="450" y="28" width="1" height="40" fill="rgba(120,80,220,0.2)" clip-path="url(#satori_cp-id)" mask="url(#satori_om-id)"/><mask id="satori_om-id-0-3"><rect x="481" y="28" width="64" height="45" fill="#fff" mask="url(#satori_om-id)"/></mask><mask id="satori_om-id-0-3-0"><rect x="481" y="28" width="64" height="45" fill="#fff" mask="url(#satori_om-id)"/></mask><mask id="satori_om-id-0-3-0-0"><rect x="485" y="28" width="56" height="29" fill="#fff" mask="url(#satori_om-id)"/></mask><g mask="url(#satori_om-id)" clip-path="url(#satori_cp-id)"><path fill="#ffffff" d="M489.9 33.5L493.8 33.5L493.8 51L490.2 51L490.2 36.7L490.1 36.7L486.1 39.5L486.1 36.2L489.9 33.5ZM502.7 51.2L502.7 51.2Q500.9 51.2 499.5 50.6Q498.1 49.9 497.3 48.8Q496.5 47.6 496.4 46.1L496.4 46.1L499.9 46.1Q500.0 46.8 500.3 47.3Q500.7 47.8 501.3 48.1Q502.0 48.4 502.7 48.4L502.7 48.4Q503.6 48.4 504.3 48.0Q504.9 47.6 505.3 46.9Q505.7 46.2 505.7 45.3L505.7 45.3Q505.7 44.4 505.3 43.6Q504.9 42.9 504.2 42.5Q503.6 42.1 502.6 42.1L502.6 42.1Q501.9 42.1 501.1 42.4Q500.4 42.7 500.0 43.3L500.0 43.3L496.8 42.7L497.6 33.5L508.2 33.5L508.2 36.5L500.6 36.5L500.2 40.9L500.3 40.9Q500.7 40.3 501.6 39.9Q502.6 39.5 503.7 39.5L503.7 39.5Q504.9 39.5 505.9 39.9Q506.9 40.3 507.6 41.1Q508.4 41.8 508.8 42.9Q509.2 43.9 509.2 45.2L509.2 45.2Q509.2 47.0 508.4 48.3Q507.5 49.7 506.1 50.5Q504.6 51.2 502.7 51.2ZM519.8 47.9L511.5 47.9L511.5 45.1L518.8 33.5L523.3 33.5L523.3 45.0L525.4 45.0L525.4 47.9L523.3 47.9L523.3 51L519.8 51L519.8 47.9ZM515.1 45.0L519.9 45.0L519.9 37.5L519.7 37.5L515.1 44.9L515.1 45.0ZM532.3 51L528.6 51L535.8 36.6L535.8 36.5L527.4 36.5L527.4 33.5L539.6 33.5L539.6 36.5L532.3 51Z "/></g><mask id="satori_om-id-0-3-0-1"><rect x="481" y="61" width="64" height="12" fill="#fff" mask="url(#satori_om-id)"/></mask><g mask="url(#satori_om-id)" clip-path="url(#satori_cp-id)"><path fill="#7ee7ff" d="M484.8 71.1L484.8 71.1Q483.9 71.1 483.1 70.7Q482.3 70.2 481.9 69.4Q481.5 68.5 481.5 67.4L481.5 67.4Q481.5 66.2 481.9 65.3Q482.3 64.5 483.1 64.1Q483.9 63.6 484.8 63.6L484.8 63.6Q485.5 63.6 486.0 63.8Q486.5 64.0 486.9 64.3Q487.4 64.6 487.6 65.1Q487.9 65.6 488.0 66.2L488.0 66.2L486.5 66.2Q486.4 65.9 486.3 65.7Q486.1 65.4 485.9 65.3Q485.7 65.1 485.4 65.0Q485.2 65.0 484.9 65.0L484.9 65.0Q484.3 65.0 483.9 65.2Q483.4 65.5 483.2 66.1Q483.0 66.6 483.0 67.4L483.0 67.4Q483.0 68.2 483.2 68.7Q483.5 69.2 483.9 69.5Q484.3 69.8 484.9 69.8L484.9 69.8Q485.2 69.8 485.4 69.7Q485.7 69.6 485.9 69.4Q486.1 69.3 486.3 69.0Q486.4 68.8 486.5 68.5L486.5 68.5L488.0 68.5Q487.9 69.0 487.7 69.5Q487.4 69.9 487.0 70.3Q486.6 70.7 486.1 70.9Q485.5 71.1 484.8 71.1ZM494.3 71.1L494.3 71.1Q493.3 71.1 492.5 70.7Q491.8 70.2 491.3 69.4Q490.9 68.5 490.9 67.4L490.9 67.4Q490.9 66.2 491.3 65.3Q491.8 64.5 492.5 64.1Q493.3 63.6 494.3 63.6L494.3 63.6Q495.2 63.6 496.0 64.1Q496.8 64.5 497.2 65.3Q497.6 66.2 497.6 67.4L497.6 67.4Q497.6 68.5 497.2 69.4Q496.8 70.2 496.0 70.7Q495.2 71.1 494.3 71.1ZM494.3 69.8L494.3 69.8Q494.8 69.8 495.2 69.5Q495.7 69.2 495.9 68.7Q496.1 68.1 496.1 67.4L496.1 67.4Q496.1 66.6 495.9 66.0Q495.7 65.5 495.2 65.2Q494.8 65.0 494.3 65.0L494.3 65.0Q493.7 65.0 493.3 65.2Q492.8 65.5 492.6 66.0Q492.4 66.6 492.4 67.4L492.4 67.4Q492.4 68.1 492.6 68.7Q492.8 69.2 493.3 69.5Q493.7 69.8 494.3 69.8ZM502.2 71L500.8 71L500.8 63.7L503.0 63.7L504.2 67.1Q504.3 67.3 504.4 67.7Q504.5 68.0 504.6 68.5L504.6 68.5Q504.7 68.9 504.8 69.3L504.8 69.3Q504.9 68.9 504.9 68.5L504.9 68.5Q505.0 68.1 505.1 67.7Q505.2 67.3 505.3 67.1L505.3 67.1L506.5 63.7L508.8 63.7L508.8 71L507.3 71L507.3 67.6Q507.3 67.3 507.3 67.0Q507.3 66.6 507.3 66.2Q507.3 65.8 507.3 65.4L507.3 65.4Q507.3 65.2 507.3 65.0L507.3 65.0Q507.3 65.2 507.2 65.4L507.2 65.4Q507.1 65.9 507.0 66.3Q506.9 66.7 506.8 67.0Q506.7 67.3 506.6 67.6L506.6 67.6L505.4 71L504.1 71L502.9 67.6Q502.8 67.3 502.7 67.0Q502.6 66.7 502.5 66.3Q502.4 65.9 502.3 65.4L502.3 65.4Q502.2 65.2 502.2 65.1L502.2 65.1Q502.2 65.2 502.2 65.4L502.2 65.4Q502.2 65.8 502.2 66.2Q502.2 66.6 502.2 67.0Q502.2 67.3 502.2 67.6L502.2 67.6L502.2 71ZM513.6 71L512.1 71L512.1 63.7L514.4 63.7L515.5 67.1Q515.6 67.3 515.7 67.7Q515.8 68.0 515.9 68.5L515.9 68.5Q516.0 68.9 516.1 69.3L516.1 69.3Q516.2 68.9 516.3 68.5L516.3 68.5Q516.4 68.1 516.5 67.7Q516.6 67.3 516.6 67.1L516.6 67.1L517.8 63.7L520.1 63.7L520.1 71L518.6 71L518.6 67.6Q518.6 67.3 518.6 67.0Q518.6 66.6 518.6 66.2Q518.6 65.8 518.6 65.4L518.6 65.4Q518.6 65.2 518.6 65.0L518.6 65.0Q518.6 65.2 518.5 65.4L518.5 65.4Q518.4 65.9 518.3 66.3Q518.2 66.7 518.1 67.0Q518.0 67.3 517.9 67.6L517.9 67.6L516.7 71L515.5 71L514.2 67.6Q514.2 67.3 514.1 67.0Q513.9 66.7 513.8 66.3Q513.7 65.9 513.6 65.4L513.6 65.4Q513.6 65.2 513.5 65.1L513.5 65.1Q513.5 65.2 513.5 65.4L513.5 65.4Q513.5 65.8 513.5 66.2Q513.5 66.6 513.6 67.0Q513.6 67.3 513.6 67.6L513.6 67.6L513.6 71ZM523.4 63.7L524.9 63.7L524.9 71L523.4 71L523.4 63.7ZM530.1 65.0L527.9 65.0L527.9 63.7L533.9 63.7L533.9 65.0L531.6 65.0L531.6 71L530.1 71L530.1 65.0ZM539.5 71.1L539.5 71.1Q538.7 71.1 538.0 70.8Q537.4 70.6 537.0 70.0Q536.7 69.5 536.6 68.7L536.6 68.7L538.1 68.7Q538.1 69.1 538.3 69.4Q538.5 69.6 538.8 69.7Q539.1 69.8 539.5 69.8L539.5 69.8Q539.9 69.8 540.2 69.7Q540.5 69.6 540.7 69.4Q540.9 69.2 540.9 68.9L540.9 68.9Q540.9 68.7 540.7 68.5Q540.6 68.3 540.3 68.2Q540.0 68.1 539.6 68.0L539.6 68.0L538.8 67.8Q537.9 67.6 537.4 67.1Q536.8 66.6 536.8 65.8L536.8 65.8Q536.8 65.2 537.2 64.7Q537.5 64.2 538.2 63.9Q538.8 63.6 539.6 63.6L539.6 63.6Q540.4 63.6 541.0 63.9Q541.6 64.2 541.9 64.7Q542.2 65.2 542.3 65.8L542.3 65.8L540.8 65.8Q540.8 65.4 540.4 65.1Q540.1 64.9 539.5 64.9L539.5 64.9Q539.2 64.9 538.9 65.0Q538.6 65.1 538.5 65.3Q538.4 65.5 538.4 65.7L538.4 65.7Q538.4 66.0 538.5 66.2Q538.7 66.3 538.9 66.5Q539.2 66.6 539.5 66.6L539.5 66.6L540.2 66.8Q540.6 66.9 541.0 67.1Q541.4 67.3 541.7 67.5Q542.0 67.8 542.2 68.1Q542.4 68.5 542.4 68.9L542.4 68.9Q542.4 69.6 542.0 70.1Q541.7 70.6 541.1 70.8Q540.4 71.1 539.5 71.1Z "/></g></svg>